{
copyright = "Copyright 2015 Mohamed Gaber (gaber@gaberism.net)Copyright 2015 Mohamed Gaber (gaber@gaberism.net)";
customParameters = (
{
name = license;
value = "Licensed under the Open Font License, Version 1.1";
},
{
name = licenseURL;
value = "http://scripts.sil.org/OFL";
},
{
name = vendorID;
value = "    ";
},
{
name = glyphOrder;
value = (
    ".notdef",
    NULL,
    uni000D,
    space,
    uni0621,
    uni0627,
    "uni0627.fina",
    uni062D,
    "uni062D.init",
    "uni062D.medi",
    "uni062D.fina",
    uni062F,
    uni0631,
    "uni0631.fina",
    uni0633,
    "uni0633.init",
    "uni0633.medi",
    "uni0633.fina",
    uni0635,
    "uni0635.init",
    "uni0635.medi",
    "uni0635.fina",
    uni0637,
    "uni0637.init",
    "uni0637.medi",
    "uni0637.fina",
    uni0639,
    "uni0639.init",
    "uni0639.medi",
    "uni0639.fina",
    "uni0643.init",
    "uni0643.medi",
    uni0643,
    "uni0643.fina",
    uni0644,
    "uni0644.init",
    "uni0644.medi",
    "uni0644.fina",
    uni0645,
    "uni0645.init",
    "uni0645.medi",
    "uni0645.fina",
    uni0647,
    "uni0647.init",
    "uni0647.medi",
    "uni0647.fina",
    uni0648,
    "uni0648.fina",
    uni0649,
    "uni0649.fina",
    "uni06440627.isol",
    "uni06440627.fina",
    uni0640,
    uni066E,
    "uni066E.fina",
    "uni066F.init",
    "uni066F.medi",
    "feh_dotless.isol",
    "uni06A1.fina",
    uni066F,
    "uni066F.fina",
    "onedot.above",
    "twodots.above",
    "threedots.above",
    "threedots.below",
    uni0660,
    uni0661,
    uni0662,
    uni0663,
    uni0664,
    uni0665,
    uni0666,
    uni0667,
    uni0668,
    uni0669,
    uni06F4,
    uni06F5,
    uni06F6,
    "uni06C1.init",
    "uni06C1.medi",
    uni06BE,
    uni06D2,
    "uni06D2.fina",
    uni06A9,
    "uni06A9.fina",
    uni06AF,
    "uni06AF.init",
    "uni06AF.medi",
    "uni06AF.fina",
    uni06BA,
    "uni06BA.fina",
    uni066A,
    uni061F,
    uni060C,
    uni061B,
    uni066B,
    uni066C,
    uni066D,

glyphs = (
{
glyphname = .notdef;
lastChange = "2015-05-23 20:49:39 +0000";
layers = (
{
layerId = "9E57200A-6CEB-4B70-98B9-A6ACB8F2607D";
name = Bold;
paths = (
{
closed = 1;
nodes = (
"1126 -362 LINE",
"1126 1444 LINE",
"102 1444 LINE",
"102 -362 LINE"
);
},
{
closed = 1;
nodes = (
"217 1329 LINE",
"1012 1329 LINE",
"1012 -248 LINE",
"217 -248 LINE"
);
}
);
width = 1229;
}
);
},
{
glyphname = uni0621;
lastChange = "2015-05-23 21:42:54 +0000";
layers = (
{
anchors = (
{
name = bottom;
position = "{497, -108}";
},
{
name = top;
position = "{497, 1837}";
}
);
layerId = "9E57200A-6CEB-4B70-98B9-A6ACB8F2607D";
name = Bold;
paths = (
{
closed = 1;
nodes = (
"216 -17 OFFCURVE",
"263 -3 OFFCURVE",
"313 3 CURVE SMOOTH",
"424 17 OFFCURVE",
"812 61 OFFCURVE",
"864 69 CURVE SMOOTH",
"889 73 OFFCURVE",
"911 77 OFFCURVE",
"923 102 CURVE SMOOTH",
"926 109 OFFCURVE",
"943 143 OFFCURVE",
"943 183 CURVE SMOOTH",
"943 191 OFFCURVE",
"943 199 OFFCURVE",
"941 208 CURVE SMOOTH",
"927 274 OFFCURVE",
"883 293 OFFCURVE",
"843 293 CURVE SMOOTH",
"832 293 OFFCURVE",
"822 291 OFFCURVE",
"812 289 CURVE SMOOTH",
"773 280 OFFCURVE",
"732 276 OFFCURVE",
"694 276 CURVE SMOOTH",
"618 276 OFFCURVE",
"552 293 OFFCURVE",
"522 329 CURVE SMOOTH",
"466 393 OFFCURVE",
"447 456 OFFCURVE",
"447 512 CURVE SMOOTH",
"447 618 OFFCURVE",
"515 699 OFFCURVE",
"528 713 CURVE",
"625 697 OFFCURVE",
"627 623 OFFCURVE",
"631 562 CURVE",
"648 549 OFFCURVE",
"676 542 OFFCURVE",
"708 542 CURVE SMOOTH",
"781 542 OFFCURVE",
"872 582 OFFCURVE",
"872 689 CURVE SMOOTH",
"872 820 OFFCURVE",
"750 885 OFFCURVE",
"593 885 CURVE SMOOTH",
"287 885 OFFCURVE",
"156 645 OFFCURVE",
"156 500 CURVE SMOOTH",
"156 395 OFFCURVE",
"194 269 OFFCURVE",
"243 216 CURVE",
"164 216 OFFCURVE",
"92 170 OFFCURVE",
"92 67 CURVE SMOOTH",
"92 5 OFFCURVE",
"132 -53 OFFCURVE",
"190 -71 CURVE"
);
}
);
width = 1035;
}
);
unicode = 0621;
},
{
glyphname = uni0627;
lastChange = "2015-05-23 21:44:43 +0000";
layers = (
{
anchors = (
{
name = bottom;
position = "{380, -120}";
},
{
name = top;
position = "{317, 1675}";
}
);
layerId = "9E57200A-6CEB-4B70-98B9-A6ACB8F2607D";
name = Bold;
paths = (
{
closed = 1;
nodes = (
"515 0 OFFCURVE",
"554 131 OFFCURVE",
"554 176 CURVE SMOOTH",
"554 1238 LINE SMOOTH",
"554 1473 OFFCURVE",
"393 1556 OFFCURVE",
"324 1556 CURVE SMOOTH",
"257 1556 OFFCURVE",
"136 1538 OFFCURVE",
"81 1425 CURVE",
"77 1418 OFFCURVE",
"74 1412 OFFCURVE",
"72 1406 CURVE",
"70 1396 OFFCURVE",
"74 1386 OFFCURVE",
"85 1381 CURVE SMOOTH",
"120 1364 OFFCURVE",
"206 1347 OFFCURVE",
"206 1165 CURVE SMOOTH",
"205 180 LINE SMOOTH",
"205 135 OFFCURVE",
"249 0 OFFCURVE",
"380 0 CURVE SMOOTH"
);
}
);
width = 654;
}
);
unicode = 0627;
},
{
glyphname = uni0627.fina;
lastChange = "2015-05-23 21:45:10 +0000";
layers = (
{
anchors = (
{
name = bottom;
position = "{380, -120}";
},
{
name = top;
position = "{317, 1675}";
}
);
layerId = "9E57200A-6CEB-4B70-98B9-A6ACB8F2607D";
name = Bold;
paths = (
{
closed = 1;
nodes = (
"812 0 LINE SMOOTH",
"815 0 OFFCURVE",
"818 3 OFFCURVE",
"818 7 CURVE SMOOTH",
"818 220 LINE SMOOTH",
"818 223 OFFCURVE",
"815 226 OFFCURVE",
"812 226 CURVE SMOOTH",
"652 226 LINE SMOOTH",
"589 226 OFFCURVE",
"552 280 OFFCURVE",
"552 381 CURVE SMOOTH",
"552 1256 LINE SMOOTH",
"552 1476 OFFCURVE",
"391 1556 OFFCURVE",
"323 1556 CURVE SMOOTH",
"255 1556 OFFCURVE",
"129 1537 OFFCURVE",
"75 1416 CURVE",
"75 1416 OFFCURVE",
"72 1410 OFFCURVE",
"72 1407 CURVE SMOOTH",
"72 1406 OFFCURVE",
"73 1406 OFFCURVE",
"73 1406 CURVE",
"70 1396 OFFCURVE",
"74 1388 OFFCURVE",
"85 1381 CURVE",
"85 1381 OFFCURVE",
"205 1339 OFFCURVE",
"205 1165 CURVE SMOOTH",
"205 342 LINE SMOOTH",
"205 242 OFFCURVE",
"342 0 OFFCURVE",
"589 0 CURVE SMOOTH"
);
}
);
width = 778;
}
);
unicode = FE8E;
},
{
glyphname = uni062D;
lastChange = "2015-05-23 21:45:31 +0000";
layers = (
{
anchors = (
{
name = bottom;
position = "{623, -683}";
},
{
name = center;
position = "{478, 336}";
},
{
name = top;
position = "{623, 1254}";
}
);
layerId = "9E57200A-6CEB-4B70-98B9-A6ACB8F2607D";
name = Bold;
paths = (
{
closed = 1;
nodes = (
"255 -587 OFFCURVE",
"300 -599 OFFCURVE",
"343 -599 CURVE SMOOTH",
"432 -599 OFFCURVE",
"515 -548 OFFCURVE",
"515 -504 CURVE",
"327 -353 OFFCURVE",
"335 0 OFFCURVE",
"335 0 CURVE SMOOTH",
"895 0 LINE SMOOTH",
"1280 0 OFFCURVE",
"1349 382 OFFCURVE",
"1349 531 CURVE SMOOTH",
"1349 841 OFFCURVE",
"1022 1054 OFFCURVE",
"802 1054 CURVE SMOOTH",
"751 1054 OFFCURVE",
"692 1052 OFFCURVE",
"646 1049 CURVE SMOOTH",
"617 1047 OFFCURVE",
"586 1046 OFFCURVE",
"555 1046 CURVE SMOOTH",
"441 1046 OFFCURVE",
"328 1060 OFFCURVE",
"302 1107 CURVE SMOOTH",
"286 1134 OFFCURVE",
"268 1140 OFFCURVE",
"255 1140 CURVE SMOOTH",
"249 1140 OFFCURVE",
"244 1139 OFFCURVE",
"241 1138 CURVE",
"210 1127 OFFCURVE",
"196 1102 OFFCURVE",
"196 1063 CURVE SMOOTH",
"196 1050 OFFCURVE",
"198 1035 OFFCURVE",
"201 1019 CURVE SMOOTH",
"221 899 OFFCURVE",
"305 828 OFFCURVE",
"424 828 CURVE SMOOTH",
"439 828 OFFCURVE",
"573 830 OFFCURVE",
"609 830 CURVE SMOOTH",
"774 830 OFFCURVE",
"996 793 OFFCURVE",
"996 516 CURVE SMOOTH",
"996 316 OFFCURVE",
"910 237 OFFCURVE",
"841 226 CURVE",
"368 226 LINE SMOOTH",
"157 226 OFFCURVE",
"76 38 OFFCURVE",
"76 -157 CURVE SMOOTH",
"76 -320 OFFCURVE",
"133 -489 OFFCURVE",
"218 -557 CURVE SMOOTH"
);
}
);
width = 1425;
}
);
unicode = 062D;
},
{
glyphname = uni062D.init;
lastChange = "2015-05-23 21:45:59 +0000";
layers = (
{
anchors = (
{
name = bottom;
position = "{488, -120}";
},
{
name = top;
position = "{488, 1254}";
}
);
layerId = "9E57200A-6CEB-4B70-98B9-A6ACB8F2607D";
name = Bold;
paths = (
{
closed = 1;
nodes = (
"761 0 LINE SMOOTH",
"1146 0 OFFCURVE",
"1215 382 OFFCURVE",
"1215 531 CURVE SMOOTH",
"1215 841 OFFCURVE",
"888 1054 OFFCURVE",
"668 1054 CURVE SMOOTH",
"617 1054 OFFCURVE",
"558 1052 OFFCURVE",
"512 1049 CURVE SMOOTH",
"483 1047 OFFCURVE",
"452 1046 OFFCURVE",
"421 1046 CURVE SMOOTH",
"307 1046 OFFCURVE",
"194 1060 OFFCURVE",
"168 1107 CURVE SMOOTH",
"152 1134 OFFCURVE",
"134 1140 OFFCURVE",
"121 1140 CURVE SMOOTH",
"115 1140 OFFCURVE",
"110 1139 OFFCURVE",
"107 1138 CURVE",
"76 1127 OFFCURVE",
"62 1102 OFFCURVE",
"62 1063 CURVE SMOOTH",
"62 1050 OFFCURVE",
"64 1035 OFFCURVE",
"67 1019 CURVE SMOOTH",
"87 899 OFFCURVE",
"171 828 OFFCURVE",
"290 828 CURVE SMOOTH",
"305 828 OFFCURVE",
"439 830 OFFCURVE",
"475 830 CURVE SMOOTH",
"640 830 OFFCURVE",
"862 793 OFFCURVE",
"862 516 CURVE SMOOTH",
"862 316 OFFCURVE",
"776 237 OFFCURVE",
"707 226 CURVE",
"-33 226 LINE SMOOTH",
"-38 226 OFFCURVE",
"-40 224 OFFCURVE",
"-40 220 CURVE SMOOTH",
"-40 6 LINE SMOOTH",
"-40 2 OFFCURVE",
"-38 0 OFFCURVE",
"-33 0 CURVE SMOOTH"
);
}
);
width = 1348;
}
);
unicode = FEA3;
},
{
glyphname = uni062D.medi;
lastChange = "2015-05-23 21:46:17 +0000";
layers = (
{
anchors = (
{
name = bottom;
position = "{489, -120}";
},
{
name = top;
position = "{489, 1254}";
}
);
layerId = "9E57200A-6CEB-4B70-98B9-A6ACB8F2607D";
name = Bold;
paths = (
{
closed = 1;
nodes = (
"761 0 LINE SMOOTH",
"871 0 OFFCURVE",
"955 32 OFFCURVE",
"1019 80 CURVE",
"1090 24 OFFCURVE",
"1178 0 OFFCURVE",
"1270 0 CURVE SMOOTH",
"1352 0 LINE SMOOTH",
"1356 0 OFFCURVE",
"1358 2 OFFCURVE",
"1358 6 CURVE SMOOTH",
"1358 220 LINE SMOOTH",
"1358 224 OFFCURVE",
"1356 226 OFFCURVE",
"1352 226 CURVE SMOOTH",
"1141 226 LINE",
"1199 337 OFFCURVE",
"1215 460 OFFCURVE",
"1215 531 CURVE SMOOTH",
"1215 841 OFFCURVE",
"888 1054 OFFCURVE",
"668 1054 CURVE SMOOTH",
"617 1054 OFFCURVE",
"558 1052 OFFCURVE",
"512 1049 CURVE SMOOTH",
"483 1047 OFFCURVE",
"452 1046 OFFCURVE",
"421 1046 CURVE SMOOTH",
"307 1046 OFFCURVE",
"194 1060 OFFCURVE",
"168 1107 CURVE SMOOTH",
"152 1134 OFFCURVE",
"134 1140 OFFCURVE",
"121 1140 CURVE SMOOTH",
"115 1140 OFFCURVE",
"110 1139 OFFCURVE",
"107 1138 CURVE",
"76 1127 OFFCURVE",
"62 1102 OFFCURVE",
"62 1063 CURVE SMOOTH",
"62 1050 OFFCURVE",
"64 1035 OFFCURVE",
"67 1019 CURVE SMOOTH",
"87 899 OFFCURVE",
"171 828 OFFCURVE",
"290 828 CURVE SMOOTH",
"305 828 OFFCURVE",
"439 830 OFFCURVE",
"475 830 CURVE SMOOTH",
"640 830 OFFCURVE",
"862 793 OFFCURVE",
"862 516 CURVE SMOOTH",
"862 316 OFFCURVE",
"776 237 OFFCURVE",
"707 226 CURVE",
"-33 225 LINE SMOOTH",
"-38 225 OFFCURVE",
"-40 223 OFFCURVE",
"-40 219 CURVE SMOOTH",
"-40 5 LINE SMOOTH",
"-40 1 OFFCURVE",
"-38 -1 OFFCURVE",
"-33 -1 CURVE SMOOTH"
);
}
);
width = 1318;
}
);
unicode = FEA4;
},
{
glyphname = uni062D.fina;
lastChange = "2015-05-23 21:46:36 +0000";
layers = (
{
anchors = (
{
name = bottom;
position = "{623, -683}";
},
{
name = center;
position = "{478, 336}";
},
{
name = top;
position = "{623, 1254}";
}
);
layerId = "9E57200A-6CEB-4B70-98B9-A6ACB8F2607D";
name = Bold;
paths = (
{
closed = 1;
nodes = (
"238 -587 OFFCURVE",
"283 -599 OFFCURVE",
"326 -599 CURVE SMOOTH",
"415 -599 OFFCURVE",
"498 -548 OFFCURVE",
"498 -504 CURVE",
"310 -353 OFFCURVE",
"318 0 OFFCURVE",
"318 0 CURVE SMOOTH",
"878 0 LINE SMOOTH",
"989 0 OFFCURVE",
"1073 31 OFFCURVE",
"1137 80 CURVE",
"1209 25 OFFCURVE",
"1299 0 OFFCURVE",
"1388 0 CURVE SMOOTH",
"1531 0 LINE SMOOTH",
"1535 0 OFFCURVE",
"1537 2 OFFCURVE",
"1537 5 CURVE SMOOTH",
"1537 221 LINE SMOOTH",
"1537 224 OFFCURVE",
"1535 226 OFFCURVE",
"1531 226 CURVE SMOOTH",
"1259 226 LINE",
"1317 336 OFFCURVE",
"1332 460 OFFCURVE",
"1332 531 CURVE SMOOTH",
"1332 841 OFFCURVE",
"1005 1054 OFFCURVE",
"785 1054 CURVE SMOOTH",
"734 1054 OFFCURVE",
"675 1052 OFFCURVE",
"629 1049 CURVE SMOOTH",
"600 1047 OFFCURVE",
"569 1046 OFFCURVE",
"538 1046 CURVE SMOOTH",
"424 1046 OFFCURVE",
"311 1060 OFFCURVE",
"285 1107 CURVE SMOOTH",
"269 1134 OFFCURVE",
"251 1140 OFFCURVE",
"238 1140 CURVE SMOOTH",
"232 1140 OFFCURVE",
"227 1139 OFFCURVE",
"224 1138 CURVE",
"193 1127 OFFCURVE",
"179 1102 OFFCURVE",
"179 1063 CURVE SMOOTH",
"179 1050 OFFCURVE",
"181 1035 OFFCURVE",
"184 1019 CURVE SMOOTH",
"204 899 OFFCURVE",
"288 828 OFFCURVE",
"407 828 CURVE SMOOTH",
"422 828 OFFCURVE",
"556 830 OFFCURVE",
"592 830 CURVE SMOOTH",
"757 830 OFFCURVE",
"979 793 OFFCURVE",
"979 516 CURVE SMOOTH",
"979 316 OFFCURVE",
"893 237 OFFCURVE",
"824 226 CURVE",
"351 226 LINE SMOOTH",
"140 226 OFFCURVE",
"59 38 OFFCURVE",
"59 -157 CURVE SMOOTH",
"59 -320 OFFCURVE",
"116 -489 OFFCURVE",
"201 -557 CURVE SMOOTH"
);
}
);
width = 1497;
}
);
unicode = FEA2;
},
{
glyphname = uni062F;
lastChange = "2015-05-23 21:46:42 +0000";
layers = (
{
anchors = (
{
name = bottom;
position = "{509, -120}";
},
{
name = top;
position = "{509, 1228}";
}
);
layerId = "9E57200A-6CEB-4B70-98B9-A6ACB8F2607D";
name = Bold;
paths = (
{
closed = 1;
nodes = (
"557 0 LINE SMOOTH",
"935 0 OFFCURVE",
"1008 449 OFFCURVE",
"1008 566 CURVE SMOOTH",
"1008 988 OFFCURVE",
"604 1054 OFFCURVE",
"490 1054 CURVE SMOOTH",
"394 1054 OFFCURVE",
"94 995 OFFCURVE",
"94 807 CURVE SMOOTH",
"94 651 OFFCURVE",
"179 611 OFFCURVE",
"262 611 CURVE SMOOTH",
"324 611 OFFCURVE",
"386 634 OFFCURVE",
"410 646 CURVE",
"410 663 OFFCURVE",
"409 680 OFFCURVE",
"409 698 CURVE SMOOTH",
"409 762 OFFCURVE",
"420 826 OFFCURVE",
"518 854 CURVE",
"590 812 OFFCURVE",
"639 729 OFFCURVE",
"639 586 CURVE SMOOTH",
"639 454 OFFCURVE",
"625 226 OFFCURVE",
"308 226 CURVE SMOOTH",
"227 226 LINE SMOOTH",
"105 226 OFFCURVE",
"93 171 OFFCURVE",
"93 110 CURVE SMOOTH",
"93 84 OFFCURVE",
"106 0 OFFCURVE",
"192 0 CURVE SMOOTH"
);
}
);
width = 1101;
}
);
unicode = 062F;
},
{
glyphname = uni0631;
lastChange = "2015-05-23 21:47:31 +0000";
layers = (
{
anchors = (
{
name = bottom;
position = "{509, -635}";
},
{
name = top;
position = "{509, 1235}";
}
);
layerId = "9E57200A-6CEB-4B70-98B9-A6ACB8F2607D";
name = Bold;
paths = (
{
closed = 1;
nodes = (
"622 -507 OFFCURVE",
"693 -223 OFFCURVE",
"693 -82 CURVE SMOOTH",
"693 903 LINE SMOOTH",
"693 985 OFFCURVE",
"630 1053 OFFCURVE",
"516 1053 CURVE SMOOTH",
"426 1053 OFFCURVE",
"344 998 OFFCURVE",
"344 908 CURVE SMOOTH",
"344 -109 LINE SMOOTH",
"344 -221 OFFCURVE",
"265 -254 OFFCURVE",
"177 -254 CURVE SMOOTH",
"82 -254 OFFCURVE",
"-23 -215 OFFCURVE",
"-46 -196 CURVE SMOOTH",
"-51 -192 OFFCURVE",
"-56 -190 OFFCURVE",
"-60 -190 CURVE SMOOTH",
"-66 -190 OFFCURVE",
"-70 -194 OFFCURVE",
"-73 -199 CURVE SMOOTH",
"-77 -205 OFFCURVE",
"-80 -214 OFFCURVE",
"-80 -226 CURVE SMOOTH",
"-80 -230 OFFCURVE",
"-80 -235 OFFCURVE",
"-79 -240 CURVE SMOOTH",
"-76 -262 OFFCURVE",
"17 -507 OFFCURVE",
"306 -507 CURVE SMOOTH"
);
}
);
width = 793;
}
);
unicode = 0631;
},
{
glyphname = uni0631.fina;
lastChange = "2015-05-23 21:47:39 +0000";
layers = (
{
anchors = (
{
name = bottom;
position = "{509, -635}";
},
{
name = top;
position = "{509, 1235}";
}
);
layerId = "9E57200A-6CEB-4B70-98B9-A6ACB8F2607D";
name = Bold;
paths = (
{
closed = 1;
nodes = (
"622 -507 OFFCURVE",
"693 -223 OFFCURVE",
"693 -82 CURVE SMOOTH",
"693 80 LINE",
"764 24 OFFCURVE",
"851 0 OFFCURVE",
"943 0 CURVE SMOOTH",
"963 0 LINE SMOOTH",
"966 0 OFFCURVE",
"968 2 OFFCURVE",
"968 6 CURVE SMOOTH",
"968 220 LINE SMOOTH",
"968 224 OFFCURVE",
"966 226 OFFCURVE",
"963 226 CURVE SMOOTH",
"693 226 LINE",
"693 903 LINE SMOOTH",
"693 985 OFFCURVE",
"630 1053 OFFCURVE",
"515 1053 CURVE SMOOTH",
"425 1053 OFFCURVE",
"343 998 OFFCURVE",
"343 908 CURVE SMOOTH",
"343 -109 LINE SMOOTH",
"343 -221 OFFCURVE",
"264 -254 OFFCURVE",
"176 -254 CURVE SMOOTH",
"81 -254 OFFCURVE",
"-24 -215 OFFCURVE",
"-47 -196 CURVE SMOOTH",
"-52 -192 OFFCURVE",
"-56 -190 OFFCURVE",
"-60 -190 CURVE SMOOTH",
"-66 -190 OFFCURVE",
"-70 -194 OFFCURVE",
"-74 -199 CURVE SMOOTH",
"-78 -205 OFFCURVE",
"-80 -214 OFFCURVE",
"-80 -225 CURVE SMOOTH",
"-80 -230 OFFCURVE",
"-80 -235 OFFCURVE",
"-79 -240 CURVE SMOOTH",
"-77 -262 OFFCURVE",
"16 -507 OFFCURVE",
"305 -507 CURVE SMOOTH"
);
}
);
width = 949;
}
);
unicode = FEAE;
},
{
glyphname = uni0633;
lastChange = "2015-05-23 21:48:06 +0000";
layers = (
{
anchors = (
{
name = bottom;
position = "{1803, -120}";
},
{
name = top;
position = "{1803, 1221}";
}
);
layerId = "9E57200A-6CEB-4B70-98B9-A6ACB8F2607D";
name = Bold;
paths = (
{
closed = 1;
nodes = (
"780 -507 LINE SMOOTH",
"1132 -506 OFFCURVE",
"1337 -341 OFFCURVE",
"1337 79 CURVE",
"1339 76 OFFCURVE",
"1396 0 OFFCURVE",
"1512 0 CURVE SMOOTH",
"1612 0 OFFCURVE",
"1680 89 OFFCURVE",
"1683 142 CURVE",
"1770 48 OFFCURVE",
"1890 0 OFFCURVE",
"2045 0 CURVE SMOOTH",
"2150 0 LINE SMOOTH",
"2615 0 OFFCURVE",
"2639 548 OFFCURVE",
"2639 582 CURVE SMOOTH",
"2639 883 OFFCURVE",
"2526 1053 OFFCURVE",
"2356 1053 CURVE SMOOTH",
"2241 1053 OFFCURVE",
"2156 978 OFFCURVE",
"2156 919 CURVE SMOOTH",
"2156 903 OFFCURVE",
"2321 868 OFFCURVE",
"2321 525 CURVE SMOOTH",
"2321 315 OFFCURVE",
"2245 226 OFFCURVE",
"2156 226 CURVE SMOOTH",
"2065 226 LINE SMOOTH",
"1991 226 OFFCURVE",
"1985 343 OFFCURVE",
"1985 409 CURVE SMOOTH",
"1985 820 LINE SMOOTH",
"1985 967 OFFCURVE",
"1866 992 OFFCURVE",
"1808 992 CURVE SMOOTH",
"1742 992 OFFCURVE",
"1631 959 OFFCURVE",
"1631 820 CURVE SMOOTH",
"1631 410 LINE SMOOTH",
"1631 349 OFFCURVE",
"1622 226 OFFCURVE",
"1524 226 CURVE SMOOTH",
"1459 226 LINE SMOOTH",
"1398 228 OFFCURVE",
"1359 280 OFFCURVE",
"1359 381 CURVE SMOOTH",
"1359 773 LINE SMOOTH",
"1359 854 OFFCURVE",
"1325 944 OFFCURVE",
"1180 944 CURVE SMOOTH",
"1034 944 OFFCURVE",
"1003 854 OFFCURVE",
"1003 773 CURVE SMOOTH",
"1003 148 LINE SMOOTH",
"1003 123 OFFCURVE",
"1004 94 OFFCURVE",
"1004 64 CURVE SMOOTH",
"1004 -89 OFFCURVE",
"987 -282 OFFCURVE",
"786 -282 CURVE SMOOTH",
"718 -282 LINE SMOOTH",
"587 -282 OFFCURVE",
"451 -219 OFFCURVE",
"451 0 CURVE SMOOTH",
"451 220 OFFCURVE",
"494 300 OFFCURVE",
"610 376 CURVE",
"610 376 OFFCURVE",
"617 381 OFFCURVE",
"617 384 CURVE SMOOTH",
"617 453 OFFCURVE",
"543 521 OFFCURVE",
"411 521 CURVE SMOOTH",
"185 521 OFFCURVE",
"133 255 OFFCURVE",
"133 70 CURVE SMOOTH",
"133 -359 OFFCURVE",
"392 -507 OFFCURVE",
"713 -507 CURVE SMOOTH"
);
}
);
width = 2772;
}
);
unicode = 0633;
},
{
glyphname = uni0633.init;
lastChange = "2015-05-23 21:48:12 +0000";
layers = (
{
anchors = (
{
name = bottom;
position = "{1026, -120}";
},
{
name = top;
position = "{1026, 1221}";
}
);
layerId = "9E57200A-6CEB-4B70-98B9-A6ACB8F2607D";
name = Bold;
paths = (
{
closed = 1;
nodes = (
"117 0 LINE",
"235 5 OFFCURVE",
"259 53 OFFCURVE",
"326 142 CURVE",
"340 125 OFFCURVE",
"475 0 OFFCURVE",
"629 0 CURVE SMOOTH",
"763 0 OFFCURVE",
"834 48 OFFCURVE",
"906 142 CURVE",
"993 48 OFFCURVE",
"1113 0 OFFCURVE",
"1268 0 CURVE SMOOTH",
"1373 0 LINE SMOOTH",
"1838 0 OFFCURVE",
"1862 548 OFFCURVE",
"1862 582 CURVE SMOOTH",
"1862 883 OFFCURVE",
"1749 1053 OFFCURVE",
"1579 1053 CURVE SMOOTH",
"1464 1053 OFFCURVE",
"1379 978 OFFCURVE",
"1379 919 CURVE SMOOTH",
"1379 903 OFFCURVE",
"1544 868 OFFCURVE",
"1544 525 CURVE SMOOTH",
"1544 315 OFFCURVE",
"1468 226 OFFCURVE",
"1379 226 CURVE SMOOTH",
"1288 226 LINE SMOOTH",
"1214 226 OFFCURVE",
"1208 343 OFFCURVE",
"1208 409 CURVE SMOOTH",
"1208 820 LINE SMOOTH",
"1208 967 OFFCURVE",
"1089 992 OFFCURVE",
"1031 992 CURVE SMOOTH",
"965 992 OFFCURVE",
"854 959 OFFCURVE",
"854 820 CURVE SMOOTH",
"854 410 LINE SMOOTH",
"854 349 OFFCURVE",
"845 226 OFFCURVE",
"747 226 CURVE SMOOTH",
"700 226 LINE SMOOTH",
"591 226 OFFCURVE",
"582 323 OFFCURVE",
"582 381 CURVE SMOOTH",
"582 773 LINE SMOOTH",
"582 854 OFFCURVE",
"548 944 OFFCURVE",
"403 944 CURVE SMOOTH",
"257 944 OFFCURVE",
"226 854 OFFCURVE",
"226 773 CURVE SMOOTH",
"226 399 LINE SMOOTH",
"226 324 OFFCURVE",
"196 226 OFFCURVE",
"126 226 CURVE SMOOTH",
"-34 226 LINE SMOOTH",
"-37 226 OFFCURVE",
"-40 223 OFFCURVE",
"-40 220 CURVE SMOOTH",
"-40 6 LINE SMOOTH",
"-40 2 OFFCURVE",
"-37 0 OFFCURVE",
"-34 0 CURVE SMOOTH"
);
}
);
width = 2036;
}
);
unicode = FEB3;
},
{
glyphname = uni0633.medi;
lastChange = "2015-05-23 21:48:28 +0000";
layers = (
{
anchors = (
{
name = bottom;
position = "{1025, -120}";
},
{
name = top;
position = "{1025, 1221}";
}
);
layerId = "9E57200A-6CEB-4B70-98B9-A6ACB8F2607D";
name = Bold;
paths = (
{
closed = 1;
nodes = (
"117 0 LINE",
"235 5 OFFCURVE",
"259 53 OFFCURVE",
"326 142 CURVE",
"340 125 OFFCURVE",
"475 0 OFFCURVE",
"629 0 CURVE SMOOTH",
"763 0 OFFCURVE",
"834 48 OFFCURVE",
"906 142 CURVE",
"993 48 OFFCURVE",
"1113 0 OFFCURVE",
"1268 0 CURVE SMOOTH",
"1373 0 LINE SMOOTH",
"1484 0 OFFCURVE",
"1570 31 OFFCURVE",
"1637 79 CURVE",
"1708 24 OFFCURVE",
"1795 0 OFFCURVE",
"1886 0 CURVE SMOOTH",
"2133 0 LINE SMOOTH",
"2136 0 OFFCURVE",
"2138 2 OFFCURVE",
"2138 6 CURVE SMOOTH",
"2138 220 LINE SMOOTH",
"2138 224 OFFCURVE",
"2136 226 OFFCURVE",
"2133 226 CURVE SMOOTH",
"1766 226 LINE",
"1855 381 OFFCURVE",
"1862 563 OFFCURVE",
"1862 582 CURVE SMOOTH",
"1862 883 OFFCURVE",
"1749 1053 OFFCURVE",
"1579 1053 CURVE SMOOTH",
"1464 1053 OFFCURVE",
"1379 978 OFFCURVE",
"1379 919 CURVE SMOOTH",
"1379 903 OFFCURVE",
"1544 868 OFFCURVE",
"1544 525 CURVE SMOOTH",
"1544 315 OFFCURVE",
"1468 226 OFFCURVE",
"1379 226 CURVE SMOOTH",
"1288 226 LINE SMOOTH",
"1214 226 OFFCURVE",
"1208 343 OFFCURVE",
"1208 409 CURVE SMOOTH",
"1208 820 LINE SMOOTH",
"1208 967 OFFCURVE",
"1089 992 OFFCURVE",
"1031 992 CURVE SMOOTH",
"965 992 OFFCURVE",
"854 959 OFFCURVE",
"854 820 CURVE SMOOTH",
"854 410 LINE SMOOTH",
"854 349 OFFCURVE",
"845 226 OFFCURVE",
"747 226 CURVE SMOOTH",
"700 226 LINE SMOOTH",
"591 226 OFFCURVE",
"582 323 OFFCURVE",
"582 381 CURVE SMOOTH",
"582 773 LINE SMOOTH",
"582 854 OFFCURVE",
"548 944 OFFCURVE",
"403 944 CURVE SMOOTH",
"257 944 OFFCURVE",
"226 854 OFFCURVE",
"226 773 CURVE SMOOTH",
"226 399 LINE SMOOTH",
"226 324 OFFCURVE",
"196 226 OFFCURVE",
"126 226 CURVE SMOOTH",
"-34 226 LINE SMOOTH",
"-37 226 OFFCURVE",
"-40 223 OFFCURVE",
"-40 220 CURVE SMOOTH",
"-40 6 LINE SMOOTH",
"-40 2 OFFCURVE",
"-37 0 OFFCURVE",
"-34 0 CURVE SMOOTH"
);
}
);
width = 2098;
}
);
unicode = FEB4;
},
{
glyphname = uni0633.fina;
lastChange = "2015-05-23 21:48:32 +0000";
layers = (
{
anchors = (
{
name = bottom;
position = "{1803, -120}";
},
{
name = top;
position = "{1803, 1221}";
}
);
layerId = "9E57200A-6CEB-4B70-98B9-A6ACB8F2607D";
name = Bold;
paths = (
{
closed = 1;
nodes = (
"780 -507 LINE SMOOTH",
"1132 -506 OFFCURVE",
"1337 -341 OFFCURVE",
"1337 79 CURVE",
"1339 76 OFFCURVE",
"1396 0 OFFCURVE",
"1512 0 CURVE SMOOTH",
"1612 0 OFFCURVE",
"1680 89 OFFCURVE",
"1683 142 CURVE",
"1770 48 OFFCURVE",
"1890 0 OFFCURVE",
"2045 0 CURVE SMOOTH",
"2150 0 LINE SMOOTH",
"2261 0 OFFCURVE",
"2347 32 OFFCURVE",
"2413 80 CURVE",
"2485 24 OFFCURVE",
"2571 0 OFFCURVE",
"2663 0 CURVE SMOOTH",
"2910 0 LINE SMOOTH",
"2913 0 OFFCURVE",
"2915 2 OFFCURVE",
"2915 6 CURVE SMOOTH",
"2915 220 LINE SMOOTH",
"2915 224 OFFCURVE",
"2913 226 OFFCURVE",
"2910 226 CURVE SMOOTH",
"2542 226 LINE",
"2631 382 OFFCURVE",
"2639 563 OFFCURVE",
"2639 582 CURVE SMOOTH",
"2639 883 OFFCURVE",
"2526 1053 OFFCURVE",
"2356 1053 CURVE SMOOTH",
"2241 1053 OFFCURVE",
"2156 978 OFFCURVE",
"2156 919 CURVE SMOOTH",
"2156 903 OFFCURVE",
"2321 868 OFFCURVE",
"2321 525 CURVE SMOOTH",
"2321 315 OFFCURVE",
"2245 226 OFFCURVE",
"2156 226 CURVE SMOOTH",
"2065 226 LINE SMOOTH",
"1991 226 OFFCURVE",
"1985 343 OFFCURVE",
"1985 409 CURVE SMOOTH",
"1985 820 LINE SMOOTH",
"1985 967 OFFCURVE",
"1866 992 OFFCURVE",
"1808 992 CURVE SMOOTH",
"1742 992 OFFCURVE",
"1631 959 OFFCURVE",
"1631 820 CURVE SMOOTH",
"1631 410 LINE SMOOTH",
"1631 349 OFFCURVE",
"1622 226 OFFCURVE",
"1524 226 CURVE SMOOTH",
"1459 226 LINE SMOOTH",
"1398 228 OFFCURVE",
"1359 280 OFFCURVE",
"1359 381 CURVE SMOOTH",
"1359 773 LINE SMOOTH",
"1359 854 OFFCURVE",
"1325 944 OFFCURVE",
"1180 944 CURVE SMOOTH",
"1034 944 OFFCURVE",
"1003 854 OFFCURVE",
"1003 773 CURVE SMOOTH",
"1003 148 LINE SMOOTH",
"1003 123 OFFCURVE",
"1004 94 OFFCURVE",
"1004 64 CURVE SMOOTH",
"1004 -89 OFFCURVE",
"987 -282 OFFCURVE",
"786 -282 CURVE SMOOTH",
"718 -282 LINE SMOOTH",
"587 -282 OFFCURVE",
"451 -219 OFFCURVE",
"451 0 CURVE SMOOTH",
"451 220 OFFCURVE",
"494 300 OFFCURVE",
"610 376 CURVE",
"610 376 OFFCURVE",
"617 381 OFFCURVE",
"617 384 CURVE SMOOTH",
"617 453 OFFCURVE",
"543 521 OFFCURVE",
"411 521 CURVE SMOOTH",
"185 521 OFFCURVE",
"133 255 OFFCURVE",
"133 70 CURVE SMOOTH",
"133 -359 OFFCURVE",
"392 -507 OFFCURVE",
"713 -507 CURVE SMOOTH"
);
}
);
width = 2875;
}
);
unicode = FEB2;
},
{
glyphname = uni0635;
lastChange = "2015-05-23 21:48:38 +0000";
layers = (
{
anchors = (
{
name = bottom;
position = "{1688, -120}";
},
{
name = top;
position = "{1688, 1221}";
}
);
layerId = "9E57200A-6CEB-4B70-98B9-A6ACB8F2607D";
name = Bold;
paths = (
{
closed = 1;
nodes = (
"779 -507 LINE SMOOTH",
"1131 -506 OFFCURVE",
"1336 -341 OFFCURVE",
"1336 78 CURVE",
"1406 23 OFFCURVE",
"1495 0 OFFCURVE",
"1587 0 CURVE SMOOTH",
"1882 0 LINE SMOOTH",
"2318 0 OFFCURVE",
"2365 353 OFFCURVE",
"2365 489 CURVE SMOOTH",
"2365 834 OFFCURVE",
"2061 1054 OFFCURVE",
"1739 1054 CURVE SMOOTH",
"1421 1054 OFFCURVE",
"1248 857 OFFCURVE",
"1231 834 CURVE",
"1192 907 OFFCURVE",
"1125 935 OFFCURVE",
"1090 935 CURVE SMOOTH",
"977 935 OFFCURVE",
"922 868 OFFCURVE",
"904 824 CURVE SMOOTH",
"902 817 OFFCURVE",
"905 810 OFFCURVE",
"913 806 CURVE",
"913 806 OFFCURVE",
"1002 778 OFFCURVE",
"1002 654 CURVE SMOOTH",
"1002 148 LINE SMOOTH",
"1002 123 OFFCURVE",
"1003 94 OFFCURVE",
"1003 64 CURVE SMOOTH",
"1003 -89 OFFCURVE",
"986 -282 OFFCURVE",
"785 -282 CURVE SMOOTH",
"717 -282 LINE SMOOTH",
"586 -282 OFFCURVE",
"450 -219 OFFCURVE",
"450 0 CURVE SMOOTH",
"450 220 OFFCURVE",
"493 300 OFFCURVE",
"609 376 CURVE",
"609 376 OFFCURVE",
"616 381 OFFCURVE",
"616 384 CURVE SMOOTH",
"616 453 OFFCURVE",
"542 521 OFFCURVE",
"410 521 CURVE SMOOTH",
"184 521 OFFCURVE",
"132 255 OFFCURVE",
"132 70 CURVE SMOOTH",
"132 -359 OFFCURVE",
"391 -507 OFFCURVE",
"712 -507 CURVE SMOOTH"
);
},
{
closed = 1;
nodes = (
"1299 232 OFFCURVE",
"1268 280 OFFCURVE",
"1264 377 CURVE",
"1264 585 LINE",
"1330 726 OFFCURVE",
"1517 827 OFFCURVE",
"1688 827 CURVE SMOOTH",
"1854 827 OFFCURVE",
"2005 731 OFFCURVE",
"2012 480 CURVE SMOOTH",
"2012 270 OFFCURVE",
"1917 246 OFFCURVE",
"1850 226 CURVE",
"1356 226 LINE"
);
}
);
width = 2497;
}
);
unicode = 0635;
},
{
glyphname = uni0635.init;
lastChange = "2015-05-23 21:49:41 +0000";
layers = (
{
anchors = (
{
name = bottom;
position = "{914, -120}";
},
{
name = top;
position = "{914, 1221}";
}
);
layerId = "9E57200A-6CEB-4B70-98B9-A6ACB8F2607D";
name = Bold;
paths = (
{
closed = 1;
nodes = (
"537 0 LINE",
"537 51 LINE",
"577 17 OFFCURVE",
"619 0 OFFCURVE",
"662 0 CURVE SMOOTH",
"1128 0 LINE SMOOTH",
"1564 0 OFFCURVE",
"1611 353 OFFCURVE",
"1611 489 CURVE SMOOTH",
"1611 834 OFFCURVE",
"1308 1054 OFFCURVE",
"985 1054 CURVE SMOOTH",
"667 1054 OFFCURVE",
"494 857 OFFCURVE",
"477 834 CURVE",
"438 907 OFFCURVE",
"371 935 OFFCURVE",
"336 935 CURVE SMOOTH",
"223 935 OFFCURVE",
"168 868 OFFCURVE",
"150 824 CURVE SMOOTH",
"148 817 OFFCURVE",
"151 810 OFFCURVE",
"159 806 CURVE",
"159 806 OFFCURVE",
"248 778 OFFCURVE",
"248 654 CURVE SMOOTH",
"248 226 LINE",
"-34 226 LINE SMOOTH",
"-38 226 OFFCURVE",
"-40 224 OFFCURVE",
"-40 221 CURVE SMOOTH",
"-40 8 LINE SMOOTH",
"-40 3 OFFCURVE",
"-38 0 OFFCURVE",
"-34 0 CURVE SMOOTH"
);
},
{
closed = 1;
nodes = (
"545 232 OFFCURVE",
"514 280 OFFCURVE",
"510 377 CURVE",
"510 585 LINE",
"576 726 OFFCURVE",
"763 827 OFFCURVE",
"934 827 CURVE SMOOTH",
"1100 827 OFFCURVE",
"1251 731 OFFCURVE",
"1258 480 CURVE SMOOTH",
"1258 270 OFFCURVE",
"1163 246 OFFCURVE",
"1096 226 CURVE",
"602 226 LINE"
);
}
);
width = 1765;
}
);
unicode = FEBB;
},
{
glyphname = uni0635.medi;
lastChange = "2015-05-23 22:27:26 +0000";
layers = (
{
anchors = (
{
name = bottom;
position = "{914, -120}";
},
{
name = top;
position = "{914, 1221}";
}
);
layerId = "9E57200A-6CEB-4B70-98B9-A6ACB8F2607D";
name = Bold;
paths = (
{
closed = 1;
nodes = (
"538 0 LINE",
"538 51 LINE",
"578 17 OFFCURVE",
"620 0 OFFCURVE",
"663 0 CURVE SMOOTH",
"1129 0 LINE SMOOTH",
"1259 0 OFFCURVE",
"1354 31 OFFCURVE",
"1424 79 CURVE",
"1496 24 OFFCURVE",
"1582 0 OFFCURVE",
"1674 0 CURVE SMOOTH",
"1828 0 LINE SMOOTH",
"1831 0 OFFCURVE",
"1833 2 OFFCURVE",
"1833 6 CURVE SMOOTH",
"1833 220 LINE SMOOTH",
"1833 224 OFFCURVE",
"1831 226 OFFCURVE",
"1828 226 CURVE SMOOTH",
"1553 226 LINE",
"1603 323 OFFCURVE",
"1612 428 OFFCURVE",
"1612 489 CURVE SMOOTH",
"1612 834 OFFCURVE",
"1309 1054 OFFCURVE",
"986 1054 CURVE SMOOTH",
"668 1054 OFFCURVE",
"495 857 OFFCURVE",
"478 834 CURVE",
"439 907 OFFCURVE",
"372 935 OFFCURVE",
"337 935 CURVE SMOOTH",
"224 935 OFFCURVE",
"169 868 OFFCURVE",
"151 824 CURVE SMOOTH",
"149 817 OFFCURVE",
"152 810 OFFCURVE",
"160 806 CURVE",
"160 806 OFFCURVE",
"249 778 OFFCURVE",
"249 654 CURVE SMOOTH",
"249 226 LINE",
"-39 226 LINE SMOOTH",
"-43 226 OFFCURVE",
"-45 224 OFFCURVE",
"-45 221 CURVE SMOOTH",
"-45 8 LINE SMOOTH",
"-45 3 OFFCURVE",
"-43 0 OFFCURVE",
"-39 0 CURVE SMOOTH"
);
},
{
closed = 1;
nodes = (
"546 232 OFFCURVE",
"515 280 OFFCURVE",
"511 377 CURVE",
"511 585 LINE",
"577 726 OFFCURVE",
"764 827 OFFCURVE",
"935 827 CURVE SMOOTH",
"1101 827 OFFCURVE",
"1252 731 OFFCURVE",
"1259 480 CURVE SMOOTH",
"1259 270 OFFCURVE",
"1164 246 OFFCURVE",
"1097 226 CURVE",
"603 226 LINE"
);
}
);
width = 1788;
}
);
unicode = FEBC;
},
{
glyphname = uni0635.fina;
lastChange = "2015-05-23 21:50:41 +0000";
layers = (
{
anchors = (
{
name = bottom;
position = "{1688, -120}";
},
{
name = top;
position = "{1688, 1221}";
}
);
layerId = "9E57200A-6CEB-4B70-98B9-A6ACB8F2607D";
name = Bold;
paths = (
{
closed = 1;
nodes = (
"780 -507 LINE SMOOTH",
"1132 -506 OFFCURVE",
"1337 -341 OFFCURVE",
"1337 78 CURVE",
"1407 23 OFFCURVE",
"1496 0 OFFCURVE",
"1588 0 CURVE SMOOTH",
"1883 0 LINE SMOOTH",
"2013 0 OFFCURVE",
"2108 31 OFFCURVE",
"2178 79 CURVE",
"2250 24 OFFCURVE",
"2336 0 OFFCURVE",
"2427 0 CURVE SMOOTH",
"2635 0 LINE SMOOTH",
"2638 0 OFFCURVE",
"2640 2 OFFCURVE",
"2640 6 CURVE SMOOTH",
"2640 220 LINE SMOOTH",
"2640 224 OFFCURVE",
"2638 226 OFFCURVE",
"2635 226 CURVE SMOOTH",
"2307 226 LINE",
"2357 323 OFFCURVE",
"2366 428 OFFCURVE",
"2366 489 CURVE SMOOTH",
"2366 834 OFFCURVE",
"2063 1054 OFFCURVE",
"1740 1054 CURVE SMOOTH",
"1422 1054 OFFCURVE",
"1249 857 OFFCURVE",
"1232 834 CURVE",
"1193 907 OFFCURVE",
"1126 935 OFFCURVE",
"1091 935 CURVE SMOOTH",
"978 935 OFFCURVE",
"923 868 OFFCURVE",
"905 824 CURVE SMOOTH",
"903 817 OFFCURVE",
"906 810 OFFCURVE",
"914 806 CURVE",
"914 806 OFFCURVE",
"1003 778 OFFCURVE",
"1003 654 CURVE SMOOTH",
"1003 148 LINE SMOOTH",
"1003 123 OFFCURVE",
"1004 94 OFFCURVE",
"1004 64 CURVE SMOOTH",
"1004 -89 OFFCURVE",
"987 -282 OFFCURVE",
"786 -282 CURVE SMOOTH",
"718 -282 LINE SMOOTH",
"587 -282 OFFCURVE",
"451 -219 OFFCURVE",
"451 0 CURVE SMOOTH",
"451 220 OFFCURVE",
"494 300 OFFCURVE",
"610 376 CURVE",
"610 376 OFFCURVE",
"617 381 OFFCURVE",
"617 384 CURVE SMOOTH",
"617 453 OFFCURVE",
"543 521 OFFCURVE",
"411 521 CURVE SMOOTH",
"185 521 OFFCURVE",
"133 255 OFFCURVE",
"133 70 CURVE SMOOTH",
"133 -359 OFFCURVE",
"392 -507 OFFCURVE",
"713 -507 CURVE SMOOTH"
);
},
{
closed = 1;
nodes = (
"1300 232 OFFCURVE",
"1269 280 OFFCURVE",
"1265 377 CURVE",
"1265 585 LINE",
"1331 726 OFFCURVE",
"1518 827 OFFCURVE",
"1689 827 CURVE SMOOTH",
"1855 827 OFFCURVE",
"2006 731 OFFCURVE",
"2013 480 CURVE SMOOTH",
"2013 270 OFFCURVE",
"1918 246 OFFCURVE",
"1851 226 CURVE",
"1357 226 LINE"
);
}
);
width = 2600;
}
);
unicode = FEBA;
},
{
glyphname = uni0637;
lastChange = "2015-05-23 20:49:50 +0000";
layers = (
{
anchors = (
{
name = bottom;
position = "{1090, -120}";
},
{
name = top;
position = "{1090, 1595}";
}
);
layerId = "9E57200A-6CEB-4B70-98B9-A6ACB8F2607D";
name = Bold;
paths = (
{
closed = 1;
nodes = (
"1318 0 LINE SMOOTH",
"1730 0 OFFCURVE",
"1814 276 OFFCURVE",
"1814 428 CURVE SMOOTH",
"1814 907 OFFCURVE",
"1481 1053 OFFCURVE",
"1145 1053 CURVE SMOOTH",
"920 1052 OFFCURVE",
"694 914 OFFCURVE",
"546 661 CURVE",
"546 856 OFFCURVE",
"546 1235 OFFCURVE",
"548 1292 CURVE",
"548 1414 OFFCURVE",
"521 1569 OFFCURVE",
"373 1569 CURVE SMOOTH",
"323 1569 OFFCURVE",
"208 1545 OFFCURVE",
"187 1459 CURVE SMOOTH",
"185 1450 OFFCURVE",
"188 1444 OFFCURVE",
"196 1440 CURVE",
"203 1436 OFFCURVE",
"286 1412 OFFCURVE",
"286 1279 CURVE SMOOTH",
"287 226 LINE",
"129 226 LINE SMOOTH",
"75 227 OFFCURVE",
"41 162 OFFCURVE",
"41 115 CURVE SMOOTH",
"41 89 OFFCURVE",
"50 0 OFFCURVE",
"139 0 CURVE SMOOTH"
);
},
{
closed = 1;
nodes = (
"650 619 OFFCURVE",
"949 827 OFFCURVE",
"1180 827 CURVE SMOOTH",
"1341 827 OFFCURVE",
"1468 725 OFFCURVE",
"1468 514 CURVE SMOOTH",
"1468 371 OFFCURVE",
"1418 226 OFFCURVE",
"1344 226 CURVE SMOOTH",
"552 226 LINE"
);
}
);
width = 1968;
}
);
unicode = 0637;
},
{
glyphname = uni0637.init;
lastChange = "2015-05-23 21:50:58 +0000";
layers = (
{
anchors = (
{
name = bottom;
position = "{1176, -120}";
},
{
name = top;
position = "{1176, 1595}";
}
);
layerId = "9E57200A-6CEB-4B70-98B9-A6ACB8F2607D";
name = Bold;
paths = (
{
closed = 1;
nodes = (
"1403 0 LINE SMOOTH",
"1816 0 OFFCURVE",
"1899 276 OFFCURVE",
"1899 428 CURVE SMOOTH",
"1899 907 OFFCURVE",
"1566 1053 OFFCURVE",
"1230 1053 CURVE SMOOTH",
"1005 1052 OFFCURVE",
"779 914 OFFCURVE",
"631 661 CURVE",
"631 856 OFFCURVE",
"631 1235 OFFCURVE",
"633 1292 CURVE",
"633 1414 OFFCURVE",
"606 1569 OFFCURVE",
"458 1569 CURVE SMOOTH",
"408 1569 OFFCURVE",
"293 1545 OFFCURVE",
"272 1459 CURVE SMOOTH",
"270 1450 OFFCURVE",
"273 1444 OFFCURVE",
"281 1440 CURVE",
"288 1436 OFFCURVE",
"371 1412 OFFCURVE",
"371 1279 CURVE SMOOTH",
"372 226 LINE",
"-34 226 LINE SMOOTH",
"-38 226 OFFCURVE",
"-40 224 OFFCURVE",
"-40 220 CURVE SMOOTH",
"-40 8 LINE SMOOTH",
"-40 3 OFFCURVE",
"-38 0 OFFCURVE",
"-34 0 CURVE SMOOTH"
);
},
{
closed = 1;
nodes = (
"735 619 OFFCURVE",
"1034 827 OFFCURVE",
"1265 827 CURVE SMOOTH",
"1426 827 OFFCURVE",
"1553 725 OFFCURVE",
"1553 514 CURVE SMOOTH",
"1553 371 OFFCURVE",
"1503 226 OFFCURVE",
"1429 226 CURVE SMOOTH",
"637 226 LINE"
);
}
);
width = 2053;
}
);
unicode = FEC3;
},
{
glyphname = uni0637.medi;
lastChange = "2015-05-23 21:51:21 +0000";
layers = (
{
anchors = (
{
name = bottom;
position = "{1117, -120}";
},
{
name = top;
position = "{1117, 1595}";
}
);
layerId = "9E57200A-6CEB-4B70-98B9-A6ACB8F2607D";
name = Bold;
paths = (
{
closed = 1;
nodes = (
"1342 0 LINE SMOOTH",
"1481 0 OFFCURVE",
"1583 31 OFFCURVE",
"1657 79 CURVE",
"1728 24 OFFCURVE",
"1815 0 OFFCURVE",
"1906 0 CURVE SMOOTH",
"2109 0 LINE SMOOTH",
"2112 0 OFFCURVE",
"2114 2 OFFCURVE",
"2114 6 CURVE SMOOTH",
"2114 220 LINE SMOOTH",
"2114 224 OFFCURVE",
"2112 226 OFFCURVE",
"2109 226 CURVE SMOOTH",
"1790 226 LINE",
"1826 297 OFFCURVE",
"1838 371 OFFCURVE",
"1838 428 CURVE SMOOTH",
"1838 907 OFFCURVE",
"1505 1053 OFFCURVE",
"1169 1053 CURVE SMOOTH",
"944 1052 OFFCURVE",
"718 914 OFFCURVE",
"570 661 CURVE",
"570 856 OFFCURVE",
"570 1235 OFFCURVE",
"572 1292 CURVE",
"572 1414 OFFCURVE",
"545 1569 OFFCURVE",
"397 1569 CURVE SMOOTH",
"347 1569 OFFCURVE",
"232 1545 OFFCURVE",
"211 1459 CURVE SMOOTH",
"209 1450 OFFCURVE",
"212 1444 OFFCURVE",
"220 1440 CURVE",
"227 1436 OFFCURVE",
"310 1412 OFFCURVE",
"310 1279 CURVE SMOOTH",
"311 226 LINE",
"-34 226 LINE SMOOTH",
"-38 226 OFFCURVE",
"-40 224 OFFCURVE",
"-40 220 CURVE SMOOTH",
"-40 8 LINE SMOOTH",
"-40 3 OFFCURVE",
"-38 0 OFFCURVE",
"-34 0 CURVE SMOOTH"
);
},
{
closed = 1;
nodes = (
"674 619 OFFCURVE",
"973 827 OFFCURVE",
"1204 827 CURVE SMOOTH",
"1365 827 OFFCURVE",
"1492 725 OFFCURVE",
"1492 514 CURVE SMOOTH",
"1492 371 OFFCURVE",
"1442 226 OFFCURVE",
"1368 226 CURVE SMOOTH",
"576 226 LINE"
);
}
);
width = 2074;
}
);
unicode = FEC4;
},
{
glyphname = uni0637.fina;
lastChange = "2015-05-23 21:51:25 +0000";
layers = (
{
anchors = (
{
name = bottom;
position = "{1090, -120}";
},
{
name = top;
position = "{1090, 1595}";
}
);
layerId = "9E57200A-6CEB-4B70-98B9-A6ACB8F2607D";
name = Bold;
paths = (
{
closed = 1;
nodes = (
"1318 0 LINE SMOOTH",
"1457 0 OFFCURVE",
"1559 31 OFFCURVE",
"1633 79 CURVE",
"1704 24 OFFCURVE",
"1791 0 OFFCURVE",
"1882 0 CURVE SMOOTH",
"2085 0 LINE SMOOTH",
"2088 0 OFFCURVE",
"2090 2 OFFCURVE",
"2090 6 CURVE SMOOTH",
"2090 220 LINE SMOOTH",
"2090 224 OFFCURVE",
"2088 226 OFFCURVE",
"2085 226 CURVE SMOOTH",
"1766 226 LINE",
"1802 297 OFFCURVE",
"1814 371 OFFCURVE",
"1814 428 CURVE SMOOTH",
"1814 907 OFFCURVE",
"1481 1053 OFFCURVE",
"1145 1053 CURVE SMOOTH",
"920 1052 OFFCURVE",
"694 914 OFFCURVE",
"546 661 CURVE",
"546 856 OFFCURVE",
"546 1235 OFFCURVE",
"548 1292 CURVE",
"548 1414 OFFCURVE",
"521 1569 OFFCURVE",
"373 1569 CURVE SMOOTH",
"323 1569 OFFCURVE",
"207 1545 OFFCURVE",
"187 1459 CURVE SMOOTH",
"185 1450 OFFCURVE",
"188 1444 OFFCURVE",
"196 1440 CURVE",
"203 1436 OFFCURVE",
"286 1412 OFFCURVE",
"286 1279 CURVE SMOOTH",
"287 226 LINE",
"129 226 LINE SMOOTH",
"75 227 OFFCURVE",
"41 162 OFFCURVE",
"41 115 CURVE SMOOTH",
"41 89 OFFCURVE",
"50 0 OFFCURVE",
"139 0 CURVE SMOOTH"
);
},
{
closed = 1;
nodes = (
"650 619 OFFCURVE",
"949 827 OFFCURVE",
"1180 827 CURVE SMOOTH",
"1341 827 OFFCURVE",
"1468 725 OFFCURVE",
"1468 514 CURVE SMOOTH",
"1468 371 OFFCURVE",
"1418 226 OFFCURVE",
"1344 226 CURVE SMOOTH",
"552 226 LINE"
);
}
);
width = 2050;
}
);
unicode = FEC2;
},
{
glyphname = uni0639;
lastChange = "2015-05-23 21:51:30 +0000";
layers = (
{
anchors = (
{
name = bottom;
position = "{623, -683}";
},
{
name = top;
position = "{623, 1254}";
}
);
layerId = "9E57200A-6CEB-4B70-98B9-A6ACB8F2607D";
name = Bold;
paths = (
{
closed = 1;
nodes = (
"283 -587 OFFCURVE",
"328 -599 OFFCURVE",
"371 -599 CURVE SMOOTH",
"460 -599 OFFCURVE",
"543 -548 OFFCURVE",
"543 -504 CURVE",
"355 -353 OFFCURVE",
"363 0 OFFCURVE",
"363 0 CURVE SMOOTH",
"1008 0 LINE SMOOTH",
"1040 0 OFFCURVE",
"1109 17 OFFCURVE",
"1109 119 CURVE SMOOTH",
"1109 216 OFFCURVE",
"1019 227 OFFCURVE",
"950 227 CURVE SMOOTH",
"928 227 OFFCURVE",
"908 226 OFFCURVE",
"894 226 CURVE SMOOTH",
"820 226 OFFCURVE",
"662 244 OFFCURVE",
"625 324 CURVE SMOOTH",
"577 429 OFFCURVE",
"559 517 OFFCURVE",
"559 589 CURVE SMOOTH",
"559 755 OFFCURVE",
"653 839 OFFCURVE",
"684 851 CURVE",
"781 822 OFFCURVE",
"792 759 OFFCURVE",
"792 695 CURVE SMOOTH",
"792 678 OFFCURVE",
"791 660 OFFCURVE",
"791 643 CURVE",
"848 615 OFFCURVE",
"883 609 OFFCURVE",
"936 609 CURVE SMOOTH",
"1044 609 OFFCURVE",
"1109 696 OFFCURVE",
"1109 792 CURVE SMOOTH",
"1109 829 OFFCURVE",
"1100 866 OFFCURVE",
"1080 901 CURVE SMOOTH",
"1028 991 OFFCURVE",
"836 1054 OFFCURVE",
"713 1054 CURVE SMOOTH",
"464 1054 OFFCURVE",
"195 884 OFFCURVE",
"195 565 CURVE SMOOTH",
"195 379 OFFCURVE",
"229 307 OFFCURVE",
"306 210 CURVE",
"165 160 OFFCURVE",
"108 -1 OFFCURVE",
"108 -165 CURVE SMOOTH",
"108 -326 OFFCURVE",
"162 -490 OFFCURVE",
"246 -557 CURVE SMOOTH"
);
}
);
width = 1217;
}
);
unicode = 0639;
},
{
glyphname = uni0639.init;
lastChange = "2015-05-23 21:51:35 +0000";
layers = (
{
anchors = (
{
name = bottom;
position = "{592, -120}";
},
{
name = top;
position = "{592, 1228}";
}
);
layerId = "9E57200A-6CEB-4B70-98B9-A6ACB8F2607D";
name = Bold;
paths = (
{
closed = 1;
nodes = (
"98 0 LINE SMOOTH",
"184 0 OFFCURVE",
"268 21 OFFCURVE",
"338 71 CURVE",
"398 27 OFFCURVE",
"473 0 OFFCURVE",
"567 0 CURVE SMOOTH",
"932 0 LINE SMOOTH",
"1018 0 OFFCURVE",
"1031 84 OFFCURVE",
"1031 109 CURVE SMOOTH",
"1031 170 OFFCURVE",
"1019 226 OFFCURVE",
"897 226 CURVE SMOOTH",
"816 226 LINE SMOOTH",
"499 226 OFFCURVE",
"485 453 OFFCURVE",
"485 585 CURVE SMOOTH",
"485 728 OFFCURVE",
"534 811 OFFCURVE",
"606 854 CURVE",
"704 826 OFFCURVE",
"715 762 OFFCURVE",
"715 698 CURVE SMOOTH",
"715 680 OFFCURVE",
"714 663 OFFCURVE",
"714 646 CURVE",
"738 634 OFFCURVE",
"800 611 OFFCURVE",
"863 611 CURVE SMOOTH",
"946 611 OFFCURVE",
"1030 650 OFFCURVE",
"1030 806 CURVE SMOOTH",
"1030 994 OFFCURVE",
"730 1054 OFFCURVE",
"634 1054 CURVE SMOOTH",
"520 1054 OFFCURVE",
"116 987 OFFCURVE",
"116 565 CURVE SMOOTH",
"116 505 OFFCURVE",
"135 356 OFFCURVE",
"207 226 CURVE",
"-35 226 LINE SMOOTH",
"-38 226 OFFCURVE",
"-40 224 OFFCURVE",
"-40 220 CURVE SMOOTH",
"-40 6 LINE SMOOTH",
"-40 2 OFFCURVE",
"-38 0 OFFCURVE",
"-35 0 CURVE SMOOTH"
);
}
);
width = 1141;
}
);
unicode = FECB;
},
{
glyphname = uni0639.medi;
lastChange = "2015-05-23 23:30:12 +0000";
layers = (
{
anchors = (
{
name = bottom;
position = "{592, -120}";
},
{
name = top;
position = "{592, 1228}";
}
);
layerId = "9E57200A-6CEB-4B70-98B9-A6ACB8F2607D";
name = Bold;
paths = (
{
closed = 1;
nodes = (
"351 0 LINE SMOOTH",
"443 0 OFFCURVE",
"526 22 OFFCURVE",
"602 80 CURVE",
"678 22 OFFCURVE",
"761 0 OFFCURVE",
"853 0 CURVE SMOOTH",
"1239 0 LINE SMOOTH",
"1242 0 OFFCURVE",
"1244 2 OFFCURVE",
"1244 6 CURVE SMOOTH",
"1244 220 LINE SMOOTH",
"1244 224 OFFCURVE",
"1241 226 OFFCURVE",
"1238 226 CURVE SMOOTH",
"1052 226 LINE SMOOTH",
"906 226 OFFCURVE",
"896 253 OFFCURVE",
"853 261 CURVE",
"831 252 OFFCURVE",
"791 207 OFFCURVE",
"774 195 CURVE",
"774 195 OFFCURVE",
"1035 550 OFFCURVE",
"1119 671 CURVE SMOOTH",
"1141 703 OFFCURVE",
"1152 738 OFFCURVE",
"1152 773 CURVE SMOOTH",
"1152 912 OFFCURVE",
"980 1054 OFFCURVE",
"701 1054 CURVE SMOOTH",
"503 1054 LINE SMOOTH",
"224 1054 OFFCURVE",
"52 912 OFFCURVE",
"52 773 CURVE SMOOTH",
"52 738 OFFCURVE",
"63 703 OFFCURVE",
"85 671 CURVE SMOOTH",
"169 550 OFFCURVE",
"430 195 OFFCURVE",
"430 195 CURVE",
"413 207 OFFCURVE",
"373 252 OFFCURVE",
"351 261 CURVE",
"308 253 OFFCURVE",
"298 226 OFFCURVE",
"152 226 CURVE SMOOTH",
"-34 226 LINE SMOOTH",
"-37 226 OFFCURVE",
"-40 224 OFFCURVE",
"-40 220 CURVE SMOOTH",
"-40 6 LINE SMOOTH",
"-40 2 OFFCURVE",
"-38 0 OFFCURVE",
"-35 0 CURVE SMOOTH"
);
},
{
closed = 1;
nodes = (
"602 304 OFFCURVE",
"412 571 OFFCURVE",
"348 660 CURVE SMOOTH",
"332 682 OFFCURVE",
"325 702 OFFCURVE",
"325 720 CURVE SMOOTH",
"325 790 OFFCURVE",
"425 832 OFFCURVE",
"509 832 CURVE SMOOTH",
"695 832 LINE SMOOTH",
"780 832 OFFCURVE",
"879 790 OFFCURVE",
"879 721 CURVE SMOOTH",
"879 702 OFFCURVE",
"872 682 OFFCURVE",
"856 660 CURVE SMOOTH",
"792 571 OFFCURVE",
"602 304 OFFCURVE",
"602 304 CURVE SMOOTH"
);
}
);
width = 1204;
}
);
unicode = FECC;
},
{
glyphname = uni0639.fina;
lastChange = "2015-05-23 21:51:49 +0000";
layers = (
{
anchors = (
{
name = bottom;
position = "{709, -683}";
},
{
name = top;
position = "{709, 1254}";
}
);
layerId = "9E57200A-6CEB-4B70-98B9-A6ACB8F2607D";
name = Bold;
paths = (
{
closed = 1;
nodes = (
"308 -587 OFFCURVE",
"353 -599 OFFCURVE",
"396 -599 CURVE SMOOTH",
"485 -599 OFFCURVE",
"568 -548 OFFCURVE",
"568 -504 CURVE",
"380 -353 OFFCURVE",
"388 0 OFFCURVE",
"388 0 CURVE",
"458 0 LINE SMOOTH",
"550 0 OFFCURVE",
"633 22 OFFCURVE",
"709 80 CURVE",
"785 22 OFFCURVE",
"868 0 OFFCURVE",
"960 0 CURVE SMOOTH",
"1342 0 LINE SMOOTH",
"1345 0 OFFCURVE",
"1347 2 OFFCURVE",
"1347 6 CURVE SMOOTH",
"1347 220 LINE SMOOTH",
"1347 224 OFFCURVE",
"1344 226 OFFCURVE",
"1341 226 CURVE SMOOTH",
"1159 226 LINE SMOOTH",
"1013 226 OFFCURVE",
"1003 253 OFFCURVE",
"960 261 CURVE",
"938 252 OFFCURVE",
"898 207 OFFCURVE",
"881 195 CURVE",
"881 195 OFFCURVE",
"1142 550 OFFCURVE",
"1226 671 CURVE SMOOTH",
"1248 703 OFFCURVE",
"1259 738 OFFCURVE",
"1259 773 CURVE SMOOTH",
"1259 912 OFFCURVE",
"1087 1054 OFFCURVE",
"808 1054 CURVE SMOOTH",
"610 1054 LINE SMOOTH",
"331 1054 OFFCURVE",
"159 912 OFFCURVE",
"159 773 CURVE SMOOTH",
"159 738 OFFCURVE",
"170 703 OFFCURVE",
"192 671 CURVE SMOOTH",
"276 550 OFFCURVE",
"537 195 OFFCURVE",
"537 195 CURVE",
"520 207 OFFCURVE",
"480 252 OFFCURVE",
"458 261 CURVE",
"217 215 OFFCURVE",
"133 54 OFFCURVE",
"133 -165 CURVE SMOOTH",
"133 -326 OFFCURVE",
"187 -490 OFFCURVE",
"271 -557 CURVE SMOOTH"
);
},
{
closed = 1;
nodes = (
"709 304 OFFCURVE",
"519 571 OFFCURVE",
"455 660 CURVE SMOOTH",
"439 682 OFFCURVE",
"432 702 OFFCURVE",
"432 720 CURVE SMOOTH",
"432 790 OFFCURVE",
"532 832 OFFCURVE",
"616 832 CURVE SMOOTH",
"802 832 LINE SMOOTH",
"887 832 OFFCURVE",
"986 790 OFFCURVE",
"986 721 CURVE SMOOTH",
"986 702 OFFCURVE",
"979 682 OFFCURVE",
"963 660 CURVE SMOOTH",
"899 571 OFFCURVE",
"709 304 OFFCURVE",
"709 304 CURVE SMOOTH"
);
}
);
width = 1307;
}
);
unicode = FECA;
},
{
glyphname = uni0643.init;
lastChange = "2015-05-23 21:51:52 +0000";
layers = (
{
anchors = (
{
name = bottom;
position = "{741, -120}";
},
{
name = top;
position = "{741, 1837}";
}
);
layerId = "9E57200A-6CEB-4B70-98B9-A6ACB8F2607D";
name = Bold;
paths = (
{
closed = 1;
nodes = (
"822 0 LINE SMOOTH",
"1025 0 OFFCURVE",
"1275 164 OFFCURVE",
"1275 533 CURVE SMOOTH",
"1275 842 OFFCURVE",
"980 1057 OFFCURVE",
"728 1057 CURVE SMOOTH",
"348 1057 LINE",
"348 1284 OFFCURVE",
"645 1416 OFFCURVE",
"929 1416 CURVE SMOOTH",
"1063 1416 OFFCURVE",
"1195 1387 OFFCURVE",
"1291 1324 CURVE",
"1311 1335 OFFCURVE",
"1348 1400 OFFCURVE",
"1348 1474 CURVE SMOOTH",
"1348 1587 OFFCURVE",
"1262 1721 OFFCURVE",
"899 1721 CURVE SMOOTH",
"546 1721 OFFCURVE",
"97 1552 OFFCURVE",
"97 1160 CURVE SMOOTH",
"97 1057 OFFCURVE",
"154 831 OFFCURVE",
"351 831 CURVE SMOOTH",
"536 831 LINE SMOOTH",
"909 831 OFFCURVE",
"922 617 OFFCURVE",
"922 520 CURVE SMOOTH",
"922 319 OFFCURVE",
"834 226 OFFCURVE",
"748 226 CURVE SMOOTH",
"-33 226 LINE SMOOTH",
"-36 226 OFFCURVE",
"-40 223 OFFCURVE",
"-40 220 CURVE SMOOTH",
"-40 7 LINE SMOOTH",
"-40 4 OFFCURVE",
"-36 0 OFFCURVE",
"-33 0 CURVE SMOOTH"
);
}
);
width = 1501;
}
);
unicode = FEDB;
},
{
glyphname = uni0643.medi;
lastChange = "2015-05-23 23:30:43 +0000";
layers = (
{
anchors = (
{
name = bottom;
position = "{741, -120}";
},
{
name = top;
position = "{741, 1837}";
}
);
layerId = "9E57200A-6CEB-4B70-98B9-A6ACB8F2607D";
name = Bold;
paths = (
{
closed = 1;
nodes = (
"822 0 LINE SMOOTH",
"902 0 OFFCURVE",
"990 26 OFFCURVE",
"1067 80 CURVE",
"1139 24 OFFCURVE",
"1225 0 OFFCURVE",
"1317 0 CURVE SMOOTH",
"1619 0 LINE SMOOTH",
"1622 0 OFFCURVE",
"1624 2 OFFCURVE",
"1624 6 CURVE SMOOTH",
"1624 220 LINE SMOOTH",
"1624 224 OFFCURVE",
"1622 226 OFFCURVE",
"1619 226 CURVE SMOOTH",
"1200 226 LINE",
"1246 306 OFFCURVE",
"1275 407 OFFCURVE",
"1275 533 CURVE SMOOTH",
"1275 842 OFFCURVE",
"980 1057 OFFCURVE",
"728 1057 CURVE SMOOTH",
"348 1057 LINE",
"348 1284 OFFCURVE",
"645 1416 OFFCURVE",
"929 1416 CURVE SMOOTH",
"1063 1416 OFFCURVE",
"1195 1387 OFFCURVE",
"1291 1324 CURVE",
"1311 1335 OFFCURVE",
"1348 1400 OFFCURVE",
"1348 1474 CURVE SMOOTH",
"1348 1587 OFFCURVE",
"1262 1721 OFFCURVE",
"899 1721 CURVE SMOOTH",
"546 1721 OFFCURVE",
"97 1552 OFFCURVE",
"97 1160 CURVE SMOOTH",
"97 1057 OFFCURVE",
"154 831 OFFCURVE",
"351 831 CURVE SMOOTH",
"536 831 LINE SMOOTH",
"909 831 OFFCURVE",
"922 617 OFFCURVE",
"922 520 CURVE SMOOTH",
"922 319 OFFCURVE",
"834 226 OFFCURVE",
"748 226 CURVE SMOOTH",
"-33 226 LINE SMOOTH",
"-36 226 OFFCURVE",
"-40 223 OFFCURVE",
"-40 220 CURVE SMOOTH",
"-40 7 LINE SMOOTH",
"-40 4 OFFCURVE",
"-36 0 OFFCURVE",
"-33 0 CURVE SMOOTH"
);
}
);
width = 1584;
}
);
unicode = FEDC;
},
{
glyphname = uni0643;
lastChange = "2015-05-23 21:52:27 +0000";
layers = (
{
anchors = (
{
name = bottom;
position = "{868, -120}";
},
{
name = top;
position = "{868, 1257}";
}
);
layerId = "9E57200A-6CEB-4B70-98B9-A6ACB8F2607D";
name = Bold;
paths = (
{
closed = 1;
nodes = (
"1417 0 LINE SMOOTH",
"1683 0 OFFCURVE",
"1798 239 OFFCURVE",
"1798 343 CURVE SMOOTH",
"1798 1257 LINE SMOOTH",
"1798 1478 OFFCURVE",
"1636 1556 OFFCURVE",
"1569 1556 CURVE SMOOTH",
"1413 1556 OFFCURVE",
"1342 1470 OFFCURVE",
"1317 1406 CURVE SMOOTH",
"1314 1396 OFFCURVE",
"1320 1388 OFFCURVE",
"1330 1382 CURVE",
"1330 1382 OFFCURVE",
"1452 1349 OFFCURVE",
"1452 1166 CURVE SMOOTH",
"1452 382 LINE SMOOTH",
"1452 280 OFFCURVE",
"1414 226 OFFCURVE",
"1352 226 CURVE SMOOTH",
"584 226 LINE SMOOTH",
"524 226 OFFCURVE",
"485 278 OFFCURVE",
"485 382 CURVE SMOOTH",
"485 638 LINE",
"484 720 OFFCURVE",
"411 791 OFFCURVE",
"307 791 CURVE SMOOTH",
"219 791 OFFCURVE",
"133 734 OFFCURVE",
"133 642 CURVE",
"133 641 OFFCURVE",
"133 629 OFFCURVE",
"133 610 CURVE SMOOTH",
"133 533 OFFCURVE",
"134 345 OFFCURVE",
"134 343 CURVE SMOOTH",
"134 166 OFFCURVE",
"339 0 OFFCURVE",
"515 0 CURVE SMOOTH"
);
},
{
closed = 1;
nodes = (
"815 688 OFFCURVE",
"839 695 OFFCURVE",
"864 698 CURVE SMOOTH",
"920 705 OFFCURVE",
"1116 727 OFFCURVE",
"1143 731 CURVE SMOOTH",
"1155 733 OFFCURVE",
"1166 735 OFFCURVE",
"1172 748 CURVE SMOOTH",
"1174 751 OFFCURVE",
"1183 768 OFFCURVE",
"1183 788 CURVE SMOOTH",
"1183 792 OFFCURVE",
"1182 797 OFFCURVE",
"1181 802 CURVE SMOOTH",
"1174 836 OFFCURVE",
"1152 845 OFFCURVE",
"1132 845 CURVE SMOOTH",
"1126 845 OFFCURVE",
"1121 844 OFFCURVE",
"1116 843 CURVE SMOOTH",
"1096 838 OFFCURVE",
"1075 836 OFFCURVE",
"1055 836 CURVE SMOOTH",
"1018 836 OFFCURVE",
"985 845 OFFCURVE",
"970 863 CURVE SMOOTH",
"942 895 OFFCURVE",
"933 927 OFFCURVE",
"933 955 CURVE SMOOTH",
"933 1009 OFFCURVE",
"966 1050 OFFCURVE",
"973 1057 CURVE",
"1022 1049 OFFCURVE",
"1023 1011 OFFCURVE",
"1025 980 CURVE",
"1033 974 OFFCURVE",
"1048 970 OFFCURVE",
"1064 970 CURVE SMOOTH",
"1101 970 OFFCURVE",
"1147 990 OFFCURVE",
"1147 1045 CURVE SMOOTH",
"1147 1111 OFFCURVE",
"1085 1144 OFFCURVE",
"1006 1144 CURVE SMOOTH",
"851 1144 OFFCURVE",
"785 1022 OFFCURVE",
"785 949 CURVE SMOOTH",
"785 896 OFFCURVE",
"804 832 OFFCURVE",
"829 806 CURVE",
"789 806 OFFCURVE",
"753 782 OFFCURVE",
"753 730 CURVE SMOOTH",
"753 699 OFFCURVE",
"773 670 OFFCURVE",
"802 661 CURVE"
);
}
);
width = 1898;
}
);
unicode = 0643;
},
{
glyphname = uni0643.fina;
lastChange = "2015-05-23 21:52:57 +0000";
layers = (
{
anchors = (
{
name = bottom;
position = "{868, -120}";
},
{
name = top;
position = "{868, 1257}";
}
);
layerId = "9E57200A-6CEB-4B70-98B9-A6ACB8F2607D";
name = Bold;
paths = (
{
closed = 1;
nodes = (
"1416 0 LINE SMOOTH",
"1514 0 OFFCURVE",
"1592 33 OFFCURVE",
"1651 80 CURVE",
"1723 24 OFFCURVE",
"1810 0 OFFCURVE",
"1902 0 CURVE SMOOTH",
"2069 0 LINE SMOOTH",
"2072 0 OFFCURVE",
"2074 2 OFFCURVE",
"2074 6 CURVE SMOOTH",
"2074 220 LINE SMOOTH",
"2074 224 OFFCURVE",
"2072 226 OFFCURVE",
"2069 226 CURVE SMOOTH",
"1766 226 LINE",
"1787 270 OFFCURVE",
"1797 313 OFFCURVE",
"1797 343 CURVE SMOOTH",
"1797 1257 LINE SMOOTH",
"1797 1479 OFFCURVE",
"1635 1556 OFFCURVE",
"1568 1556 CURVE SMOOTH",
"1411 1556 OFFCURVE",
"1340 1471 OFFCURVE",
"1316 1406 CURVE SMOOTH",
"1312 1396 OFFCURVE",
"1319 1388 OFFCURVE",
"1329 1382 CURVE",
"1329 1382 OFFCURVE",
"1451 1349 OFFCURVE",
"1451 1166 CURVE SMOOTH",
"1451 382 LINE SMOOTH",
"1451 280 OFFCURVE",
"1412 226 OFFCURVE",
"1351 226 CURVE SMOOTH",
"583 226 LINE SMOOTH",
"522 226 OFFCURVE",
"484 279 OFFCURVE",
"484 382 CURVE SMOOTH",
"484 638 LINE",
"483 720 OFFCURVE",
"409 791 OFFCURVE",
"306 791 CURVE SMOOTH",
"217 791 OFFCURVE",
"132 734 OFFCURVE",
"132 642 CURVE",
"132 641 OFFCURVE",
"132 629 OFFCURVE",
"132 610 CURVE SMOOTH",
"132 533 OFFCURVE",
"133 345 OFFCURVE",
"133 343 CURVE SMOOTH",
"133 167 OFFCURVE",
"337 0 OFFCURVE",
"514 0 CURVE SMOOTH"
);
},
{
closed = 1;
nodes = (
"814 688 OFFCURVE",
"837 695 OFFCURVE",
"863 698 CURVE SMOOTH",
"919 705 OFFCURVE",
"1115 728 OFFCURVE",
"1141 732 CURVE SMOOTH",
"1153 734 OFFCURVE",
"1165 736 OFFCURVE",
"1171 748 CURVE SMOOTH",
"1173 751 OFFCURVE",
"1181 769 OFFCURVE",
"1181 789 CURVE SMOOTH",
"1181 793 OFFCURVE",
"1181 798 OFFCURVE",
"1180 802 CURVE SMOOTH",
"1173 836 OFFCURVE",
"1151 845 OFFCURVE",
"1131 845 CURVE SMOOTH",
"1125 845 OFFCURVE",
"1120 844 OFFCURVE",
"1115 843 CURVE SMOOTH",
"1095 839 OFFCURVE",
"1074 836 OFFCURVE",
"1055 836 CURVE SMOOTH",
"1017 836 OFFCURVE",
"983 845 OFFCURVE",
"968 863 CURVE SMOOTH",
"940 895 OFFCURVE",
"931 927 OFFCURVE",
"931 955 CURVE SMOOTH",
"931 1009 OFFCURVE",
"964 1050 OFFCURVE",
"971 1057 CURVE",
"1020 1049 OFFCURVE",
"1021 1012 OFFCURVE",
"1023 981 CURVE",
"1031 975 OFFCURVE",
"1046 971 OFFCURVE",
"1062 971 CURVE SMOOTH",
"1099 971 OFFCURVE",
"1145 991 OFFCURVE",
"1145 1045 CURVE SMOOTH",
"1145 1111 OFFCURVE",
"1083 1144 OFFCURVE",
"1004 1144 CURVE SMOOTH",
"849 1144 OFFCURVE",
"783 1023 OFFCURVE",
"783 949 CURVE SMOOTH",
"783 896 OFFCURVE",
"802 833 OFFCURVE",
"827 806 CURVE",
"787 806 OFFCURVE",
"751 783 OFFCURVE",
"751 731 CURVE SMOOTH",
"751 699 OFFCURVE",
"771 670 OFFCURVE",
"800 661 CURVE"
);
}
);
width = 2034;
}
);
unicode = FEDA;
},
{
glyphname = uni0644;
lastChange = "2015-05-23 21:52:32 +0000";
layers = (
{
anchors = (
{
name = bottom;
position = "{776, -659}";
},
{
name = top;
position = "{523, 1583}";
}
);
layerId = "9E57200A-6CEB-4B70-98B9-A6ACB8F2607D";
name = Bold;
paths = (
{
closed = 1;
nodes = (
"1328 -507 OFFCURVE",
"1355 -37 OFFCURVE",
"1355 496 CURVE SMOOTH",
"1356 1258 LINE SMOOTH",
"1356 1477 OFFCURVE",
"1195 1556 OFFCURVE",
"1128 1556 CURVE SMOOTH",
"1061 1556 OFFCURVE",
"934 1537 OFFCURVE",
"881 1417 CURVE SMOOTH",
"877 1407 LINE",
"875 1396 OFFCURVE",
"879 1388 OFFCURVE",
"889 1381 CURVE",
"889 1381 OFFCURVE",
"1011 1346 OFFCURVE",
"1011 1165 CURVE SMOOTH",
"1011 146 LINE SMOOTH",
"1011 122 OFFCURVE",
"1012 94 OFFCURVE",
"1012 65 CURVE SMOOTH",
"1012 -87 OFFCURVE",
"995 -282 OFFCURVE",
"793 -282 CURVE SMOOTH",
"717 -282 LINE SMOOTH",
"587 -282 OFFCURVE",
"451 -219 OFFCURVE",
"451 -2 CURVE SMOOTH",
"451 218 OFFCURVE",
"494 298 OFFCURVE",
"610 374 CURVE",
"610 374 OFFCURVE",
"617 379 OFFCURVE",
"617 383 CURVE SMOOTH",
"617 438 OFFCURVE",
"559 521 OFFCURVE",
"414 521 CURVE SMOOTH",
"189 521 OFFCURVE",
"134 255 OFFCURVE",
"134 70 CURVE SMOOTH",
"134 -359 OFFCURVE",
"390 -506 OFFCURVE",
"714 -506 CURVE SMOOTH",
"779 -507 LINE SMOOTH"
);
}
);
width = 1456;
}
);
unicode = 0644;
},
{
glyphname = uni0644.init;
lastChange = "2015-05-23 21:53:14 +0000";
layers = (
{
anchors = (
{
name = bottom;
position = "{413, -120}";
},
{
name = top;
position = "{350, 1675}";
}
);
layerId = "9E57200A-6CEB-4B70-98B9-A6ACB8F2607D";
name = Bold;
paths = (
{
closed = 1;
nodes = (
"190 0 LINE SMOOTH",
"444 0 OFFCURVE",
"572 242 OFFCURVE",
"572 342 CURVE SMOOTH",
"572 1257 LINE",
"563 1477 OFFCURVE",
"411 1556 OFFCURVE",
"343 1556 CURVE SMOOTH",
"211 1556 OFFCURVE",
"114 1481 OFFCURVE",
"92 1406 CURVE SMOOTH",
"89 1396 OFFCURVE",
"94 1387 OFFCURVE",
"105 1381 CURVE",
"105 1381 OFFCURVE",
"226 1347 OFFCURVE",
"226 1165 CURVE SMOOTH",
"226 381 LINE SMOOTH",
"226 281 OFFCURVE",
"188 226 OFFCURVE",
"127 226 CURVE SMOOTH",
"-34 226 LINE SMOOTH",
"-37 226 OFFCURVE",
"-40 223 OFFCURVE",
"-40 220 CURVE SMOOTH",
"-40 7 LINE SMOOTH",
"-40 4 OFFCURVE",
"-37 0 OFFCURVE",
"-34 0 CURVE SMOOTH"
);
}
);
width = 672;
}
);
unicode = FEDF;
},
{
glyphname = uni0644.medi;
lastChange = "2015-05-23 21:53:20 +0000";
layers = (
{
anchors = (
{
name = bottom;
position = "{413, -120}";
},
{
name = top;
position = "{350, 1675}";
}
);
layerId = "9E57200A-6CEB-4B70-98B9-A6ACB8F2607D";
name = Bold;
paths = (
{
closed = 1;
nodes = (
"190 0 LINE SMOOTH",
"284 0 OFFCURVE",
"361 33 OFFCURVE",
"420 80 CURVE",
"492 24 OFFCURVE",
"579 0 OFFCURVE",
"671 0 CURVE SMOOTH",
"844 0 LINE SMOOTH",
"847 0 OFFCURVE",
"849 2 OFFCURVE",
"849 6 CURVE SMOOTH",
"849 220 LINE SMOOTH",
"849 224 OFFCURVE",
"847 226 OFFCURVE",
"844 226 CURVE SMOOTH",
"539 226 LINE",
"561 270 OFFCURVE",
"573 312 OFFCURVE",
"573 342 CURVE SMOOTH",
"573 1257 LINE",
"564 1477 OFFCURVE",
"411 1556 OFFCURVE",
"343 1556 CURVE SMOOTH",
"211 1556 OFFCURVE",
"114 1481 OFFCURVE",
"92 1406 CURVE SMOOTH",
"89 1396 OFFCURVE",
"94 1387 OFFCURVE",
"105 1381 CURVE",
"105 1381 OFFCURVE",
"226 1347 OFFCURVE",
"226 1165 CURVE SMOOTH",
"226 381 LINE SMOOTH",
"226 281 OFFCURVE",
"188 226 OFFCURVE",
"127 226 CURVE SMOOTH",
"-34 226 LINE SMOOTH",
"-37 226 OFFCURVE",
"-40 223 OFFCURVE",
"-40 220 CURVE SMOOTH",
"-40 7 LINE SMOOTH",
"-40 4 OFFCURVE",
"-37 0 OFFCURVE",
"-34 0 CURVE SMOOTH"
);
}
);
width = 809;
}
);
unicode = FEE0;
},
{
glyphname = uni0644.fina;
lastChange = "2015-05-23 21:53:21 +0000";
layers = (
{
anchors = (
{
name = bottom;
position = "{776, -659}";
},
{
name = top;
position = "{523, 1583}";
}
);
layerId = "9E57200A-6CEB-4B70-98B9-A6ACB8F2607D";
name = Bold;
paths = (
{
closed = 1;
nodes = (
"1174 -507 OFFCURVE",
"1298 -260 OFFCURVE",
"1336 79 CURVE",
"1408 24 OFFCURVE",
"1494 0 OFFCURVE",
"1586 0 CURVE SMOOTH",
"1630 0 LINE SMOOTH",
"1633 0 OFFCURVE",
"1635 2 OFFCURVE",
"1635 6 CURVE SMOOTH",
"1635 220 LINE SMOOTH",
"1635 224 OFFCURVE",
"1633 226 OFFCURVE",
"1630 226 CURVE SMOOTH",
"1347 226 LINE",
"1351 313 OFFCURVE",
"1352 403 OFFCURVE",
"1352 496 CURVE SMOOTH",
"1353 1258 LINE SMOOTH",
"1353 1477 OFFCURVE",
"1192 1556 OFFCURVE",
"1125 1556 CURVE SMOOTH",
"1058 1556 OFFCURVE",
"931 1537 OFFCURVE",
"878 1417 CURVE",
"874 1407 LINE",
"872 1396 OFFCURVE",
"876 1388 OFFCURVE",
"886 1381 CURVE",
"886 1381 OFFCURVE",
"1008 1346 OFFCURVE",
"1008 1165 CURVE SMOOTH",
"1008 146 LINE SMOOTH",
"1008 122 OFFCURVE",
"1009 94 OFFCURVE",
"1009 65 CURVE SMOOTH",
"1009 -87 OFFCURVE",
"992 -282 OFFCURVE",
"790 -282 CURVE SMOOTH",
"714 -282 LINE SMOOTH",
"584 -282 OFFCURVE",
"448 -219 OFFCURVE",
"448 -2 CURVE SMOOTH",
"448 218 OFFCURVE",
"491 298 OFFCURVE",
"607 374 CURVE",
"607 374 OFFCURVE",
"614 379 OFFCURVE",
"614 383 CURVE SMOOTH",
"614 438 OFFCURVE",
"556 521 OFFCURVE",
"411 521 CURVE SMOOTH",
"186 521 OFFCURVE",
"131 255 OFFCURVE",
"131 70 CURVE SMOOTH",
"131 -359 OFFCURVE",
"387 -506 OFFCURVE",
"711 -506 CURVE SMOOTH",
"776 -507 LINE SMOOTH"
);
}
);
width = 1595;
}
);
unicode = FEDE;
},
{
glyphname = uni0645;
lastChange = "2015-05-23 20:49:51 +0000";
layers = (
{
anchors = (
{
name = bottom;
position = "{1013, -648}";
},
{
name = top;
position = "{1013, 1228}";
}
);
layerId = "9E57200A-6CEB-4B70-98B9-A6ACB8F2607D";
name = Bold;
paths = (
{
closed = 1;
nodes = (
"853 -590 OFFCURVE",
"915 -285 OFFCURVE",
"915 -169 CURVE SMOOTH",
"915 51 LINE",
"970 19 OFFCURVE",
"1059 0 OFFCURVE",
"1113 0 CURVE SMOOTH",
"1414 0 OFFCURVE",
"1544 200 OFFCURVE",
"1544 506 CURVE SMOOTH",
"1544 977 OFFCURVE",
"1253 1053 OFFCURVE",
"1031 1053 CURVE SMOOTH",
"713 1053 OFFCURVE",
"571 1012 OFFCURVE",
"571 506 CURVE SMOOTH",
"571 -192 LINE SMOOTH",
"571 -272 OFFCURVE",
"509 -339 OFFCURVE",
"387 -339 CURVE SMOOTH",
"286 -339 OFFCURVE",
"198 -301 OFFCURVE",
"168 -282 CURVE SMOOTH",
"162 -278 OFFCURVE",
"157 -277 OFFCURVE",
"153 -277 CURVE SMOOTH",
"148 -277 OFFCURVE",
"144 -280 OFFCURVE",
"140 -285 CURVE",
"135 -290 OFFCURVE",
"133 -298 OFFCURVE",
"133 -308 CURVE SMOOTH",
"133 -314 OFFCURVE",
"134 -320 OFFCURVE",
"135 -327 CURVE SMOOTH",
"138 -348 OFFCURVE",
"216 -590 OFFCURVE",
"518 -590 CURVE SMOOTH"
);
},
{
closed = 1;
nodes = (
"923 665 LINE",
"931 783 OFFCURVE",
"983 833 OFFCURVE",
"1052 833 CURVE SMOOTH",
"1142 833 OFFCURVE",
"1191 767 OFFCURVE",
"1191 585 CURVE SMOOTH",
"1191 511 OFFCURVE",
"1186 226 OFFCURVE",
"989 226 CURVE SMOOTH",
"923 226 LINE"
);
}
);
width = 1656;
}
);
unicode = 0645;
},
{
glyphname = uni0645.init;
lastChange = "2015-05-23 21:53:29 +0000";
layers = (
{
anchors = (
{
name = bottom;
position = "{580, -120}";
},
{
name = top;
position = "{580, 1228}";
}
);
layerId = "9E57200A-6CEB-4B70-98B9-A6ACB8F2607D";
name = Bold;
paths = (
{
closed = 1;
nodes = (
"113 0 LINE SMOOTH",
"340 0 OFFCURVE",
"441 81 OFFCURVE",
"441 81 CURVE",
"513 26 OFFCURVE",
"580 3 OFFCURVE",
"680 0 CURVE SMOOTH",
"686 0 LINE SMOOTH",
"987 0 OFFCURVE",
"1117 200 OFFCURVE",
"1117 506 CURVE SMOOTH",
"1117 977 OFFCURVE",
"826 1053 OFFCURVE",
"604 1053 CURVE SMOOTH",
"286 1053 OFFCURVE",
"144 1012 OFFCURVE",
"144 506 CURVE SMOOTH",
"144 231 LINE SMOOTH",
"144 227 OFFCURVE",
"139 226 OFFCURVE",
"136 226 CURVE SMOOTH",
"-33 226 LINE SMOOTH",
"-38 226 OFFCURVE",
"-40 224 OFFCURVE",
"-40 220 CURVE SMOOTH",
"-40 6 LINE SMOOTH",
"-40 2 OFFCURVE",
"-38 0 OFFCURVE",
"-33 0 CURVE SMOOTH"
);
},
{
closed = 1;
nodes = (
"496 665 LINE",
"504 783 OFFCURVE",
"556 833 OFFCURVE",
"625 833 CURVE SMOOTH",
"715 833 OFFCURVE",
"764 767 OFFCURVE",
"764 585 CURVE SMOOTH",
"764 511 OFFCURVE",
"759 226 OFFCURVE",
"562 226 CURVE SMOOTH",
"496 226 LINE"
);
}
);
width = 1230;
}
);
unicode = FEE3;
},
{
glyphname = uni0645.medi;
lastChange = "2015-05-23 21:53:35 +0000";
layers = (
{
anchors = (
{
name = bottom;
position = "{581, -120}";
},
{
name = top;
position = "{581, 1228}";
}
);
layerId = "9E57200A-6CEB-4B70-98B9-A6ACB8F2607D";
name = Bold;
paths = (
{
closed = 1;
nodes = (
"113 0 LINE SMOOTH",
"340 0 OFFCURVE",
"441 81 OFFCURVE",
"441 81 CURVE",
"513 26 OFFCURVE",
"580 3 OFFCURVE",
"680 0 CURVE SMOOTH",
"686 0 LINE SMOOTH",
"798 0 OFFCURVE",
"887 28 OFFCURVE",
"954 79 CURVE",
"1026 24 OFFCURVE",
"1112 0 OFFCURVE",
"1203 0 CURVE SMOOTH",
"1300 0 LINE SMOOTH",
"1303 0 OFFCURVE",
"1305 2 OFFCURVE",
"1305 6 CURVE SMOOTH",
"1305 220 LINE SMOOTH",
"1305 224 OFFCURVE",
"1303 226 OFFCURVE",
"1300 226 CURVE SMOOTH",
"1067 226 LINE",
"1101 303 OFFCURVE",
"1117 398 OFFCURVE",
"1117 506 CURVE SMOOTH",
"1117 977 OFFCURVE",
"826 1053 OFFCURVE",
"604 1053 CURVE SMOOTH",
"286 1053 OFFCURVE",
"144 1012 OFFCURVE",
"144 506 CURVE SMOOTH",
"144 231 LINE SMOOTH",
"144 227 OFFCURVE",
"139 226 OFFCURVE",
"136 226 CURVE SMOOTH",
"-33 226 LINE SMOOTH",
"-38 226 OFFCURVE",
"-40 224 OFFCURVE",
"-40 220 CURVE SMOOTH",
"-40 6 LINE SMOOTH",
"-40 2 OFFCURVE",
"-38 0 OFFCURVE",
"-33 0 CURVE SMOOTH"
);
},
{
closed = 1;
nodes = (
"496 665 LINE",
"504 783 OFFCURVE",
"556 833 OFFCURVE",
"625 833 CURVE SMOOTH",
"715 833 OFFCURVE",
"764 767 OFFCURVE",
"764 585 CURVE SMOOTH",
"764 511 OFFCURVE",
"759 226 OFFCURVE",
"562 226 CURVE SMOOTH",
"496 226 LINE"
);
}
);
width = 1265;
}
);
unicode = FEE4;
},
{
glyphname = uni0645.fina;
lastChange = "2015-05-23 21:53:39 +0000";
layers = (
{
anchors = (
{
name = bottom;
position = "{1013, -648}";
},
{
name = top;
position = "{1013, 1228}";
}
);
layerId = "9E57200A-6CEB-4B70-98B9-A6ACB8F2607D";
name = Bold;
paths = (
{
closed = 1;
nodes = (
"852 -589 OFFCURVE",
"914 -284 OFFCURVE",
"914 -168 CURVE SMOOTH",
"914 52 LINE",
"969 20 OFFCURVE",
"1058 1 OFFCURVE",
"1112 1 CURVE SMOOTH",
"1224 1 OFFCURVE",
"1313 29 OFFCURVE",
"1379 79 CURVE",
"1451 24 OFFCURVE",
"1538 0 OFFCURVE",
"1629 0 CURVE SMOOTH",
"1726 0 LINE SMOOTH",
"1729 0 OFFCURVE",
"1731 2 OFFCURVE",
"1731 6 CURVE SMOOTH",
"1731 220 LINE SMOOTH",
"1731 224 OFFCURVE",
"1729 226 OFFCURVE",
"1726 226 CURVE SMOOTH",
"1492 226 LINE",
"1527 304 OFFCURVE",
"1543 399 OFFCURVE",
"1543 507 CURVE SMOOTH",
"1543 978 OFFCURVE",
"1252 1054 OFFCURVE",
"1030 1054 CURVE SMOOTH",
"712 1054 OFFCURVE",
"570 1013 OFFCURVE",
"570 507 CURVE SMOOTH",
"570 -191 LINE SMOOTH",
"570 -271 OFFCURVE",
"508 -338 OFFCURVE",
"386 -338 CURVE SMOOTH",
"285 -338 OFFCURVE",
"197 -300 OFFCURVE",
"167 -281 CURVE SMOOTH",
"161 -277 OFFCURVE",
"156 -276 OFFCURVE",
"152 -276 CURVE SMOOTH",
"147 -276 OFFCURVE",
"143 -279 OFFCURVE",
"139 -284 CURVE",
"134 -289 OFFCURVE",
"132 -297 OFFCURVE",
"132 -307 CURVE SMOOTH",
"132 -313 OFFCURVE",
"133 -319 OFFCURVE",
"134 -326 CURVE SMOOTH",
"137 -347 OFFCURVE",
"215 -589 OFFCURVE",
"517 -589 CURVE SMOOTH"
);
},
{
closed = 1;
nodes = (
"922 666 LINE",
"930 784 OFFCURVE",
"982 834 OFFCURVE",
"1051 834 CURVE SMOOTH",
"1141 834 OFFCURVE",
"1190 768 OFFCURVE",
"1190 586 CURVE SMOOTH",
"1190 512 OFFCURVE",
"1185 227 OFFCURVE",
"988 227 CURVE SMOOTH",
"922 227 LINE"
);
}
);
width = 1691;
}
);
unicode = FEE2;
},
{
glyphname = uni0647;
lastChange = "2015-05-23 21:53:44 +0000";
layers = (
{
anchors = (
{
name = bottom;
position = "{564, -120}";
},
{
name = top;
position = "{564, 1254}";
}
);
layerId = "9E57200A-6CEB-4B70-98B9-A6ACB8F2607D";
name = Bold;
paths = (
{
closed = 1;
nodes = (
"872 0 OFFCURVE",
"999 162 OFFCURVE",
"999 512 CURVE SMOOTH",
"999 862 OFFCURVE",
"893 1053 OFFCURVE",
"565 1053 CURVE SMOOTH",
"238 1053 OFFCURVE",
"131 862 OFFCURVE",
"131 512 CURVE SMOOTH",
"131 162 OFFCURVE",
"258 0 OFFCURVE",
"565 0 CURVE SMOOTH"
);
},
{
closed = 1;
nodes = (
"449 226 OFFCURVE",
"442 374 OFFCURVE",
"442 512 CURVE SMOOTH",
"442 524 OFFCURVE",
"439 557 OFFCURVE",
"439 596 CURVE SMOOTH",
"439 693 OFFCURVE",
"455 832 OFFCURVE",
"565 832 CURVE SMOOTH",
"675 832 OFFCURVE",
"691 695 OFFCURVE",
"691 599 CURVE SMOOTH",
"691 558 OFFCURVE",
"688 524 OFFCURVE",
"688 512 CURVE SMOOTH",
"688 374 OFFCURVE",
"682 226 OFFCURVE",
"565 226 CURVE SMOOTH"
);
}
);
width = 1130;
}
);
unicode = 0647;
},
{
glyphname = uni0647.init;
lastChange = "2015-05-23 21:53:49 +0000";
layers = (
{
anchors = (
{
name = bottom;
position = "{725, -120}";
},
{
name = top;
position = "{725, 1510}";
}
);
layerId = "9E57200A-6CEB-4B70-98B9-A6ACB8F2607D";
name = Bold;
paths = (
{
closed = 1;
nodes = (
"88 0 LINE SMOOTH",
"325 0 OFFCURVE",
"433 0 OFFCURVE",
"534 51 CURVE",
"632 10 OFFCURVE",
"743 0 OFFCURVE",
"881 0 CURVE SMOOTH",
"1182 0 OFFCURVE",
"1412 228 OFFCURVE",
"1412 682 CURVE SMOOTH",
"1412 1204 OFFCURVE",
"1084 1314 OFFCURVE",
"864 1314 CURVE SMOOTH",
"840 1314 OFFCURVE",
"738 1305 OFFCURVE",
"631 1305 CURVE SMOOTH",
"510 1305 OFFCURVE",
"381 1317 OFFCURVE",
"350 1366 CURVE SMOOTH",
"333 1393 OFFCURVE",
"316 1399 OFFCURVE",
"304 1399 CURVE SMOOTH",
"297 1399 OFFCURVE",
"293 1397 OFFCURVE",
"290 1396 CURVE SMOOTH",
"259 1383 OFFCURVE",
"245 1359 OFFCURVE",
"245 1316 CURVE SMOOTH",
"245 1195 OFFCURVE",
"320 1088 OFFCURVE",
"473 1088 CURVE SMOOTH",
"521 1088 OFFCURVE",
"602 1101 OFFCURVE",
"689 1101 CURVE SMOOTH",
"878 1101 OFFCURVE",
"1100 1041 OFFCURVE",
"1100 662 CURVE SMOOTH",
"1100 236 OFFCURVE",
"923 155 OFFCURVE",
"797 155 CURVE SMOOTH",
"759 155 OFFCURVE",
"726 163 OFFCURVE",
"704 170 CURVE",
"745 223 OFFCURVE",
"777 380 OFFCURVE",
"777 514 CURVE SMOOTH",
"777 860 OFFCURVE",
"594 905 OFFCURVE",
"513 905 CURVE SMOOTH",
"457 905 OFFCURVE",
"256 847 OFFCURVE",
"256 520 CURVE SMOOTH",
"256 396 OFFCURVE",
"298 245 OFFCURVE",
"367 168 CURVE",
"215 168 OFFCURVE",
"121 226 OFFCURVE",
"121 226 CURVE SMOOTH",
"-34 226 LINE SMOOTH",
"-38 226 OFFCURVE",
"-40 223 OFFCURVE",
"-40 220 CURVE SMOOTH",
"-40 6 LINE SMOOTH",
"-40 3 OFFCURVE",
"-37 0 OFFCURVE",
"-34 0 CURVE SMOOTH"
);
},
{
closed = 1;
nodes = (
"504 241 OFFCURVE",
"445 384 OFFCURVE",
"445 534 CURVE SMOOTH",
"445 667 OFFCURVE",
"493 776 OFFCURVE",
"514 776 CURVE SMOOTH",
"532 776 OFFCURVE",
"590 641 OFFCURVE",
"590 490 CURVE SMOOTH",
"590 357 OFFCURVE",
"538 241 OFFCURVE",
"521 241 CURVE SMOOTH"
);
}
);
width = 1567;
}
);
unicode = FEEB;
},
{
glyphname = uni0647.medi;
lastChange = "2015-05-23 21:54:02 +0000";
layers = (
{
anchors = (
{
name = bottom;
position = "{725, -120}";
},
{
name = top;
position = "{725, 1510}";
}
);
layerId = "9E57200A-6CEB-4B70-98B9-A6ACB8F2607D";
name = Bold;
paths = (
{
closed = 1;
nodes = (
"88 0 LINE SMOOTH",
"325 0 OFFCURVE",
"433 0 OFFCURVE",
"534 51 CURVE",
"632 10 OFFCURVE",
"743 0 OFFCURVE",
"881 0 CURVE SMOOTH",
"984 0 OFFCURVE",
"1079 27 OFFCURVE",
"1159 80 CURVE",
"1231 24 OFFCURVE",
"1318 0 OFFCURVE",
"1409 0 CURVE SMOOTH",
"1674 0 LINE SMOOTH",
"1677 0 OFFCURVE",
"1679 2 OFFCURVE",
"1679 6 CURVE SMOOTH",
"1679 220 LINE SMOOTH",
"1679 224 OFFCURVE",
"1677 226 OFFCURVE",
"1674 226 CURVE SMOOTH",
"1300 226 LINE",
"1371 337 OFFCURVE",
"1412 489 OFFCURVE",
"1412 682 CURVE SMOOTH",
"1412 1204 OFFCURVE",
"1084 1314 OFFCURVE",
"864 1314 CURVE SMOOTH",
"840 1314 OFFCURVE",
"738 1305 OFFCURVE",
"631 1305 CURVE SMOOTH",
"510 1305 OFFCURVE",
"381 1317 OFFCURVE",
"350 1366 CURVE SMOOTH",
"333 1393 OFFCURVE",
"315 1398 OFFCURVE",
"303 1398 CURVE SMOOTH",
"297 1398 OFFCURVE",
"293 1397 OFFCURVE",
"290 1396 CURVE SMOOTH",
"259 1383 OFFCURVE",
"245 1359 OFFCURVE",
"245 1316 CURVE SMOOTH",
"245 1195 OFFCURVE",
"320 1088 OFFCURVE",
"473 1088 CURVE SMOOTH",
"521 1088 OFFCURVE",
"602 1101 OFFCURVE",
"689 1101 CURVE SMOOTH",
"878 1101 OFFCURVE",
"1100 1041 OFFCURVE",
"1100 662 CURVE SMOOTH",
"1100 236 OFFCURVE",
"923 155 OFFCURVE",
"797 155 CURVE SMOOTH",
"759 155 OFFCURVE",
"726 163 OFFCURVE",
"704 170 CURVE",
"745 223 OFFCURVE",
"777 380 OFFCURVE",
"777 514 CURVE SMOOTH",
"777 860 OFFCURVE",
"594 905 OFFCURVE",
"513 905 CURVE SMOOTH",
"457 905 OFFCURVE",
"256 847 OFFCURVE",
"256 520 CURVE SMOOTH",
"256 396 OFFCURVE",
"298 245 OFFCURVE",
"367 168 CURVE",
"215 168 OFFCURVE",
"121 226 OFFCURVE",
"121 226 CURVE SMOOTH",
"-34 226 LINE SMOOTH",
"-38 226 OFFCURVE",
"-40 223 OFFCURVE",
"-40 220 CURVE SMOOTH",
"-40 6 LINE SMOOTH",
"-40 3 OFFCURVE",
"-37 0 OFFCURVE",
"-34 0 CURVE SMOOTH"
);
},
{
closed = 1;
nodes = (
"504 241 OFFCURVE",
"445 384 OFFCURVE",
"445 534 CURVE SMOOTH",
"445 667 OFFCURVE",
"493 776 OFFCURVE",
"514 776 CURVE SMOOTH",
"532 776 OFFCURVE",
"590 641 OFFCURVE",
"590 490 CURVE SMOOTH",
"590 357 OFFCURVE",
"538 241 OFFCURVE",
"521 241 CURVE SMOOTH"
);
}
);
width = 1639;
}
);
unicode = FEEC;
},
{
glyphname = uni0647.fina;
lastChange = "2015-05-23 21:54:04 +0000";
layers = (
{
anchors = (
{
name = bottom;
position = "{646, -120}";
},
{
name = top;
position = "{646, 1254}";
}
);
layerId = "9E57200A-6CEB-4B70-98B9-A6ACB8F2607D";
name = Bold;
paths = (
{
closed = 1;
nodes = (
"570 0 LINE SMOOTH",
"670 3 OFFCURVE",
"737 26 OFFCURVE",
"809 81 CURVE",
"809 81 OFFCURVE",
"910 0 OFFCURVE",
"1137 0 CURVE SMOOTH",
"1354 0 LINE SMOOTH",
"1359 0 OFFCURVE",
"1361 2 OFFCURVE",
"1361 6 CURVE SMOOTH",
"1361 220 LINE SMOOTH",
"1361 224 OFFCURVE",
"1359 226 OFFCURVE",
"1354 226 CURVE SMOOTH",
"1114 226 LINE SMOOTH",
"1111 226 OFFCURVE",
"1106 227 OFFCURVE",
"1106 231 CURVE SMOOTH",
"1106 506 LINE SMOOTH",
"1106 1012 OFFCURVE",
"964 1053 OFFCURVE",
"646 1053 CURVE SMOOTH",
"424 1053 OFFCURVE",
"133 977 OFFCURVE",
"133 506 CURVE SMOOTH",
"133 200 OFFCURVE",
"263 0 OFFCURVE",
"564 0 CURVE SMOOTH"
);
},
{
closed = 1;
nodes = (
"491 226 OFFCURVE",
"486 511 OFFCURVE",
"486 585 CURVE SMOOTH",
"486 767 OFFCURVE",
"535 833 OFFCURVE",
"625 833 CURVE SMOOTH",
"694 833 OFFCURVE",
"746 783 OFFCURVE",
"754 665 CURVE",
"754 226 LINE",
"688 226 LINE SMOOTH"
);
}
);
width = 1321;
}
);
unicode = FEEA;
},
{
glyphname = uni0648;
lastChange = "2015-05-23 21:54:08 +0000";
layers = (
{
anchors = (
{
name = bottom;
position = "{764, -635}";
},
{
name = top;
position = "{629, 1233}";
}
);
layerId = "9E57200A-6CEB-4B70-98B9-A6ACB8F2607D";
name = Bold;
paths = (
{
closed = 1;
nodes = (
"845 -507 OFFCURVE",
"1114 -435 OFFCURVE",
"1114 -85 CURVE SMOOTH",
"1114 465 LINE SMOOTH",
"1114 881 OFFCURVE",
"1077 1053 OFFCURVE",
"690 1053 CURVE SMOOTH",
"518 1053 OFFCURVE",
"144 1004 OFFCURVE",
"144 509 CURVE SMOOTH",
"144 104 OFFCURVE",
"414 0 OFFCURVE",
"582 0 CURVE SMOOTH",
"699 0 OFFCURVE",
"718 17 OFFCURVE",
"774 49 CURVE",
"774 -109 LINE SMOOTH",
"774 -222 OFFCURVE",
"687 -256 OFFCURVE",
"593 -256 CURVE SMOOTH",
"499 -256 OFFCURVE",
"399 -222 OFFCURVE",
"370 -199 CURVE SMOOTH",
"365 -195 OFFCURVE",
"360 -193 OFFCURVE",
"356 -193 CURVE SMOOTH",
"350 -193 OFFCURVE",
"346 -197 OFFCURVE",
"342 -202 CURVE SMOOTH",
"338 -207 OFFCURVE",
"336 -214 OFFCURVE",
"336 -224 CURVE SMOOTH",
"336 -230 OFFCURVE",
"337 -236 OFFCURVE",
"338 -244 CURVE SMOOTH",
"341 -266 OFFCURVE",
"420 -507 OFFCURVE",
"720 -507 CURVE SMOOTH"
);
},
{
closed = 1;
nodes = (
"523 225 OFFCURVE",
"497 474 OFFCURVE",
"497 583 CURVE SMOOTH",
"497 765 OFFCURVE",
"546 830 OFFCURVE",
"635 830 CURVE SMOOTH",
"706 830 OFFCURVE",
"755 781 OFFCURVE",
"764 663 CURVE",
"764 230 LINE",
"747 228 OFFCURVE",
"716 225 OFFCURVE",
"698 225 CURVE SMOOTH"
);
}
);
width = 1214;
}
);
unicode = 0648;
},
{
glyphname = uni0648.fina;
lastChange = "2015-05-23 21:54:10 +0000";
layers = (
{
anchors = (
{
name = bottom;
position = "{822, -635}";
},
{
name = top;
position = "{687, 1233}";
}
);
layerId = "9E57200A-6CEB-4B70-98B9-A6ACB8F2607D";
name = Bold;
paths = (
{
closed = 1;
nodes = (
"847 -506 OFFCURVE",
"1116 -434 OFFCURVE",
"1116 -84 CURVE SMOOTH",
"1116 79 LINE",
"1188 24 OFFCURVE",
"1275 0 OFFCURVE",
"1366 0 CURVE SMOOTH",
"1371 0 LINE SMOOTH",
"1374 0 OFFCURVE",
"1376 2 OFFCURVE",
"1376 6 CURVE SMOOTH",
"1376 220 LINE SMOOTH",
"1376 224 OFFCURVE",
"1374 226 OFFCURVE",
"1371 226 CURVE SMOOTH",
"1116 226 LINE",
"1116 466 LINE SMOOTH",
"1116 881 OFFCURVE",
"1079 1054 OFFCURVE",
"692 1054 CURVE SMOOTH",
"520 1054 OFFCURVE",
"146 1004 OFFCURVE",
"146 510 CURVE SMOOTH",
"146 104 OFFCURVE",
"416 1 OFFCURVE",
"584 1 CURVE SMOOTH",
"701 1 OFFCURVE",
"720 18 OFFCURVE",
"776 50 CURVE",
"776 -108 LINE SMOOTH",
"776 -221 OFFCURVE",
"688 -255 OFFCURVE",
"594 -255 CURVE SMOOTH",
"501 -255 OFFCURVE",
"401 -222 OFFCURVE",
"372 -198 CURVE SMOOTH",
"367 -194 OFFCURVE",
"362 -192 OFFCURVE",
"358 -192 CURVE SMOOTH",
"352 -192 OFFCURVE",
"348 -196 OFFCURVE",
"344 -201 CURVE SMOOTH",
"340 -206 OFFCURVE",
"338 -213 OFFCURVE",
"338 -223 CURVE SMOOTH",
"338 -229 OFFCURVE",
"339 -235 OFFCURVE",
"340 -243 CURVE SMOOTH",
"343 -265 OFFCURVE",
"422 -506 OFFCURVE",
"722 -506 CURVE SMOOTH"
);
},
{
closed = 1;
nodes = (
"525 226 OFFCURVE",
"499 475 OFFCURVE",
"499 584 CURVE SMOOTH",
"499 766 OFFCURVE",
"548 831 OFFCURVE",
"637 831 CURVE SMOOTH",
"708 831 OFFCURVE",
"757 782 OFFCURVE",
"766 664 CURVE",
"766 231 LINE",
"749 229 OFFCURVE",
"718 226 OFFCURVE",
"700 226 CURVE SMOOTH"
);
}
);
width = 1336;
}
);
unicode = FEEE;
},
{
glyphname = uni0649;
lastChange = "2015-05-23 21:54:12 +0000";
layers = (
{
anchors = (
{
name = bottom;
position = "{988, -634}";
},
{
name = top;
position = "{416, 767}";
}
);
layerId = "9E57200A-6CEB-4B70-98B9-A6ACB8F2607D";
name = Bold;
paths = (
{
closed = 1;
nodes = (
"1653 -507 OFFCURVE",
"1878 -203 OFFCURVE",
"1878 67 CURVE SMOOTH",
"1878 282 OFFCURVE",
"1736 475 OFFCURVE",
"1503 475 CURVE SMOOTH",
"1136 475 LINE",
"1136 617 OFFCURVE",
"1369 724 OFFCURVE",
"1507 724 CURVE SMOOTH",
"1609 724 OFFCURVE",
"1652 672 OFFCURVE",
"1666 679 CURVE",
"1727 713 OFFCURVE",
"1723 784 OFFCURVE",
"1723 823 CURVE SMOOTH",
"1723 941 OFFCURVE",
"1646 1053 OFFCURVE",
"1448 1053 CURVE SMOOTH",
"1237 1053 OFFCURVE",
"898 883 OFFCURVE",
"898 514 CURVE SMOOTH",
"898 427 OFFCURVE",
"919 250 OFFCURVE",
"1127 250 CURVE SMOOTH",
"1475 250 LINE SMOOTH",
"1577 250 OFFCURVE",
"1626 190 OFFCURVE",
"1626 110 CURVE SMOOTH",
"1626 -48 OFFCURVE",
"1438 -281 OFFCURVE",
"1100 -281 CURVE SMOOTH",
"572 -281 OFFCURVE",
"462 -49 OFFCURVE",
"462 139 CURVE SMOOTH",
"462 247 OFFCURVE",
"498 339 OFFCURVE",
"512 365 CURVE SMOOTH",
"561 455 OFFCURVE",
"624 469 OFFCURVE",
"624 485 CURVE SMOOTH",
"624 505 OFFCURVE",
"592 622 OFFCURVE",
"417 622 CURVE SMOOTH",
"334 622 OFFCURVE",
"134 556 OFFCURVE",
"134 171 CURVE SMOOTH",
"134 -159 OFFCURVE",
"287 -507 OFFCURVE",
"1101 -507 CURVE SMOOTH"
);
}
);
width = 1978;
}
);
unicode = 0649;
},
{
glyphname = uni0649.fina;
lastChange = "2015-05-23 21:54:14 +0000";
layers = (
{
anchors = (
{
name = bottom;
position = "{988, -634}";
},
{
name = top;
position = "{416, 767}";
}
);
layerId = "9E57200A-6CEB-4B70-98B9-A6ACB8F2607D";
name = Bold;
paths = (
{
closed = 1;
nodes = (
"1654 -507 OFFCURVE",
"1879 -203 OFFCURVE",
"1879 67 CURVE SMOOTH",
"1879 282 OFFCURVE",
"1737 475 OFFCURVE",
"1504 475 CURVE SMOOTH",
"1164 475 LINE",
"1264 763 OFFCURVE",
"1548 787 OFFCURVE",
"1801 787 CURVE SMOOTH",
"1852 787 OFFCURVE",
"1902 786 OFFCURVE",
"1949 786 CURVE",
"1948 776 OFFCURVE",
"1943 720 OFFCURVE",
"1943 647 CURVE SMOOTH",
"1943 567 OFFCURVE",
"1949 468 OFFCURVE",
"1969 389 CURVE SMOOTH",
"2016 209 OFFCURVE",
"2148 0 OFFCURVE",
"2435 0 CURVE SMOOTH",
"2683 0 LINE SMOOTH",
"2686 0 OFFCURVE",
"2689 3 OFFCURVE",
"2689 6 CURVE SMOOTH",
"2689 220 LINE SMOOTH",
"2689 224 OFFCURVE",
"2686 226 OFFCURVE",
"2683 226 CURVE SMOOTH",
"2411 226 LINE SMOOTH",
"2272 226 OFFCURVE",
"2258 517 OFFCURVE",
"2258 558 CURVE SMOOTH",
"2258 648 OFFCURVE",
"2279 703 OFFCURVE",
"2280 704 CURVE",
"2288 725 OFFCURVE",
"2293 749 OFFCURVE",
"2293 776 CURVE SMOOTH",
"2293 800 OFFCURVE",
"2289 826 OFFCURVE",
"2280 852 CURVE SMOOTH",
"2276 864 OFFCURVE",
"2257 962 OFFCURVE",
"2084 1014 CURVE SMOOTH",
"1996 1040 OFFCURVE",
"1892 1053 OFFCURVE",
"1783 1053 CURVE SMOOTH",
"1377 1053 OFFCURVE",
"899 872 OFFCURVE",
"899 483 CURVE SMOOTH",
"899 400 OFFCURVE",
"951 249 OFFCURVE",
"1127 249 CURVE SMOOTH",
"1476 250 LINE SMOOTH",
"1578 250 OFFCURVE",
"1627 190 OFFCURVE",
"1627 110 CURVE SMOOTH",
"1627 -48 OFFCURVE",
"1439 -281 OFFCURVE",
"1101 -281 CURVE SMOOTH",
"573 -281 OFFCURVE",
"463 -49 OFFCURVE",
"463 139 CURVE SMOOTH",
"463 247 OFFCURVE",
"499 339 OFFCURVE",
"513 365 CURVE SMOOTH",
"562 455 OFFCURVE",
"625 469 OFFCURVE",
"625 485 CURVE SMOOTH",
"625 505 OFFCURVE",
"593 622 OFFCURVE",
"418 622 CURVE SMOOTH",
"335 622 OFFCURVE",
"135 556 OFFCURVE",
"135 171 CURVE SMOOTH",
"135 -159 OFFCURVE",
"288 -507 OFFCURVE",
"1102 -507 CURVE SMOOTH"
);
}
);
width = 2649;
}
);
unicode = FEF0;
},
{
glyphname = uni06440627.isol;
lastChange = "2015-05-23 21:54:17 +0000";
layers = (
{
anchors = (
{
name = bottom_1;
position = "{1114, -120}";
},
{
name = bottom_2;
position = "{371, -120}";
},
{
name = top_1;
position = "{1078, 1686}";
},
{
name = top_2;
position = "{296, 1387}";
}
);
layerId = "9E57200A-6CEB-4B70-98B9-A6ACB8F2607D";
name = Bold;
paths = (
{
closed = 1;
nodes = (
"908 0 LINE SMOOTH",
"1162 0 OFFCURVE",
"1300 239 OFFCURVE",
"1300 342 CURVE SMOOTH",
"1303 1258 LINE SMOOTH",
"1303 1480 OFFCURVE",
"1148 1557 OFFCURVE",
"1080 1557 CURVE SMOOTH",
"968 1557 OFFCURVE",
"864 1512 OFFCURVE",
"819 1406 CURVE SMOOTH",
"815 1397 OFFCURVE",
"820 1387 OFFCURVE",
"832 1381 CURVE SMOOTH",
"886 1352 OFFCURVE",
"952 1327 OFFCURVE",
"952 1164 CURVE SMOOTH",
"951 381 LINE",
"947 280 OFFCURVE",
"911 228 OFFCURVE",
"850 226 CURVE SMOOTH",
"784 226 LINE",
"784 550 OFFCURVE",
"603 1278 OFFCURVE",
"339 1278 CURVE SMOOTH",
"290 1278 LINE SMOOTH",
"219 1278 OFFCURVE",
"123 1235 OFFCURVE",
"123 1155 CURVE SMOOTH",
"123 1150 OFFCURVE",
"138 1138 OFFCURVE",
"161 1122 CURVE SMOOTH",
"229 1073 OFFCURVE",
"466 641 OFFCURVE",
"466 226 CURVE",
"181 226 LINE SMOOTH",
"99 226 OFFCURVE",
"87 144 OFFCURVE",
"87 116 CURVE SMOOTH",
"87 95 OFFCURVE",
"96 0 OFFCURVE",
"188 0 CURVE SMOOTH"
);
}
);
width = 1403;
}
);
unicode = FEFB;
},
{
glyphname = uni06440627.fina;
lastChange = "2015-05-23 21:54:19 +0000";
layers = (
{
anchors = (
{
name = bottom_1;
position = "{1114, -120}";
},
{
name = bottom_2;
position = "{371, -120}";
},
{
name = caret_1;
position = "{743, -120}";
},
{
name = top_1;
position = "{1078, 1686}";
},
{
name = top_2;
position = "{296, 1387}";
}
);
layerId = "9E57200A-6CEB-4B70-98B9-A6ACB8F2607D";
name = Bold;
paths = (
{
closed = 1;
nodes = (
"913 0 LINE SMOOTH",
"1007 0 OFFCURVE",
"1085 32 OFFCURVE",
"1147 79 CURVE",
"1219 23 OFFCURVE",
"1305 0 OFFCURVE",
"1397 0 CURVE SMOOTH",
"1574 0 LINE SMOOTH",
"1577 0 OFFCURVE",
"1579 2 OFFCURVE",
"1579 6 CURVE SMOOTH",
"1579 220 LINE SMOOTH",
"1579 224 OFFCURVE",
"1577 226 OFFCURVE",
"1574 226 CURVE SMOOTH",
"1270 226 LINE",
"1293 270 OFFCURVE",
"1305 311 OFFCURVE",
"1305 342 CURVE SMOOTH",
"1308 1258 LINE SMOOTH",
"1308 1480 OFFCURVE",
"1153 1557 OFFCURVE",
"1085 1557 CURVE SMOOTH",
"973 1557 OFFCURVE",
"869 1512 OFFCURVE",
"824 1406 CURVE SMOOTH",
"820 1397 OFFCURVE",
"825 1387 OFFCURVE",
"837 1381 CURVE SMOOTH",
"891 1352 OFFCURVE",
"957 1327 OFFCURVE",
"957 1164 CURVE SMOOTH",
"956 381 LINE",
"952 280 OFFCURVE",
"916 228 OFFCURVE",
"855 226 CURVE SMOOTH",
"789 226 LINE",
"789 550 OFFCURVE",
"608 1278 OFFCURVE",
"344 1278 CURVE SMOOTH",
"295 1278 LINE SMOOTH",
"224 1278 OFFCURVE",
"128 1235 OFFCURVE",
"128 1155 CURVE SMOOTH",
"128 1150 OFFCURVE",
"143 1138 OFFCURVE",
"166 1122 CURVE SMOOTH",
"234 1073 OFFCURVE",
"471 641 OFFCURVE",
"471 226 CURVE",
"186 226 LINE SMOOTH",
"100 226 OFFCURVE",
"91 136 OFFCURVE",
"92 113 CURVE",
"92 87 OFFCURVE",
"105 0 OFFCURVE",
"193 0 CURVE SMOOTH"
);
}
);
width = 1539;
}
);
unicode = FEFC;
},
{
glyphname = uni0640;
lastChange = "2015-05-23 23:30:56 +0000";
layers = (
{
layerId = "9E57200A-6CEB-4B70-98B9-A6ACB8F2607D";
name = Bold;
paths = (
{
closed = 1;
nodes = (
"360 0 LINE SMOOTH",
"367 0 OFFCURVE",
"371 3 OFFCURVE",
"371 10 CURVE SMOOTH",
"371 218 LINE SMOOTH",
"371 223 OFFCURVE",
"367 226 OFFCURVE",
"360 226 CURVE SMOOTH",
"-10 226 LINE SMOOTH",
"-17 226 OFFCURVE",
"-20 223 OFFCURVE",
"-20 218 CURVE SMOOTH",
"-20 10 LINE SMOOTH",
"-20 3 OFFCURVE",
"-17 0 OFFCURVE",
"-10 0 CURVE SMOOTH"
);
}
);
width = 350;
}
);
unicode = 0640;
},
{
glyphname = uni066E;
lastChange = "2015-05-23 21:54:29 +0000";
layers = (
{
anchors = (
{
name = bottom;
position = "{816, -120}";
},
{
name = top;
position = "{816, 1228}";
}
);
layerId = "9E57200A-6CEB-4B70-98B9-A6ACB8F2607D";
name = Bold;
paths = (
{
closed = 1;
nodes = (
"1126 0 LINE SMOOTH",
"1449 0 OFFCURVE",
"1602 300 OFFCURVE",
"1602 605 CURVE SMOOTH",
"1602 889 OFFCURVE",
"1496 1053 OFFCURVE",
"1318 1053 CURVE SMOOTH",
"1179 1053 OFFCURVE",
"1117 972 OFFCURVE",
"1117 919 CURVE SMOOTH",
"1117 915 OFFCURVE",
"1124 909 OFFCURVE",
"1124 909 CURVE",
"1240 833 OFFCURVE",
"1284 753 OFFCURVE",
"1284 534 CURVE SMOOTH",
"1284 314 OFFCURVE",
"1208 226 OFFCURVE",
"1121 226 CURVE SMOOTH",
"587 226 LINE SMOOTH",
"527 226 OFFCURVE",
"488 280 OFFCURVE",
"488 381 CURVE SMOOTH",
"488 773 LINE SMOOTH",
"488 886 OFFCURVE",
"418 944 OFFCURVE",
"314 944 CURVE SMOOTH",
"212 944 OFFCURVE",
"132 889 OFFCURVE",
"132 773 CURVE SMOOTH",
"133 343 LINE SMOOTH",
"133 241 OFFCURVE",
"250 0 OFFCURVE",
"525 0 CURVE SMOOTH"
);
}
);
width = 1702;
}
);
unicode = 066E;
},
{
glyphname = uni066E.fina;
lastChange = "2015-05-23 21:54:31 +0000";
layers = (
{
anchors = (
{
name = bottom;
position = "{816, -120}";
},
{
name = top;
position = "{816, 1228}";
}
);
layerId = "9E57200A-6CEB-4B70-98B9-A6ACB8F2607D";
name = Bold;
paths = (
{
closed = 1;
nodes = (
"1126 0 LINE SMOOTH",
"1228 0 OFFCURVE",
"1312 30 OFFCURVE",
"1381 79 CURVE",
"1453 24 OFFCURVE",
"1539 0 OFFCURVE",
"1631 0 CURVE SMOOTH",
"1873 0 LINE SMOOTH",
"1876 0 OFFCURVE",
"1878 2 OFFCURVE",
"1878 6 CURVE SMOOTH",
"1878 220 LINE SMOOTH",
"1878 224 OFFCURVE",
"1876 226 OFFCURVE",
"1873 226 CURVE SMOOTH",
"1509 226 LINE",
"1572 334 OFFCURVE",
"1602 469 OFFCURVE",
"1602 605 CURVE SMOOTH",
"1602 889 OFFCURVE",
"1496 1053 OFFCURVE",
"1318 1053 CURVE SMOOTH",
"1179 1053 OFFCURVE",
"1117 972 OFFCURVE",
"1117 919 CURVE SMOOTH",
"1117 915 OFFCURVE",
"1124 909 OFFCURVE",
"1124 909 CURVE",
"1240 833 OFFCURVE",
"1284 753 OFFCURVE",
"1284 534 CURVE SMOOTH",
"1284 314 OFFCURVE",
"1208 226 OFFCURVE",
"1121 226 CURVE SMOOTH",
"587 226 LINE SMOOTH",
"528 226 OFFCURVE",
"488 280 OFFCURVE",
"488 381 CURVE SMOOTH",
"488 773 LINE SMOOTH",
"488 886 OFFCURVE",
"418 944 OFFCURVE",
"314 944 CURVE SMOOTH",
"212 944 OFFCURVE",
"132 889 OFFCURVE",
"132 773 CURVE SMOOTH",
"133 343 LINE SMOOTH",
"133 241 OFFCURVE",
"250 0 OFFCURVE",
"525 0 CURVE SMOOTH"
);
}
);
width = 1838;
}
);
},
{
glyphname = uni066F.init;
lastChange = "2015-05-23 21:54:37 +0000";
layers = (
{
anchors = (
{
name = bottom;
position = "{644, -120}";
},
{
name = top;
position = "{644, 1254}";
}
);
layerId = "9E57200A-6CEB-4B70-98B9-A6ACB8F2607D";
name = Bold;
paths = (
{
closed = 1;
nodes = (
"605 0 LINE SMOOTH",
"936 0 OFFCURVE",
"1140 333 OFFCURVE",
"1140 504 CURVE SMOOTH",
"1140 943 OFFCURVE",
"1046 1055 OFFCURVE",
"714 1055 CURVE SMOOTH",
"464 1055 OFFCURVE",
"167 961 OFFCURVE",
"167 509 CURVE SMOOTH",
"167 409 OFFCURVE",
"180 310 OFFCURVE",
"223 226 CURVE",
"-35 226 LINE SMOOTH",
"-38 226 OFFCURVE",
"-40 224 OFFCURVE",
"-40 220 CURVE SMOOTH",
"-40 6 LINE SMOOTH",
"-40 2 OFFCURVE",
"-38 0 OFFCURVE",
"-35 0 CURVE SMOOTH"
);
},
{
closed = 1;
nodes = (
"572 230 OFFCURVE",
"520 411 OFFCURVE",
"520 583 CURVE SMOOTH",
"520 765 OFFCURVE",
"569 831 OFFCURVE",
"659 831 CURVE SMOOTH",
"729 831 OFFCURVE",
"779 782 OFFCURVE",
"788 663 CURVE",
"788 230 LINE",
"722 230 LINE SMOOTH"
);
}
);
width = 1314;
}
);
},
{
glyphname = uni066F.medi;
lastChange = "2015-05-23 21:54:51 +0000";
layers = (
{
anchors = (
{
name = bottom;
position = "{641, -120}";
},
{
name = top;
position = "{641, 1254}";
}
);
layerId = "9E57200A-6CEB-4B70-98B9-A6ACB8F2607D";
name = Bold;
paths = (
{
closed = 1;
nodes = (
"-39 0 OFFCURVE",
"-37 0 OFFCURVE",
"-35 0 CURVE SMOOTH",
"601 0 LINE SMOOTH",
"702 0 OFFCURVE",
"792 31 OFFCURVE",
"867 80 CURVE",
"939 24 OFFCURVE",
"1026 0 OFFCURVE",
"1118 0 CURVE SMOOTH",
"1397 0 LINE SMOOTH",
"1400 0 OFFCURVE",
"1402 2 OFFCURVE",
"1402 6 CURVE SMOOTH",
"1402 220 LINE SMOOTH",
"1402 224 OFFCURVE",
"1400 226 OFFCURVE",
"1397 226 CURVE SMOOTH",
"1023 226 LINE",
"1096 322 OFFCURVE",
"1136 429 OFFCURVE",
"1136 504 CURVE SMOOTH",
"1136 943 OFFCURVE",
"1042 1055 OFFCURVE",
"710 1055 CURVE SMOOTH",
"460 1055 OFFCURVE",
"163 961 OFFCURVE",
"163 509 CURVE SMOOTH",
"163 409 OFFCURVE",
"176 310 OFFCURVE",
"219 226 CURVE",
"-40 226 LINE",
"-40 0 LINE"
);
},
{
closed = 1;
nodes = (
"568 230 OFFCURVE",
"516 411 OFFCURVE",
"516 583 CURVE SMOOTH",
"516 765 OFFCURVE",
"565 831 OFFCURVE",
"655 831 CURVE SMOOTH",
"725 831 OFFCURVE",
"775 782 OFFCURVE",
"784 663 CURVE",
"784 230 LINE",
"718 230 LINE SMOOTH"
);
}
);
width = 1362;
}
);
},
{
glyphname = feh_dotless.isol;
lastChange = "2015-05-23 21:54:53 +0000";
layers = (
{
anchors = (
{
name = bottom;
position = "{1558, -120}";
},
{
name = top;
position = "{1558, 1254}";
}
);
layerId = "9E57200A-6CEB-4B70-98B9-A6ACB8F2607D";
name = Bold;
paths = (
{
closed = 1;
nodes = (
"1504 0 LINE SMOOTH",
"1835 0 OFFCURVE",
"2039 333 OFFCURVE",
"2039 504 CURVE SMOOTH",
"2039 943 OFFCURVE",
"1945 1055 OFFCURVE",
"1613 1055 CURVE SMOOTH",
"1363 1055 OFFCURVE",
"1066 961 OFFCURVE",
"1066 509 CURVE SMOOTH",
"1066 409 OFFCURVE",
"1079 310 OFFCURVE",
"1122 226 CURVE",
"613 226 LINE SMOOTH",
"526 226 OFFCURVE",
"451 296 OFFCURVE",
"451 423 CURVE SMOOTH",
"451 753 OFFCURVE",
"617 805 OFFCURVE",
"617 808 CURVE SMOOTH",
"617 862 OFFCURVE",
"548 945 OFFCURVE",
"417 945 CURVE SMOOTH",
"284 945 OFFCURVE",
"133 849 OFFCURVE",
"133 494 CURVE SMOOTH",
"133 190 OFFCURVE",
"287 0 OFFCURVE",
"609 0 CURVE SMOOTH"
);
},
{
closed = 1;
nodes = (
"1471 230 OFFCURVE",
"1419 411 OFFCURVE",
"1419 583 CURVE SMOOTH",
"1419 765 OFFCURVE",
"1468 831 OFFCURVE",
"1558 831 CURVE SMOOTH",
"1628 831 OFFCURVE",
"1678 782 OFFCURVE",
"1687 663 CURVE",
"1687 230 LINE",
"1621 230 LINE SMOOTH"
);
}
);
width = 2139;
}
);
},
{
glyphname = uni06A1.fina;
lastChange = "2015-05-23 21:54:56 +0000";
layers = (
{
anchors = (
{
name = bottom;
position = "{1558, -120}";
},
{
name = top;
position = "{1558, 1254}";
}
);
layerId = "9E57200A-6CEB-4B70-98B9-A6ACB8F2607D";
name = Bold;
paths = (
{
closed = 1;
nodes = (
"1504 0 LINE SMOOTH",
"1606 0 OFFCURVE",
"1695 31 OFFCURVE",
"1771 80 CURVE",
"1843 24 OFFCURVE",
"1930 0 OFFCURVE",
"2022 0 CURVE SMOOTH",
"2299 0 LINE SMOOTH",
"2302 0 OFFCURVE",
"2304 2 OFFCURVE",
"2304 6 CURVE SMOOTH",
"2304 220 LINE SMOOTH",
"2304 224 OFFCURVE",
"2302 226 OFFCURVE",
"2299 226 CURVE SMOOTH",
"1927 226 LINE",
"1999 322 OFFCURVE",
"2039 429 OFFCURVE",
"2039 504 CURVE SMOOTH",
"2039 943 OFFCURVE",
"1945 1055 OFFCURVE",
"1613 1055 CURVE SMOOTH",
"1363 1055 OFFCURVE",
"1066 961 OFFCURVE",
"1066 509 CURVE SMOOTH",
"1066 409 OFFCURVE",
"1079 310 OFFCURVE",
"1122 226 CURVE",
"613 226 LINE SMOOTH",
"526 226 OFFCURVE",
"451 296 OFFCURVE",
"451 423 CURVE SMOOTH",
"451 753 OFFCURVE",
"617 805 OFFCURVE",
"617 808 CURVE SMOOTH",
"617 862 OFFCURVE",
"548 945 OFFCURVE",
"417 945 CURVE SMOOTH",
"284 945 OFFCURVE",
"133 849 OFFCURVE",
"133 494 CURVE SMOOTH",
"133 190 OFFCURVE",
"287 0 OFFCURVE",
"609 0 CURVE SMOOTH"
);
},
{
closed = 1;
nodes = (
"1471 230 OFFCURVE",
"1419 411 OFFCURVE",
"1419 583 CURVE SMOOTH",
"1419 765 OFFCURVE",
"1468 831 OFFCURVE",
"1558 831 CURVE SMOOTH",
"1628 831 OFFCURVE",
"1678 782 OFFCURVE",
"1687 663 CURVE",
"1687 230 LINE",
"1621 230 LINE SMOOTH"
);
}
);
width = 2264;
}
);
},
{
glyphname = uni066F;
lastChange = "2015-05-23 21:54:58 +0000";
layers = (
{
anchors = (
{
name = bottom;
position = "{1027, -639}";
},
{
name = top;
position = "{1510, 1254}";
}
);
layerId = "9E57200A-6CEB-4B70-98B9-A6ACB8F2607D";
name = Bold;
paths = (
{
closed = 1;
nodes = (
"1999 -507 OFFCURVE",
"1997 262 OFFCURVE",
"1999 494 CURVE SMOOTH",
"1999 534 LINE SMOOTH",
"1999 975 OFFCURVE",
"1825 1053 OFFCURVE",
"1574 1053 CURVE SMOOTH",
"1251 1053 OFFCURVE",
"1027 902 OFFCURVE",
"1027 508 CURVE SMOOTH",
"1027 382 OFFCURVE",
"1066 0 OFFCURVE",
"1464 0 CURVE SMOOTH",
"1543 0 OFFCURVE",
"1600 20 OFFCURVE",
"1657 52 CURVE",
"1624 -81 OFFCURVE",
"1513 -282 OFFCURVE",
"1087 -282 CURVE SMOOTH",
"679 -282 OFFCURVE",
"465 -241 OFFCURVE",
"465 61 CURVE SMOOTH",
"465 349 OFFCURVE",
"623 384 OFFCURVE",
"623 401 CURVE SMOOTH",
"623 420 OFFCURVE",
"585 537 OFFCURVE",
"415 537 CURVE SMOOTH",
"333 537 OFFCURVE",
"133 480 OFFCURVE",
"133 68 CURVE SMOOTH",
"133 -246 OFFCURVE",
"288 -507 OFFCURVE",
"1098 -507 CURVE SMOOTH"
);
},
{
closed = 1;
nodes = (
"1397 229 OFFCURVE",
"1380 508 OFFCURVE",
"1380 582 CURVE SMOOTH",
"1380 764 OFFCURVE",
"1430 830 OFFCURVE",
"1518 830 CURVE SMOOTH",
"1589 830 OFFCURVE",
"1639 781 OFFCURVE",
"1647 662 CURVE",
"1647 229 LINE",
"1581 229 LINE SMOOTH"
);
}
);
width = 2099;
}
);
unicode = 066F;
},
{
glyphname = uni066F.fina;
lastChange = "2015-05-23 21:55:00 +0000";
layers = (
{
anchors = (
{
name = bottom;
position = "{1027, -639}";
},
{
name = top;
position = "{1510, 1254}";
}
);
layerId = "9E57200A-6CEB-4B70-98B9-A6ACB8F2607D";
name = Bold;
paths = (
{
closed = 1;
nodes = (
"1663 -507 OFFCURVE",
"1873 -204 OFFCURVE",
"1951 79 CURVE",
"2023 24 OFFCURVE",
"2110 0 OFFCURVE",
"2201 0 CURVE SMOOTH",
"2260 0 LINE SMOOTH",
"2263 0 OFFCURVE",
"2265 2 OFFCURVE",
"2265 6 CURVE SMOOTH",
"2265 220 LINE SMOOTH",
"2265 224 OFFCURVE",
"2263 226 OFFCURVE",
"2260 226 CURVE SMOOTH",
"1982 226 LINE",
"1998 337 OFFCURVE",
"1998 433 OFFCURVE",
"1999 494 CURVE SMOOTH",
"1999 534 LINE SMOOTH",
"1999 974 OFFCURVE",
"1825 1053 OFFCURVE",
"1574 1053 CURVE SMOOTH",
"1251 1053 OFFCURVE",
"1027 901 OFFCURVE",
"1027 508 CURVE SMOOTH",
"1027 381 OFFCURVE",
"1066 0 OFFCURVE",
"1464 0 CURVE SMOOTH",
"1543 0 OFFCURVE",
"1600 20 OFFCURVE",
"1657 52 CURVE",
"1624 -81 OFFCURVE",
"1513 -282 OFFCURVE",
"1087 -282 CURVE SMOOTH",
"679 -282 OFFCURVE",
"465 -242 OFFCURVE",
"465 60 CURVE SMOOTH",
"465 348 OFFCURVE",
"623 384 OFFCURVE",
"623 401 CURVE SMOOTH",
"623 420 OFFCURVE",
"585 537 OFFCURVE",
"415 537 CURVE SMOOTH",
"333 537 OFFCURVE",
"133 479 OFFCURVE",
"133 68 CURVE SMOOTH",
"133 -246 OFFCURVE",
"288 -507 OFFCURVE",
"1098 -507 CURVE SMOOTH"
);
},
{
closed = 1;
nodes = (
"1397 229 OFFCURVE",
"1380 508 OFFCURVE",
"1380 582 CURVE SMOOTH",
"1380 764 OFFCURVE",
"1430 830 OFFCURVE",
"1518 830 CURVE SMOOTH",
"1589 830 OFFCURVE",
"1639 781 OFFCURVE",
"1647 662 CURVE",
"1647 229 LINE",
"1581 229 LINE SMOOTH"
);
}
);
width = 2225;
}
);
},
{
glyphname = onedot.above;
lastChange = "2015-05-23 20:49:39 +0000";
layers = (
{
layerId = "9E57200A-6CEB-4B70-98B9-A6ACB8F2607D";
name = Bold;
paths = (
{
closed = 1;
nodes = (
"104 1229 OFFCURVE",
"172 1296 OFFCURVE",
"172 1379 CURVE SMOOTH",
"172 1462 OFFCURVE",
"104 1530 OFFCURVE",
"21 1530 CURVE SMOOTH",
"-62 1530 OFFCURVE",
"-129 1462 OFFCURVE",
"-129 1379 CURVE SMOOTH",
"-129 1296 OFFCURVE",
"-62 1229 OFFCURVE",
"21 1229 CURVE SMOOTH"
);
}
);
width = 0;
}
);
},
{
glyphname = twodots.above;
lastChange = "2015-05-23 20:49:39 +0000";
layers = (
{
layerId = "9E57200A-6CEB-4B70-98B9-A6ACB8F2607D";
name = Bold;
paths = (
{
closed = 1;
nodes = (
"287 1229 OFFCURVE",
"355 1296 OFFCURVE",
"355 1379 CURVE SMOOTH",
"355 1462 OFFCURVE",
"287 1530 OFFCURVE",
"204 1530 CURVE SMOOTH",
"121 1530 OFFCURVE",
"54 1462 OFFCURVE",
"54 1379 CURVE SMOOTH",
"54 1296 OFFCURVE",
"121 1229 OFFCURVE",
"204 1229 CURVE SMOOTH"
);
},
{
closed = 1;
nodes = (
"-92 1229 OFFCURVE",
"-24 1296 OFFCURVE",
"-24 1379 CURVE SMOOTH",
"-24 1462 OFFCURVE",
"-92 1530 OFFCURVE",
"-175 1530 CURVE SMOOTH",
"-258 1530 OFFCURVE",
"-325 1462 OFFCURVE",
"-325 1379 CURVE SMOOTH",
"-325 1296 OFFCURVE",
"-258 1229 OFFCURVE",
"-175 1229 CURVE SMOOTH"
);
}
);
width = 0;
}
);
},
{
glyphname = threedots.above;
lastChange = "2015-05-23 20:49:39 +0000";
layers = (
{
layerId = "9E57200A-6CEB-4B70-98B9-A6ACB8F2607D";
name = Bold;
paths = (
{
closed = 1;
nodes = (
"290 1229 OFFCURVE",
"358 1296 OFFCURVE",
"358 1379 CURVE SMOOTH",
"358 1462 OFFCURVE",
"290 1530 OFFCURVE",
"207 1530 CURVE SMOOTH",
"124 1530 OFFCURVE",
"57 1462 OFFCURVE",
"57 1379 CURVE SMOOTH",
"57 1296 OFFCURVE",
"124 1229 OFFCURVE",
"207 1229 CURVE SMOOTH"
);
},
{
closed = 1;
nodes = (
"-87 1229 OFFCURVE",
"-19 1296 OFFCURVE",
"-19 1379 CURVE SMOOTH",
"-19 1462 OFFCURVE",
"-87 1530 OFFCURVE",
"-170 1530 CURVE SMOOTH",
"-253 1530 OFFCURVE",
"-320 1462 OFFCURVE",
"-320 1379 CURVE SMOOTH",
"-320 1296 OFFCURVE",
"-253 1229 OFFCURVE",
"-170 1229 CURVE SMOOTH"
);
},
{
closed = 1;
nodes = (
"88 1559 OFFCURVE",
"145 1615 OFFCURVE",
"145 1685 CURVE SMOOTH",
"145 1754 OFFCURVE",
"88 1810 OFFCURVE",
"19 1810 CURVE SMOOTH",
"-50 1810 OFFCURVE",
"-107 1754 OFFCURVE",
"-107 1685 CURVE SMOOTH",
"-107 1615 OFFCURVE",
"-50 1559 OFFCURVE",
"19 1559 CURVE SMOOTH"
);
}
);
width = 0;
}
);
},
{
glyphname = threedots.below;
lastChange = "2015-05-23 20:49:39 +0000";
layers = (
{
layerId = "9E57200A-6CEB-4B70-98B9-A6ACB8F2607D";
name = Bold;
paths = (
{
closed = 1;
nodes = (
"292 -487 OFFCURVE",
"359 -419 OFFCURVE",
"359 -336 CURVE SMOOTH",
"359 -253 OFFCURVE",
"292 -186 OFFCURVE",
"209 -186 CURVE SMOOTH",
"126 -186 OFFCURVE",
"58 -253 OFFCURVE",
"58 -336 CURVE SMOOTH",
"58 -419 OFFCURVE",
"126 -487 OFFCURVE",
"209 -487 CURVE SMOOTH"
);
},
{
closed = 1;
nodes = (
"89 -767 OFFCURVE",
"146 -711 OFFCURVE",
"146 -642 CURVE SMOOTH",
"146 -572 OFFCURVE",
"89 -516 OFFCURVE",
"20 -516 CURVE SMOOTH",
"-49 -516 OFFCURVE",
"-106 -572 OFFCURVE",
"-106 -642 CURVE SMOOTH",
"-106 -711 OFFCURVE",
"-49 -767 OFFCURVE",
"20 -767 CURVE SMOOTH"
);
},
{
closed = 1;
nodes = (
"-85 -487 OFFCURVE",
"-18 -419 OFFCURVE",
"-18 -336 CURVE SMOOTH",
"-18 -253 OFFCURVE",
"-85 -186 OFFCURVE",
"-168 -186 CURVE SMOOTH",
"-251 -186 OFFCURVE",
"-319 -253 OFFCURVE",
"-319 -336 CURVE SMOOTH",
"-319 -419 OFFCURVE",
"-251 -487 OFFCURVE",
"-168 -487 CURVE SMOOTH"
);
}
);
width = 0;
}
);
},
{
glyphname = uni0660;
lastChange = "2015-05-23 20:49:39 +0000";
layers = (
{
layerId = "9E57200A-6CEB-4B70-98B9-A6ACB8F2607D";
name = Bold;
paths = (
{
closed = 1;
nodes = (
"520 365 OFFCURVE",
"627 472 OFFCURVE",
"627 603 CURVE SMOOTH",
"627 734 OFFCURVE",
"520 841 OFFCURVE",
"389 841 CURVE SMOOTH",
"258 841 OFFCURVE",
"151 734 OFFCURVE",
"151 603 CURVE SMOOTH",
"151 472 OFFCURVE",
"258 365 OFFCURVE",
"389 365 CURVE SMOOTH"
);
}
);
width = 776;
}
);
unicode = 0660;
},
{
glyphname = uni0661;
lastChange = "2015-05-23 20:49:50 +0000";
layers = (
{
layerId = "9E57200A-6CEB-4B70-98B9-A6ACB8F2607D";
name = Bold;
paths = (
{
closed = 1;
nodes = (
"510 0 OFFCURVE",
"550 124 OFFCURVE",
"550 192 CURVE SMOOTH",
"550 1192 LINE SMOOTH",
"550 1262 OFFCURVE",
"525 1312 OFFCURVE",
"477 1346 CURVE SMOOTH",
"444 1369 OFFCURVE",
"416 1383 OFFCURVE",
"385 1383 CURVE SMOOTH",
"370 1383 OFFCURVE",
"354 1379 OFFCURVE",
"337 1371 CURVE SMOOTH",
"297 1351 OFFCURVE",
"144 1274 OFFCURVE",
"135 1268 CURVE SMOOTH",
"130 1265 OFFCURVE",
"128 1261 OFFCURVE",
"128 1257 CURVE SMOOTH",
"128 1253 OFFCURVE",
"130 1248 OFFCURVE",
"131 1243 CURVE",
"131 1241 OFFCURVE",
"137 1232 OFFCURVE",
"152 1217 CURVE SMOOTH",
"167 1203 OFFCURVE",
"205 1156 OFFCURVE",
"205 1011 CURVE SMOOTH",
"204 192 LINE SMOOTH",
"204 124 OFFCURVE",
"244 0 OFFCURVE",
"376 0 CURVE SMOOTH"
);
}
);
width = 766;
}
);
unicode = 0661;
},
{
glyphname = uni0662;
lastChange = "2015-05-23 20:49:50 +0000";
layers = (
{
layerId = "9E57200A-6CEB-4B70-98B9-A6ACB8F2607D";
name = Bold;
paths = (
{
closed = 1;
nodes = (
"476 0 OFFCURVE",
"516 124 OFFCURVE",
"516 192 CURVE SMOOTH",
"516 193 OFFCURVE",
"516 783 OFFCURVE",
"516 1056 CURVE",
"949 1032 LINE SMOOTH",
"997 1032 OFFCURVE",
"1033 1050 OFFCURVE",
"1054 1088 CURVE SMOOTH",
"1075 1126 OFFCURVE",
"1085 1166 OFFCURVE",
"1085 1208 CURVE",
"1088 1249 OFFCURVE",
"1077 1289 OFFCURVE",
"1054 1327 CURVE SMOOTH",
"1031 1365 OFFCURVE",
"995 1384 OFFCURVE",
"947 1384 CURVE SMOOTH",
"347 1384 LINE SMOOTH",
"333 1384 OFFCURVE",
"317 1380 OFFCURVE",
"301 1371 CURVE",
"261 1351 OFFCURVE",
"107 1274 OFFCURVE",
"99 1268 CURVE SMOOTH",
"94 1264 OFFCURVE",
"92 1261 OFFCURVE",
"92 1256 CURVE SMOOTH",
"92 1252 OFFCURVE",
"93 1248 OFFCURVE",
"95 1243 CURVE",
"95 1241 OFFCURVE",
"100 1233 OFFCURVE",
"116 1217 CURVE SMOOTH",
"130 1203 OFFCURVE",
"168 1143 OFFCURVE",
"168 1011 CURVE SMOOTH",
"168 192 LINE SMOOTH",
"168 124 OFFCURVE",
"207 0 OFFCURVE",
"340 0 CURVE SMOOTH"
);
}
);
width = 1126;
}
);
unicode = 0662;
},
{
glyphname = uni0663;
lastChange = "2015-05-23 20:49:50 +0000";
layers = (
{
layerId = "9E57200A-6CEB-4B70-98B9-A6ACB8F2607D";
name = Bold;
paths = (
{
closed = 1;
nodes = (
"480 0 OFFCURVE",
"517 124 OFFCURVE",
"517 192 CURVE SMOOTH",
"517 782 LINE",
"534 779 OFFCURVE",
"552 777 OFFCURVE",
"570 777 CURVE SMOOTH",
"666 777 OFFCURVE",
"738 832 OFFCURVE",
"756 849 CURVE",
"823 801 OFFCURVE",
"893 777 OFFCURVE",
"961 777 CURVE SMOOTH",
"1264 777 OFFCURVE",
"1292 1156 OFFCURVE",
"1292 1263 CURVE SMOOTH",
"1292 1329 OFFCURVE",
"1238 1383 OFFCURVE",
"1172 1383 CURVE SMOOTH",
"1106 1383 OFFCURVE",
"1052 1329 OFFCURVE",
"1052 1263 CURVE SMOOTH",
"1052 1101 OFFCURVE",
"1005 1035 OFFCURVE",
"978 1020 CURVE SMOOTH",
"974 1018 OFFCURVE",
"970 1017 OFFCURVE",
"965 1017 CURVE SMOOTH",
"934 1017 OFFCURVE",
"881 1053 OFFCURVE",
"876 1056 CURVE",
"892 1117 OFFCURVE",
"900 1187 OFFCURVE",
"900 1263 CURVE SMOOTH",
"900 1329 OFFCURVE",
"847 1383 OFFCURVE",
"781 1383 CURVE SMOOTH",
"715 1383 OFFCURVE",
"661 1329 OFFCURVE",
"661 1263 CURVE SMOOTH",
"661 1101 OFFCURVE",
"614 1035 OFFCURVE",
"587 1020 CURVE",
"582 1017 OFFCURVE",
"576 1016 OFFCURVE",
"569 1016 CURVE SMOOTH",
"550 1016 OFFCURVE",
"527 1027 OFFCURVE",
"512 1037 CURVE",
"512 1068 OFFCURVE",
"512 1096 OFFCURVE",
"512 1119 CURVE SMOOTH",
"512 1164 OFFCURVE",
"512 1192 OFFCURVE",
"512 1192 CURVE",
"512 1262 OFFCURVE",
"487 1313 OFFCURVE",
"439 1346 CURVE SMOOTH",
"407 1369 OFFCURVE",
"378 1383 OFFCURVE",
"347 1383 CURVE SMOOTH",
"332 1383 OFFCURVE",
"316 1379 OFFCURVE",
"299 1371 CURVE SMOOTH",
"259 1352 OFFCURVE",
"105 1275 OFFCURVE",
"97 1268 CURVE",
"92 1264 OFFCURVE",
"90 1261 OFFCURVE",
"90 1256 CURVE SMOOTH",
"90 1252 OFFCURVE",
"91 1248 OFFCURVE",
"93 1243 CURVE",
"94 1241 OFFCURVE",
"99 1232 OFFCURVE",
"114 1218 CURVE SMOOTH",
"129 1203 OFFCURVE",
"167 1158 OFFCURVE",
"167 1011 CURVE SMOOTH",
"167 192 LINE SMOOTH",
"167 124 OFFCURVE",
"208 0 OFFCURVE",
"338 0 CURVE SMOOTH"
);
}
);
width = 1345;
}
);
unicode = 0663;
},
{
glyphname = uni0664;
lastChange = "2015-05-23 20:49:50 +0000";
layers = (
{
layerId = "9E57200A-6CEB-4B70-98B9-A6ACB8F2607D";
name = Bold;
paths = (
{
closed = 1;
nodes = (
"918 -20 OFFCURVE",
"996 101 OFFCURVE",
"996 230 CURVE SMOOTH",
"996 307 OFFCURVE",
"956 346 OFFCURVE",
"938 356 CURVE",
"924 363 OFFCURVE",
"883 312 OFFCURVE",
"779 311 CURVE SMOOTH",
"599 311 OFFCURVE",
"490 422 OFFCURVE",
"486 426 CURVE",
"745 587 LINE SMOOTH",
"780 609 OFFCURVE",
"801 647 OFFCURVE",
"801 689 CURVE SMOOTH",
"801 723 OFFCURVE",
"787 755 OFFCURVE",
"760 779 CURVE SMOOTH",
"503 1004 LINE",
"535 1031 OFFCURVE",
"630 1104 OFFCURVE",
"779 1104 CURVE SMOOTH",
"883 1104 OFFCURVE",
"924 1051 OFFCURVE",
"938 1059 CURVE SMOOTH",
"984 1086 OFFCURVE",
"996 1151 OFFCURVE",
"996 1185 CURVE SMOOTH",
"996 1311 OFFCURVE",
"918 1435 OFFCURVE",
"720 1435 CURVE SMOOTH",
"546 1435 OFFCURVE",
"300 1315 OFFCURVE",
"198 1070 CURVE SMOOTH",
"191 1052 OFFCURVE",
"187 1033 OFFCURVE",
"187 1015 CURVE SMOOTH",
"187 982 OFFCURVE",
"199 950 OFFCURVE",
"227 927 CURVE SMOOTH",
"481 704 LINE",
"231 549 LINE SMOOTH",
"194 526 OFFCURVE",
"175 486 OFFCURVE",
"175 445 CURVE SMOOTH",
"175 433 OFFCURVE",
"177 421 OFFCURVE",
"180 409 CURVE SMOOTH",
"260 116 OFFCURVE",
"531 -20 OFFCURVE",
"720 -20 CURVE SMOOTH"
);
}
);
width = 1067;
}
);
unicode = 0664;
},
{
glyphname = uni0665;
lastChange = "2015-05-23 20:49:51 +0000";
layers = (
{
layerId = "9E57200A-6CEB-4B70-98B9-A6ACB8F2607D";
name = Bold;
paths = (
{
closed = 1;
nodes = (
"980 -20 OFFCURVE",
"1047 261 OFFCURVE",
"1065 347 CURVE SMOOTH",
"1078 408 OFFCURVE",
"1086 491 OFFCURVE",
"1086 583 CURVE SMOOTH",
"1086 925 OFFCURVE",
"977 1400 OFFCURVE",
"609 1400 CURVE SMOOTH",
"240 1400 OFFCURVE",
"131 925 OFFCURVE",
"131 583 CURVE SMOOTH",
"131 491 OFFCURVE",
"139 408 OFFCURVE",
"152 347 CURVE SMOOTH",
"170 261 OFFCURVE",
"238 -20 OFFCURVE",
"609 -20 CURVE SMOOTH"
);
},
{
closed = 1;
nodes = (
"502 317 OFFCURVE",
"460 488 OFFCURVE",
"460 668 CURVE SMOOTH",
"460 890 OFFCURVE",
"524 1126 OFFCURVE",
"609 1126 CURVE SMOOTH",
"693 1126 OFFCURVE",
"756 891 OFFCURVE",
"756 669 CURVE SMOOTH",
"756 488 OFFCURVE",
"714 317 OFFCURVE",
"609 288 CURVE"
);
}
);
width = 1218;
}
);
unicode = 0665;
},
{
glyphname = uni0666;
lastChange = "2015-05-23 20:49:51 +0000";
layers = (
{
layerId = "9E57200A-6CEB-4B70-98B9-A6ACB8F2607D";
name = Bold;
paths = (
{
closed = 1;
nodes = (
"879 0 OFFCURVE",
"918 124 OFFCURVE",
"918 192 CURVE SMOOTH",
"918 1011 LINE SMOOTH",
"918 1143 OFFCURVE",
"956 1203 OFFCURVE",
"970 1217 CURVE SMOOTH",
"986 1233 OFFCURVE",
"991 1241 OFFCURVE",
"991 1243 CURVE",
"993 1248 OFFCURVE",
"994 1252 OFFCURVE",
"994 1256 CURVE SMOOTH",
"994 1261 OFFCURVE",
"992 1264 OFFCURVE",
"987 1268 CURVE SMOOTH",
"979 1274 OFFCURVE",
"825 1351 OFFCURVE",
"785 1371 CURVE",
"769 1380 OFFCURVE",
"753 1384 OFFCURVE",
"739 1384 CURVE SMOOTH",
"139 1384 LINE SMOOTH",
"91 1384 OFFCURVE",
"55 1365 OFFCURVE",
"32 1327 CURVE SMOOTH",
"9 1289 OFFCURVE",
"-2 1249 OFFCURVE",
"1 1208 CURVE",
"1 1166 OFFCURVE",
"11 1126 OFFCURVE",
"32 1088 CURVE SMOOTH",
"53 1050 OFFCURVE",
"89 1032 OFFCURVE",
"137 1032 CURVE SMOOTH",
"142 1032 OFFCURVE",
"570 1056 OFFCURVE",
"570 1056 CURVE",
"570 192 LINE SMOOTH",
"570 124 OFFCURVE",
"610 0 OFFCURVE",
"746 0 CURVE SMOOTH"
);
}
);
width = 1126;
}
);
unicode = 0666;
},
{
glyphname = uni0667;
lastChange = "2015-05-23 20:49:50 +0000";
layers = (
{
layerId = "9E57200A-6CEB-4B70-98B9-A6ACB8F2607D";
name = Bold;
paths = (
{
closed = 1;
nodes = (
"602 0 LINE SMOOTH",
"628 0 OFFCURVE",
"662 4 OFFCURVE",
"698 13 CURVE SMOOTH",
"1012 100 OFFCURVE",
"1146 549 OFFCURVE",
"1146 903 CURVE SMOOTH",
"1146 1020 OFFCURVE",
"1131 1126 OFFCURVE",
"1104 1206 CURVE SMOOTH",
"1060 1335 OFFCURVE",
"962 1367 OFFCURVE",
"951 1370 CURVE",
"925 1381 OFFCURVE",
"898 1386 OFFCURVE",
"873 1386 CURVE SMOOTH",
"847 1386 OFFCURVE",
"823 1380 OFFCURVE",
"803 1370 CURVE",
"802 1370 OFFCURVE",
"764 1352 OFFCURVE",
"749 1322 CURVE",
"747 1317 OFFCURVE",
"756 1297 OFFCURVE",
"770 1272 CURVE SMOOTH",
"802 1210 OFFCURVE",
"836 1122 OFFCURVE",
"836 964 CURVE SMOOTH",
"836 916 OFFCURVE",
"833 862 OFFCURVE",
"826 800 CURVE SMOOTH",
"815 706 OFFCURVE",
"775 398 OFFCURVE",
"593 306 CURVE",
"411 398 OFFCURVE",
"372 706 OFFCURVE",
"361 800 CURVE SMOOTH",
"354 862 OFFCURVE",
"351 916 OFFCURVE",
"351 964 CURVE SMOOTH",
"351 1122 OFFCURVE",
"385 1210 OFFCURVE",
"417 1272 CURVE SMOOTH",
"431 1297 OFFCURVE",
"440 1317 OFFCURVE",
"438 1322 CURVE",
"423 1352 OFFCURVE",
"385 1370 OFFCURVE",
"384 1370 CURVE",
"364 1380 OFFCURVE",
"340 1386 OFFCURVE",
"314 1386 CURVE SMOOTH",
"289 1386 OFFCURVE",
"262 1381 OFFCURVE",
"236 1370 CURVE",
"224 1367 OFFCURVE",
"127 1335 OFFCURVE",
"83 1206 CURVE SMOOTH",
"56 1126 OFFCURVE",
"41 1020 OFFCURVE",
"41 903 CURVE SMOOTH",
"41 549 OFFCURVE",
"175 100 OFFCURVE",
"489 13 CURVE SMOOTH",
"525 4 OFFCURVE",
"559 0 OFFCURVE",
"585 0 CURVE SMOOTH"
);
}
);
width = 1186;
}
);
unicode = 0667;
},
{
glyphname = uni0668;
lastChange = "2015-05-23 20:49:50 +0000";
layers = (
{
layerId = "9E57200A-6CEB-4B70-98B9-A6ACB8F2607D";
name = Bold;
paths = (
{
closed = 1;
nodes = (
"261 5 OFFCURVE",
"288 0 OFFCURVE",
"313 0 CURVE SMOOTH",
"339 0 OFFCURVE",
"363 6 OFFCURVE",
"383 16 CURVE",
"384 16 OFFCURVE",
"422 34 OFFCURVE",
"437 64 CURVE",
"439 69 OFFCURVE",
"430 89 OFFCURVE",
"416 114 CURVE SMOOTH",
"384 176 OFFCURVE",
"350 264 OFFCURVE",
"350 422 CURVE SMOOTH",
"350 470 OFFCURVE",
"353 524 OFFCURVE",
"360 586 CURVE SMOOTH",
"371 680 OFFCURVE",
"411 988 OFFCURVE",
"593 1080 CURVE",
"775 988 OFFCURVE",
"814 680 OFFCURVE",
"825 586 CURVE SMOOTH",
"832 524 OFFCURVE",
"835 470 OFFCURVE",
"835 422 CURVE SMOOTH",
"835 264 OFFCURVE",
"801 176 OFFCURVE",
"769 114 CURVE SMOOTH",
"755 89 OFFCURVE",
"746 69 OFFCURVE",
"748 64 CURVE",
"763 34 OFFCURVE",
"801 16 OFFCURVE",
"802 16 CURVE",
"822 6 OFFCURVE",
"846 0 OFFCURVE",
"872 0 CURVE SMOOTH",
"897 0 OFFCURVE",
"924 5 OFFCURVE",
"950 16 CURVE",
"962 19 OFFCURVE",
"1060 51 OFFCURVE",
"1104 180 CURVE SMOOTH",
"1131 260 OFFCURVE",
"1146 366 OFFCURVE",
"1146 483 CURVE SMOOTH",
"1146 837 OFFCURVE",
"1012 1286 OFFCURVE",
"697 1373 CURVE SMOOTH",
"661 1382 OFFCURVE",
"627 1386 OFFCURVE",
"601 1386 CURVE SMOOTH",
"584 1386 LINE SMOOTH",
"558 1386 OFFCURVE",
"524 1382 OFFCURVE",
"488 1373 CURVE SMOOTH",
"174 1286 OFFCURVE",
"40 837 OFFCURVE",
"40 483 CURVE SMOOTH",
"40 366 OFFCURVE",
"55 260 OFFCURVE",
"82 180 CURVE SMOOTH",
"126 51 OFFCURVE",
"224 19 OFFCURVE",
"235 16 CURVE"
);
}
);
width = 1186;
}
);
unicode = 0668;
},
{
glyphname = uni0669;
lastChange = "2015-05-23 20:49:51 +0000";
layers = (
{
layerId = "9E57200A-6CEB-4B70-98B9-A6ACB8F2607D";
name = Bold;
paths = (
{
closed = 1;
nodes = (
"985 0 OFFCURVE",
"1023 124 OFFCURVE",
"1023 192 CURVE SMOOTH",
"1023 1011 LINE SMOOTH",
"1023 1157 OFFCURVE",
"1061 1203 OFFCURVE",
"1076 1218 CURVE SMOOTH",
"1091 1232 OFFCURVE",
"1096 1241 OFFCURVE",
"1097 1243 CURVE",
"1098 1248 OFFCURVE",
"1099 1252 OFFCURVE",
"1099 1256 CURVE SMOOTH",
"1099 1261 OFFCURVE",
"1098 1265 OFFCURVE",
"1093 1268 CURVE SMOOTH",
"1084 1275 OFFCURVE",
"930 1352 OFFCURVE",
"890 1371 CURVE",
"874 1379 OFFCURVE",
"858 1383 OFFCURVE",
"843 1383 CURVE SMOOTH",
"817 1383 OFFCURVE",
"791 1372 OFFCURVE",
"765 1356 CURVE",
"699 1385 OFFCURVE",
"624 1401 OFFCURVE",
"541 1401 CURVE SMOOTH",
"503 1401 OFFCURVE",
"67 1387 OFFCURVE",
"67 982 CURVE SMOOTH",
"67 902 OFFCURVE",
"128 620 OFFCURVE",
"461 620 CURVE SMOOTH",
"525 620 OFFCURVE",
"595 632 OFFCURVE",
"672 658 CURVE",
"671 556 OFFCURVE",
"670 456 OFFCURVE",
"670 375 CURVE SMOOTH",
"670 267 OFFCURVE",
"671 193 OFFCURVE",
"671 192 CURVE SMOOTH",
"671 124 OFFCURVE",
"710 0 OFFCURVE",
"853 0 CURVE SMOOTH"
);
},
{
closed = 1;
nodes = (
"631 823 OFFCURVE",
"595 818 OFFCURVE",
"564 818 CURVE SMOOTH",
"470 818 OFFCURVE",
"410 862 OFFCURVE",
"410 955 CURVE SMOOTH",
"410 1120 OFFCURVE",
"478 1148 OFFCURVE",
"520 1148 CURVE SMOOTH",
"599 1148 OFFCURVE",
"672 1140 OFFCURVE",
"672 835 CURVE",
"669 833 LINE"
);
}
);
width = 1229;
}
);
unicode = 0669;
},
{
glyphname = uni06F4;
lastChange = "2015-05-23 20:49:50 +0000";
layers = (
{
layerId = "9E57200A-6CEB-4B70-98B9-A6ACB8F2607D";
name = Bold;
paths = (
{
closed = 1;
nodes = (
"347 0 LINE SMOOTH",
"488 0 OFFCURVE",
"527 124 OFFCURVE",
"527 192 CURVE SMOOTH",
"527 193 OFFCURVE",
"528 295 OFFCURVE",
"528 434 CURVE SMOOTH",
"528 539 OFFCURVE",
"527 664 OFFCURVE",
"526 782 CURVE",
"543 779 OFFCURVE",
"684 741 OFFCURVE",
"805 741 CURVE SMOOTH",
"1071 741 OFFCURVE",
"1217 904 OFFCURVE",
"1253 987 CURVE SMOOTH",
"1284 1063 OFFCURVE",
"1301 1128 OFFCURVE",
"1301 1235 CURVE SMOOTH",
"1301 1301 OFFCURVE",
"1247 1355 OFFCURVE",
"1181 1355 CURVE SMOOTH",
"1115 1355 OFFCURVE",
"1061 1301 OFFCURVE",
"1061 1235 CURVE SMOOTH",
"1061 1104 OFFCURVE",
"1024 1027 OFFCURVE",
"963 988 CURVE",
"963 988 OFFCURVE",
"759 1017 OFFCURVE",
"759 1192 CURVE SMOOTH",
"759 1221 OFFCURVE",
"765 1258 OFFCURVE",
"791 1273 CURVE SMOOTH",
"800 1279 OFFCURVE",
"811 1281 OFFCURVE",
"823 1281 CURVE SMOOTH",
"837 1281 OFFCURVE",
"852 1278 OFFCURVE",
"866 1270 CURVE SMOOTH",
"879 1263 OFFCURVE",
"892 1260 OFFCURVE",
"905 1260 CURVE SMOOTH",
"934 1260 OFFCURVE",
"963 1276 OFFCURVE",
"977 1303 CURVE SMOOTH",
"984 1316 OFFCURVE",
"987 1329 OFFCURVE",
"987 1342 CURVE SMOOTH",
"987 1372 OFFCURVE",
"971 1400 OFFCURVE",
"944 1415 CURVE SMOOTH",
"906 1436 OFFCURVE",
"864 1446 OFFCURVE",
"823 1446 CURVE SMOOTH",
"782 1446 OFFCURVE",
"742 1436 OFFCURVE",
"707 1415 CURVE SMOOTH",
"672 1394 OFFCURVE",
"644 1362 OFFCURVE",
"625 1325 CURVE SMOOTH",
"605 1287 OFFCURVE",
"596 1242 OFFCURVE",
"596 1192 CURVE SMOOTH",
"596 1104 OFFCURVE",
"619 1032 OFFCURVE",
"663 976 CURVE",
"618 986 OFFCURVE",
"570 1000 OFFCURVE",
"523 1015 CURVE",
"521 1192 LINE",
"521 1262 OFFCURVE",
"496 1313 OFFCURVE",
"448 1346 CURVE SMOOTH",
"416 1369 OFFCURVE",
"387 1384 OFFCURVE",
"357 1384 CURVE SMOOTH",
"341 1384 OFFCURVE",
"325 1380 OFFCURVE",
"308 1371 CURVE SMOOTH",
"268 1352 OFFCURVE",
"114 1275 OFFCURVE",
"106 1268 CURVE",
"101 1264 OFFCURVE",
"99 1261 OFFCURVE",
"99 1256 CURVE SMOOTH",
"99 1252 OFFCURVE",
"100 1248 OFFCURVE",
"102 1243 CURVE",
"103 1241 OFFCURVE",
"108 1232 OFFCURVE",
"123 1218 CURVE SMOOTH",
"138 1203 OFFCURVE",
"176 1145 OFFCURVE",
"176 1011 CURVE SMOOTH",
"175 192 LINE SMOOTH",
"175 124 OFFCURVE",
"217 0 OFFCURVE",
"345 0 CURVE SMOOTH"
);
}
);
width = 1367;
}
);
unicode = 06F4;
},
{
glyphname = uni06F5;
lastChange = "2015-05-23 20:49:51 +0000";
layers = (
{
layerId = "9E57200A-6CEB-4B70-98B9-A6ACB8F2607D";
name = Bold;
paths = (
{
closed = 1;
nodes = (
"610 22 OFFCURVE",
"663 -18 OFFCURVE",
"734 -18 CURVE SMOOTH",
"876 -18 OFFCURVE",
"1088 142 OFFCURVE",
"1088 582 CURVE SMOOTH",
"1088 1138 OFFCURVE",
"870 1406 OFFCURVE",
"610 1406 CURVE SMOOTH",
"350 1406 OFFCURVE",
"133 1138 OFFCURVE",
"133 582 CURVE SMOOTH",
"133 142 OFFCURVE",
"345 -18 OFFCURVE",
"486 -18 CURVE SMOOTH",
"557 -18 OFFCURVE",
"610 22 OFFCURVE",
"610 87 CURVE"
);
},
{
closed = 1;
nodes = (
"531 357 OFFCURVE",
"462 447 OFFCURVE",
"462 672 CURVE SMOOTH",
"462 937 OFFCURVE",
"541 1132 OFFCURVE",
"610 1132 CURVE SMOOTH",
"680 1132 OFFCURVE",
"759 937 OFFCURVE",
"759 672 CURVE SMOOTH",
"759 447 OFFCURVE",
"690 357 OFFCURVE",
"690 357 CURVE",
"690 529 LINE",
"531 529 LINE",
"531 357 LINE"
);
}
);
width = 1221;
}
);
unicode = 06F5;
},
{
glyphname = uni06F6;
lastChange = "2015-05-23 20:49:51 +0000";
layers = (
{
layerId = "9E57200A-6CEB-4B70-98B9-A6ACB8F2607D";
name = Bold;
paths = (
{
closed = 1;
nodes = (
"422 0 OFFCURVE",
"469 28 OFFCURVE",
"492 75 CURVE SMOOTH",
"529 152 OFFCURVE",
"576 225 OFFCURVE",
"632 291 CURVE SMOOTH",
"701 373 OFFCURVE",
"784 446 OFFCURVE",
"879 506 CURVE SMOOTH",
"919 532 OFFCURVE",
"940 575 OFFCURVE",
"940 619 CURVE SMOOTH",
"940 644 OFFCURVE",
"933 669 OFFCURVE",
"919 691 CURVE SMOOTH",
"894 730 OFFCURVE",
"851 752 OFFCURVE",
"807 752 CURVE SMOOTH",
"783 752 OFFCURVE",
"758 745 OFFCURVE",
"736 731 CURVE SMOOTH",
"688 700 OFFCURVE",
"643 668 OFFCURVE",
"601 632 CURVE",
"585 643 OFFCURVE",
"572 654 OFFCURVE",
"562 668 CURVE SMOOTH",
"522 721 OFFCURVE",
"474 847 OFFCURVE",
"474 963 CURVE SMOOTH",
"474 1065 OFFCURVE",
"510 1160 OFFCURVE",
"621 1195 CURVE",
"745 1158 OFFCURVE",
"778 1080 OFFCURVE",
"778 1001 CURVE",
"806 978 OFFCURVE",
"839 967 OFFCURVE",
"885 967 CURVE SMOOTH",
"976 967 OFFCURVE",
"1013 999 OFFCURVE",
"1035 1082 CURVE SMOOTH",
"1041 1104 OFFCURVE",
"1044 1125 OFFCURVE",
"1044 1146 CURVE SMOOTH",
"1044 1220 OFFCURVE",
"1004 1284 OFFCURVE",
"929 1324 CURVE SMOOTH",
"838 1372 OFFCURVE",
"743 1398 OFFCURVE",
"646 1398 CURVE SMOOTH",
"590 1398 OFFCURVE",
"533 1389 OFFCURVE",
"475 1371 CURVE SMOOTH",
"285 1310 OFFCURVE",
"145 1141 OFFCURVE",
"132 954 CURVE",
"131 950 OFFCURVE",
"131 945 OFFCURVE",
"132 941 CURVE",
"131 941 LINE",
"131 707 OFFCURVE",
"318 555 OFFCURVE",
"456 495 CURVE",
"428 462 LINE SMOOTH",
"358 379 OFFCURVE",
"299 288 OFFCURVE",
"252 191 CURVE SMOOTH",
"243 172 OFFCURVE",
"239 153 OFFCURVE",
"239 133 CURVE SMOOTH",
"239 84 OFFCURVE",
"267 36 OFFCURVE",
"315 13 CURVE SMOOTH",
"333 4 OFFCURVE",
"353 0 OFFCURVE",
"372 0 CURVE SMOOTH"
);
}
);
width = 1140;
}
);
unicode = 06F6;
},
{
glyphname = uni06C1.init;
lastChange = "2015-05-23 21:55:42 +0000";
layers = (
{
anchors = (
{
name = bottom;
position = "{397, -607}";
},
{
name = top;
position = "{397, 1228}";
}
);
layerId = "9E57200A-6CEB-4B70-98B9-A6ACB8F2607D";
name = Bold;
paths = (
{
closed = 1;
nodes = (
"621 -460 LINE",
"621 -245 LINE",
"374 -245 LINE SMOOTH",
"340 -245 OFFCURVE",
"297 -202 OFFCURVE",
"297 -162 CURVE SMOOTH",
"297 -123 OFFCURVE",
"306 -66 OFFCURVE",
"361 22 CURVE",
"588 96 OFFCURVE",
"695 349 OFFCURVE",
"695 605 CURVE SMOOTH",
"695 889 OFFCURVE",
"589 1053 OFFCURVE",
"411 1053 CURVE SMOOTH",
"272 1053 OFFCURVE",
"210 972 OFFCURVE",
"210 919 CURVE SMOOTH",
"210 915 OFFCURVE",
"217 909 OFFCURVE",
"217 909 CURVE",
"333 833 OFFCURVE",
"377 753 OFFCURVE",
"377 534 CURVE SMOOTH",
"377 314 OFFCURVE",
"301 226 OFFCURVE",
"214 226 CURVE SMOOTH",
"-35 226 LINE SMOOTH",
"-38 226 OFFCURVE",
"-40 224 OFFCURVE",
"-40 220 CURVE SMOOTH",
"-40 6 LINE SMOOTH",
"-40 2 OFFCURVE",
"-38 0 OFFCURVE",
"-35 0 CURVE SMOOTH",
"169 0 LINE",
"138 -62 OFFCURVE",
"119 -118 OFFCURVE",
"119 -173 CURVE SMOOTH",
"119 -300 OFFCURVE",
"158 -460 OFFCURVE",
"374 -460 CURVE SMOOTH"
);
}
);
width = 881;
}
);
unicode = FBA8;
},
{
glyphname = uni06C1.medi;
lastChange = "2015-05-23 21:55:49 +0000";
layers = (
{
anchors = (
{
name = bottom;
position = "{638, -784}";
},
{
name = top;
position = "{638, 835}";
}
);
layerId = "9E57200A-6CEB-4B70-98B9-A6ACB8F2607D";
name = Bold;
paths = (
{
closed = 1;
nodes = (
"999 -571 OFFCURVE",
"1049 -521 OFFCURVE",
"1049 -458 CURVE SMOOTH",
"1049 0 LINE",
"1213 0 LINE SMOOTH",
"1217 0 OFFCURVE",
"1220 3 OFFCURVE",
"1220 6 CURVE SMOOTH",
"1220 219 LINE SMOOTH",
"1220 222 OFFCURVE",
"1217 226 OFFCURVE",
"1213 226 CURVE SMOOTH",
"847 226 LINE SMOOTH",
"785 226 OFFCURVE",
"735 176 OFFCURVE",
"735 114 CURVE SMOOTH",
"735 -341 LINE",
"609 -329 OFFCURVE",
"518 -295 OFFCURVE",
"459 -238 CURVE SMOOTH",
"388 -169 OFFCURVE",
"353 -54 OFFCURVE",
"353 113 CURVE SMOOTH",
"353 175 OFFCURVE",
"303 226 OFFCURVE",
"241 226 CURVE SMOOTH",
"-34 226 LINE SMOOTH",
"-37 226 OFFCURVE",
"-40 222 OFFCURVE",
"-40 219 CURVE SMOOTH",
"-40 6 LINE SMOOTH",
"-40 3 OFFCURVE",
"-37 0 OFFCURVE",
"-34 0 CURVE SMOOTH",
"133 0 LINE",
"149 -174 OFFCURVE",
"205 -306 OFFCURVE",
"303 -400 CURVE SMOOTH",
"422 -516 OFFCURVE",
"689 -571 OFFCURVE",
"936 -571 CURVE SMOOTH"
);
}
);
width = 1180;
}
);
unicode = FBA9;
},
{
glyphname = uni06BE;
lastChange = "2015-05-23 20:49:50 +0000";
layers = (
{
anchors = (
{
name = bottom;
position = "{870, -120}";
},
{
name = top;
position = "{870, 1510}";
}
);
layerId = "9E57200A-6CEB-4B70-98B9-A6ACB8F2607D";
name = Bold;
paths = (
{
closed = 1;
nodes = (
"206 0 LINE SMOOTH",
"443 0 OFFCURVE",
"551 0 OFFCURVE",
"652 51 CURVE",
"750 10 OFFCURVE",
"861 0 OFFCURVE",
"999 0 CURVE SMOOTH",
"1300 0 OFFCURVE",
"1530 228 OFFCURVE",
"1530 682 CURVE SMOOTH",
"1530 1204 OFFCURVE",
"1202 1314 OFFCURVE",
"982 1314 CURVE SMOOTH",
"958 1314 OFFCURVE",
"856 1305 OFFCURVE",
"749 1305 CURVE SMOOTH",
"628 1305 OFFCURVE",
"499 1317 OFFCURVE",
"468 1366 CURVE SMOOTH",
"452 1393 OFFCURVE",
"434 1398 OFFCURVE",
"421 1398 CURVE SMOOTH",
"416 1398 OFFCURVE",
"411 1397 OFFCURVE",
"408 1396 CURVE SMOOTH",
"377 1383 OFFCURVE",
"363 1359 OFFCURVE",
"363 1316 CURVE SMOOTH",
"363 1195 OFFCURVE",
"438 1088 OFFCURVE",
"591 1088 CURVE SMOOTH",
"639 1088 OFFCURVE",
"720 1101 OFFCURVE",
"807 1101 CURVE SMOOTH",
"996 1101 OFFCURVE",
"1218 1041 OFFCURVE",
"1218 662 CURVE SMOOTH",
"1218 236 OFFCURVE",
"1041 155 OFFCURVE",
"915 155 CURVE SMOOTH",
"877 155 OFFCURVE",
"844 163 OFFCURVE",
"822 170 CURVE",
"863 223 OFFCURVE",
"895 380 OFFCURVE",
"895 514 CURVE SMOOTH",
"895 860 OFFCURVE",
"712 905 OFFCURVE",
"631 905 CURVE SMOOTH",
"575 905 OFFCURVE",
"374 847 OFFCURVE",
"374 520 CURVE SMOOTH",
"374 396 OFFCURVE",
"416 245 OFFCURVE",
"485 168 CURVE",
"333 168 OFFCURVE",
"239 226 OFFCURVE",
"239 226 CURVE SMOOTH",
"133 226 LINE",
"133 0 LINE"
);
},
{
closed = 1;
nodes = (
"622 241 OFFCURVE",
"563 384 OFFCURVE",
"563 534 CURVE SMOOTH",
"563 667 OFFCURVE",
"611 776 OFFCURVE",
"632 776 CURVE SMOOTH",
"650 776 OFFCURVE",
"708 641 OFFCURVE",
"708 490 CURVE SMOOTH",
"708 357 OFFCURVE",
"656 241 OFFCURVE",
"639 241 CURVE SMOOTH"
);
}
);
width = 1684;
}
);
unicode = 06BE;
},
{
glyphname = uni06D2;
lastChange = "2015-05-23 20:49:38 +0000";
layers = (
{
anchors = (
{
name = bottom;
position = "{779, -710}";
},
{
name = top;
position = "{417, 448}";
}
);
layerId = "9E57200A-6CEB-4B70-98B9-A6ACB8F2607D";
name = Bold;
paths = (
{
closed = 1;
nodes = (
"1676 -604 LINE",
"1676 -379 LINE",
"545 -379 LINE SMOOTH",
"446 -379 OFFCURVE",
"345 -344 OFFCURVE",
"345 -187 CURVE SMOOTH",
"345 -38 OFFCURVE",
"444 0 OFFCURVE",
"545 0 CURVE SMOOTH",
"936 0 LINE SMOOTH",
"1179 0 OFFCURVE",
"1317 242 OFFCURVE",
"1317 343 CURVE SMOOTH",
"1317 645 LINE",
"971 645 LINE",
"971 379 LINE SMOOTH",
"971 280 OFFCURVE",
"930 226 OFFCURVE",
"875 226 CURVE SMOOTH",
"545 226 LINE SMOOTH",
"352 226 OFFCURVE",
"95 112 OFFCURVE",
"95 -187 CURVE SMOOTH",
"95 -499 OFFCURVE",
"347 -604 OFFCURVE",
"545 -604 CURVE SMOOTH"
);
}
);
width = 1379;
}
);
unicode = 06D2;
},
{
glyphname = uni06D2.fina;
lastChange = "2015-05-23 20:49:46 +0000";
layers = (
{
anchors = (
{
name = bottom;
position = "{779, -710}";
},
{
name = top;
position = "{417, 448}";
}
);
layerId = "9E57200A-6CEB-4B70-98B9-A6ACB8F2607D";
name = Bold;
paths = (
{
closed = 1;
nodes = (
"1425 -604 LINE",
"1425 -379 LINE",
"544 -379 LINE SMOOTH",
"493 -379 OFFCURVE",
"446 -370 OFFCURVE",
"410 -341 CURVE SMOOTH",
"374 -313 OFFCURVE",
"349 -265 OFFCURVE",
"344 -189 CURVE",
"349 -113 OFFCURVE",
"374 -66 OFFCURVE",
"410 -38 CURVE SMOOTH",
"445 -10 OFFCURVE",
"492 0 OFFCURVE",
"541 0 CURVE SMOOTH",
"891 0 LINE SMOOTH",
"895 0 OFFCURVE",
"897 2 OFFCURVE",
"897 6 CURVE SMOOTH",
"897 219 LINE SMOOTH",
"897 224 OFFCURVE",
"895 226 OFFCURVE",
"891 226 CURVE SMOOTH",
"545 226 LINE",
"446 219 OFFCURVE",
"337 192 OFFCURVE",
"250 129 CURVE SMOOTH",
"163 65 OFFCURVE",
"100 -34 OFFCURVE",
"92 -183 CURVE",
"92 -193 LINE",
"100 -344 OFFCURVE",
"163 -443 OFFCURVE",
"250 -507 CURVE SMOOTH",
"337 -571 OFFCURVE",
"446 -599 OFFCURVE",
"545 -604 CURVE"
);
}
);
width = 795;
}
);
unicode = FBAF;
},
{
glyphname = uni06A9;
lastChange = "2015-05-23 21:56:24 +0000";
layers = (
{
anchors = (
{
name = bottom;
position = "{949, -120}";
},
{
name = top;
position = "{949, 1837}";
}
);
layerId = "9E57200A-6CEB-4B70-98B9-A6ACB8F2607D";
name = Bold;
paths = (
{
closed = 1;
nodes = (
"1272 0 LINE SMOOTH",
"1475 0 OFFCURVE",
"1725 164 OFFCURVE",
"1725 533 CURVE SMOOTH",
"1725 842 OFFCURVE",
"1430 1057 OFFCURVE",
"1178 1057 CURVE SMOOTH",
"798 1057 LINE",
"798 1284 OFFCURVE",
"1095 1416 OFFCURVE",
"1379 1416 CURVE SMOOTH",
"1513 1416 OFFCURVE",
"1645 1387 OFFCURVE",
"1741 1324 CURVE",
"1761 1335 OFFCURVE",
"1798 1400 OFFCURVE",
"1798 1474 CURVE SMOOTH",
"1798 1587 OFFCURVE",
"1712 1721 OFFCURVE",
"1349 1721 CURVE SMOOTH",
"996 1721 OFFCURVE",
"547 1552 OFFCURVE",
"547 1160 CURVE SMOOTH",
"547 1057 OFFCURVE",
"604 831 OFFCURVE",
"801 831 CURVE SMOOTH",
"986 831 LINE SMOOTH",
"1359 831 OFFCURVE",
"1372 617 OFFCURVE",
"1372 520 CURVE SMOOTH",
"1372 319 OFFCURVE",
"1284 225 OFFCURVE",
"1198 225 CURVE SMOOTH",
"584 226 LINE SMOOTH",
"524 226 OFFCURVE",
"485 279 OFFCURVE",
"485 382 CURVE SMOOTH",
"485 638 LINE",
"484 720 OFFCURVE",
"411 791 OFFCURVE",
"307 791 CURVE SMOOTH",
"219 791 OFFCURVE",
"133 734 OFFCURVE",
"133 642 CURVE",
"133 641 OFFCURVE",
"133 629 OFFCURVE",
"133 610 CURVE SMOOTH",
"133 533 OFFCURVE",
"134 345 OFFCURVE",
"134 343 CURVE SMOOTH",
"134 167 OFFCURVE",
"339 0 OFFCURVE",
"515 0 CURVE SMOOTH"
);
}
);
width = 1898;
}
);
unicode = 06A9;
},
{
glyphname = uni06A9.fina;
lastChange = "2015-05-23 21:56:28 +0000";
layers = (
{
anchors = (
{
name = bottom;
position = "{949, -120}";
},
{
name = top;
position = "{949, 1837}";
}
);
layerId = "9E57200A-6CEB-4B70-98B9-A6ACB8F2607D";
name = Bold;
paths = (
{
closed = 1;
nodes = (
"1272 0 LINE SMOOTH",
"1352 0 OFFCURVE",
"1440 26 OFFCURVE",
"1516 80 CURVE",
"1588 24 OFFCURVE",
"1675 0 OFFCURVE",
"1767 0 CURVE SMOOTH",
"2070 0 LINE SMOOTH",
"2073 0 OFFCURVE",
"2075 2 OFFCURVE",
"2075 6 CURVE SMOOTH",
"2075 220 LINE SMOOTH",
"2075 224 OFFCURVE",
"2073 226 OFFCURVE",
"2070 226 CURVE SMOOTH",
"1649 226 LINE",
"1696 306 OFFCURVE",
"1725 408 OFFCURVE",
"1725 533 CURVE SMOOTH",
"1725 842 OFFCURVE",
"1430 1057 OFFCURVE",
"1178 1057 CURVE SMOOTH",
"797 1057 LINE",
"797 1284 OFFCURVE",
"1094 1416 OFFCURVE",
"1379 1416 CURVE SMOOTH",
"1513 1416 OFFCURVE",
"1645 1387 OFFCURVE",
"1741 1324 CURVE",
"1761 1335 OFFCURVE",
"1798 1400 OFFCURVE",
"1798 1474 CURVE SMOOTH",
"1798 1586 OFFCURVE",
"1712 1721 OFFCURVE",
"1349 1721 CURVE SMOOTH",
"996 1721 OFFCURVE",
"546 1552 OFFCURVE",
"546 1160 CURVE SMOOTH",
"546 1057 OFFCURVE",
"603 831 OFFCURVE",
"800 831 CURVE SMOOTH",
"985 831 LINE SMOOTH",
"1359 831 OFFCURVE",
"1372 617 OFFCURVE",
"1372 520 CURVE SMOOTH",
"1372 319 OFFCURVE",
"1284 225 OFFCURVE",
"1198 225 CURVE SMOOTH",
"584 226 LINE SMOOTH",
"524 226 OFFCURVE",
"485 279 OFFCURVE",
"485 382 CURVE SMOOTH",
"485 638 LINE",
"484 720 OFFCURVE",
"410 791 OFFCURVE",
"307 791 CURVE SMOOTH",
"218 791 OFFCURVE",
"133 734 OFFCURVE",
"133 642 CURVE",
"133 641 OFFCURVE",
"133 629 OFFCURVE",
"133 610 CURVE SMOOTH",
"133 533 OFFCURVE",
"134 345 OFFCURVE",
"134 343 CURVE SMOOTH",
"134 167 OFFCURVE",
"338 0 OFFCURVE",
"515 0 CURVE SMOOTH"
);
}
);
width = 2035;
}
);
unicode = FB8F;
},
{
glyphname = uni06BA;
lastChange = "2015-05-23 21:56:58 +0000";
layers = (
{
anchors = (
{
name = bottom;
position = "{767, -614}";
},
{
name = top;
position = "{767, 1094}";
}
);
layerId = "9E57200A-6CEB-4B70-98B9-A6ACB8F2607D";
name = Bold;
paths = (
{
closed = 1;
nodes = (
"778 -507 LINE SMOOTH",
"1231 -507 OFFCURVE",
"1354 -227 OFFCURVE",
"1356 496 CURVE SMOOTH",
"1357 567 OFFCURVE",
"1357 666 OFFCURVE",
"1357 748 CURVE SMOOTH",
"1357 830 OFFCURVE",
"1357 896 OFFCURVE",
"1357 898 CURVE SMOOTH",
"1357 980 OFFCURVE",
"1286 1053 OFFCURVE",
"1178 1053 CURVE SMOOTH",
"1094 1053 OFFCURVE",
"1004 993 OFFCURVE",
"1004 903 CURVE SMOOTH",
"1004 147 LINE SMOOTH",
"1004 124 OFFCURVE",
"1005 97 OFFCURVE",
"1005 69 CURVE SMOOTH",
"1005 -84 OFFCURVE",
"989 -282 OFFCURVE",
"785 -282 CURVE SMOOTH",
"716 -282 LINE SMOOTH",
"586 -282 OFFCURVE",
"450 -220 OFFCURVE",
"450 -1 CURVE SMOOTH",
"450 220 OFFCURVE",
"493 300 OFFCURVE",
"608 375 CURVE",
"608 375 OFFCURVE",
"616 381 OFFCURVE",
"616 384 CURVE SMOOTH",
"616 438 OFFCURVE",
"546 521 OFFCURVE",
"416 521 CURVE SMOOTH",
"283 521 OFFCURVE",
"132 423 OFFCURVE",
"132 70 CURVE SMOOTH",
"132 -360 OFFCURVE",
"391 -507 OFFCURVE",
"712 -507 CURVE SMOOTH"
);
}
);
width = 1457;
}
);
unicode = 06BA;
},
{
glyphname = uni06BA.fina;
lastChange = "2015-05-23 21:56:59 +0000";
layers = (
{
anchors = (
{
name = bottom;
position = "{767, -598}";
},
{
name = top;
position = "{767, 1110}";
}
);
layerId = "9E57200A-6CEB-4B70-98B9-A6ACB8F2607D";
name = Bold;
paths = (
{
closed = 1;
nodes = (
"780 -505 LINE SMOOTH",
"1132 -505 OFFCURVE",
"1285 -337 OFFCURVE",
"1336 80 CURVE",
"1408 24 OFFCURVE",
"1495 0 OFFCURVE",
"1587 0 CURVE SMOOTH",
"1628 0 LINE SMOOTH",
"1631 0 OFFCURVE",
"1633 2 OFFCURVE",
"1633 6 CURVE SMOOTH",
"1633 220 LINE SMOOTH",
"1633 224 OFFCURVE",
"1631 226 OFFCURVE",
"1628 226 CURVE SMOOTH",
"1350 226 LINE",
"1355 308 OFFCURVE",
"1357 399 OFFCURVE",
"1358 498 CURVE SMOOTH",
"1359 569 OFFCURVE",
"1359 668 OFFCURVE",
"1359 750 CURVE SMOOTH",
"1359 832 OFFCURVE",
"1359 898 OFFCURVE",
"1359 900 CURVE SMOOTH",
"1359 982 OFFCURVE",
"1288 1055 OFFCURVE",
"1180 1055 CURVE SMOOTH",
"1096 1055 OFFCURVE",
"1006 995 OFFCURVE",
"1006 905 CURVE SMOOTH",
"1006 149 LINE SMOOTH",
"1006 126 OFFCURVE",
"1007 99 OFFCURVE",
"1007 71 CURVE SMOOTH",
"1007 -82 OFFCURVE",
"991 -280 OFFCURVE",
"787 -280 CURVE SMOOTH",
"718 -280 LINE SMOOTH",
"588 -280 OFFCURVE",
"452 -218 OFFCURVE",
"452 1 CURVE SMOOTH",
"452 222 OFFCURVE",
"495 302 OFFCURVE",
"610 377 CURVE",
"610 377 OFFCURVE",
"618 383 OFFCURVE",
"618 386 CURVE SMOOTH",
"618 440 OFFCURVE",
"548 523 OFFCURVE",
"418 523 CURVE SMOOTH",
"284 523 OFFCURVE",
"134 424 OFFCURVE",
"134 72 CURVE SMOOTH",
"134 -358 OFFCURVE",
"393 -505 OFFCURVE",
"714 -505 CURVE SMOOTH"
);
}
);
width = 1593;
}
);
unicode = FB9F;
},
{
glyphname = uni066A;
lastChange = "2015-05-23 20:49:51 +0000";
layers = (
{
layerId = "9E57200A-6CEB-4B70-98B9-A6ACB8F2607D";
name = Bold;
paths = (
{
closed = 1;
nodes = (
"677 4 OFFCURVE",
"699 0 OFFCURVE",
"722 0 CURVE SMOOTH",
"745 0 OFFCURVE",
"769 4 OFFCURVE",
"794 10 CURVE SMOOTH",
"846 22 OFFCURVE",
"891 48 OFFCURVE",
"934 88 CURVE",
"936 91 OFFCURVE",
"937 96 OFFCURVE",
"937 102 CURVE SMOOTH",
"937 108 OFFCURVE",
"936 115 OFFCURVE",
"934 123 CURVE",
"914 191 LINE SMOOTH",
"906 218 OFFCURVE",
"902 246 OFFCURVE",
"902 274 CURVE SMOOTH",
"902 319 OFFCURVE",
"914 376 OFFCURVE",
"942 438 CURVE SMOOTH",
"970 502 OFFCURVE",
"1192 919 OFFCURVE",
"1328 1191 CURVE SMOOTH",
"1346 1228 OFFCURVE",
"1360 1255 OFFCURVE",
"1360 1285 CURVE SMOOTH",
"1360 1294 OFFCURVE",
"1359 1303 OFFCURVE",
"1356 1313 CURVE SMOOTH",
"1343 1353 OFFCURVE",
"1305 1372 OFFCURVE",
"1242 1372 CURVE SMOOTH",
"1018 1371 LINE",
"524 382 LINE",
"502 326 OFFCURVE",
"491 275 OFFCURVE",
"491 229 CURVE SMOOTH",
"491 164 OFFCURVE",
"508 114 OFFCURVE",
"544 78 CURVE SMOOTH",
"577 46 OFFCURVE",
"613 22 OFFCURVE",
"656 10 CURVE SMOOTH"
);
},
{
closed = 1;
nodes = (
"562 791 OFFCURVE",
"693 922 OFFCURVE",
"693 1083 CURVE SMOOTH",
"693 1245 OFFCURVE",
"562 1376 OFFCURVE",
"400 1376 CURVE SMOOTH",
"239 1376 OFFCURVE",
"108 1245 OFFCURVE",
"108 1083 CURVE SMOOTH",
"108 922 OFFCURVE",
"239 791 OFFCURVE",
"400 791 CURVE SMOOTH"
);
},
{
closed = 1;
nodes = (
"318 933 OFFCURVE",
"250 1000 OFFCURVE",
"250 1083 CURVE SMOOTH",
"250 1166 OFFCURVE",
"318 1233 OFFCURVE",
"400 1233 CURVE SMOOTH",
"483 1233 OFFCURVE",
"550 1166 OFFCURVE",
"550 1083 CURVE SMOOTH",
"550 1000 OFFCURVE",
"483 933 OFFCURVE",
"400 933 CURVE SMOOTH"
);
},
{
closed = 1;
nodes = (
"1585 0 OFFCURVE",
"1716 131 OFFCURVE",
"1716 292 CURVE SMOOTH",
"1716 454 OFFCURVE",
"1585 585 OFFCURVE",
"1424 585 CURVE SMOOTH",
"1262 585 OFFCURVE",
"1131 454 OFFCURVE",
"1131 292 CURVE SMOOTH",
"1131 131 OFFCURVE",
"1262 0 OFFCURVE",
"1424 0 CURVE SMOOTH"
);
},
{
closed = 1;
nodes = (
"1341 142 OFFCURVE",
"1274 210 OFFCURVE",
"1274 292 CURVE SMOOTH",
"1274 375 OFFCURVE",
"1341 442 OFFCURVE",
"1424 442 CURVE SMOOTH",
"1506 442 OFFCURVE",
"1574 375 OFFCURVE",
"1574 292 CURVE SMOOTH",
"1574 210 OFFCURVE",
"1506 142 OFFCURVE",
"1424 142 CURVE SMOOTH"
);
}
);
width = 1846;
}
);
unicode = 066A;
},
{
glyphname = uni061F;
lastChange = "2015-05-23 20:49:50 +0000";
layers = (
{
layerId = "9E57200A-6CEB-4B70-98B9-A6ACB8F2607D";
name = Bold;
paths = (
{
closed = 1;
nodes = (
"658 440 OFFCURVE",
"694 474 OFFCURVE",
"723 541 CURVE SMOOTH",
"748 596 OFFCURVE",
"760 653 OFFCURVE",
"760 710 CURVE SMOOTH",
"760 722 OFFCURVE",
"759 734 OFFCURVE",
"758 746 CURVE SMOOTH",
"752 815 OFFCURVE",
"715 896 OFFCURVE",
"648 989 CURVE SMOOTH",
"581 1082 OFFCURVE",
"547 1149 OFFCURVE",
"547 1190 CURVE SMOOTH",
"547 1282 OFFCURVE",
"589 1289 OFFCURVE",
"616 1289 CURVE SMOOTH",
"662 1289 OFFCURVE",
"687 1247 OFFCURVE",
"687 1161 CURVE SMOOTH",
"687 1138 OFFCURVE",
"683 1109 OFFCURVE",
"683 1088 CURVE SMOOTH",
"683 1078 OFFCURVE",
"684 1069 OFFCURVE",
"687 1064 CURVE SMOOTH",
"691 1058 OFFCURVE",
"749 1028 OFFCURVE",
"833 1028 CURVE SMOOTH",
"991 1028 OFFCURVE",
"1005 1147 OFFCURVE",
"1005 1194 CURVE SMOOTH",
"1005 1268 OFFCURVE",
"925 1482 OFFCURVE",
"591 1482 CURVE SMOOTH",
"246 1482 OFFCURVE",
"162 1248 OFFCURVE",
"162 1167 CURVE SMOOTH",
"162 1121 OFFCURVE",
"172 1078 OFFCURVE",
"192 1036 CURVE SMOOTH",
"212 995 OFFCURVE",
"474 567 OFFCURVE",
"488 543 CURVE SMOOTH",
"502 519 OFFCURVE",
"520 496 OFFCURVE",
"543 474 CURVE SMOOTH",
"567 452 OFFCURVE",
"591 440 OFFCURVE",
"614 440 CURVE SMOOTH"
);
},
{
closed = 1;
nodes = (
"717 -27 OFFCURVE",
"803 59 OFFCURVE",
"803 165 CURVE SMOOTH",
"803 272 OFFCURVE",
"717 358 OFFCURVE",
"611 358 CURVE SMOOTH",
"504 358 OFFCURVE",
"418 272 OFFCURVE",
"418 165 CURVE SMOOTH",
"418 59 OFFCURVE",
"504 -27 OFFCURVE",
"611 -27 CURVE SMOOTH"
);
}
);
width = 1085;
}
);
unicode = 061F;
},
{
glyphname = uni060C;
lastChange = "2015-05-23 20:49:50 +0000";
layers = (
{
layerId = "9E57200A-6CEB-4B70-98B9-A6ACB8F2607D";
name = Bold;
paths = (
{
closed = 1;
nodes = (
"437 0 OFFCURVE",
"531 94 OFFCURVE",
"531 207 CURVE SMOOTH",
"531 251 OFFCURVE",
"524 288 OFFCURVE",
"493 325 CURVE SMOOTH",
"465 358 OFFCURVE",
"434 384 OFFCURVE",
"394 401 CURVE SMOOTH",
"377 408 OFFCURVE",
"369 418 OFFCURVE",
"369 432 CURVE SMOOTH",
"369 442 OFFCURVE",
"373 455 OFFCURVE",
"383 470 CURVE SMOOTH",
"396 489 OFFCURVE",
"418 512 OFFCURVE",
"445 539 CURVE",
"468 560 OFFCURVE",
"480 578 OFFCURVE",
"480 592 CURVE SMOOTH",
"480 607 OFFCURVE",
"469 614 OFFCURVE",
"448 614 CURVE SMOOTH",
"430 614 OFFCURVE",
"405 609 OFFCURVE",
"373 599 CURVE",
"262 558 OFFCURVE",
"123 427 OFFCURVE",
"123 223 CURVE SMOOTH",
"123 219 LINE SMOOTH",
"123 158 OFFCURVE",
"139 106 OFFCURVE",
"179 63 CURVE SMOOTH",
"220 21 OFFCURVE",
"269 0 OFFCURVE",
"325 0 CURVE SMOOTH"
);
}
);
width = 662;
}
);
unicode = 060C;
},
{
glyphname = uni061B;
lastChange = "2015-05-23 20:49:51 +0000";
layers = (
{
layerId = "9E57200A-6CEB-4B70-98B9-A6ACB8F2607D";
name = Bold;
paths = (
{
closed = 1;
nodes = (
"438 900 OFFCURVE",
"532 994 OFFCURVE",
"532 1107 CURVE SMOOTH",
"532 1151 OFFCURVE",
"525 1188 OFFCURVE",
"494 1225 CURVE SMOOTH",
"466 1258 OFFCURVE",
"435 1284 OFFCURVE",
"395 1301 CURVE SMOOTH",
"378 1308 OFFCURVE",
"370 1318 OFFCURVE",
"370 1332 CURVE SMOOTH",
"370 1342 OFFCURVE",
"374 1355 OFFCURVE",
"384 1370 CURVE SMOOTH",
"397 1389 OFFCURVE",
"419 1412 OFFCURVE",
"446 1439 CURVE",
"469 1460 OFFCURVE",
"481 1478 OFFCURVE",
"481 1492 CURVE SMOOTH",
"481 1507 OFFCURVE",
"470 1514 OFFCURVE",
"449 1514 CURVE SMOOTH",
"431 1514 OFFCURVE",
"406 1509 OFFCURVE",
"374 1499 CURVE",
"263 1458 OFFCURVE",
"124 1327 OFFCURVE",
"124 1123 CURVE SMOOTH",
"124 1119 LINE SMOOTH",
"124 1058 OFFCURVE",
"140 1006 OFFCURVE",
"180 963 CURVE SMOOTH",
"221 921 OFFCURVE",
"270 900 OFFCURVE",
"326 900 CURVE SMOOTH"
);
},
{
closed = 1;
nodes = (
"437 0 OFFCURVE",
"531 94 OFFCURVE",
"531 206 CURVE SMOOTH",
"531 321 OFFCURVE",
"437 412 OFFCURVE",
"324 412 CURVE SMOOTH",
"209 412 OFFCURVE",
"118 321 OFFCURVE",
"118 208 CURVE SMOOTH",
"118 204 LINE SMOOTH",
"118 92 OFFCURVE",
"209 0 OFFCURVE",
"324 0 CURVE SMOOTH"
);
}
);
width = 670;
}
);
unicode = 061B;
},
{
glyphname = uni066B;
lastChange = "2015-05-23 20:49:51 +0000";
layers = (
{
layerId = "9E57200A-6CEB-4B70-98B9-A6ACB8F2607D";
name = Bold;
paths = (
{
closed = 1;
nodes = (
"403 -260 OFFCURVE",
"542 -129 OFFCURVE",
"542 75 CURVE SMOOTH",
"542 79 LINE SMOOTH",
"542 140 OFFCURVE",
"526 192 OFFCURVE",
"486 235 CURVE SMOOTH",
"445 277 OFFCURVE",
"396 298 OFFCURVE",
"340 298 CURVE SMOOTH",
"228 298 OFFCURVE",
"134 204 OFFCURVE",
"134 91 CURVE SMOOTH",
"134 47 OFFCURVE",
"141 10 OFFCURVE",
"172 -27 CURVE SMOOTH",
"200 -60 OFFCURVE",
"231 -86 OFFCURVE",
"271 -103 CURVE SMOOTH",
"288 -110 OFFCURVE",
"296 -120 OFFCURVE",
"296 -134 CURVE SMOOTH",
"296 -144 OFFCURVE",
"292 -157 OFFCURVE",
"282 -172 CURVE SMOOTH",
"269 -191 OFFCURVE",
"247 -214 OFFCURVE",
"220 -241 CURVE",
"197 -262 OFFCURVE",
"185 -280 OFFCURVE",
"185 -294 CURVE SMOOTH",
"185 -309 OFFCURVE",
"196 -316 OFFCURVE",
"217 -316 CURVE SMOOTH",
"235 -316 OFFCURVE",
"260 -311 OFFCURVE",
"292 -301 CURVE"
);
}
);
width = 676;
}
);
unicode = 066B;
},
{
glyphname = uni066C;
lastChange = "2015-05-23 20:49:51 +0000";
layers = (
{
layerId = "9E57200A-6CEB-4B70-98B9-A6ACB8F2607D";
name = Bold;
paths = (
{
closed = 1;
nodes = (
"390 288 OFFCURVE",
"529 419 OFFCURVE",
"529 623 CURVE SMOOTH",
"529 627 LINE SMOOTH",
"529 688 OFFCURVE",
"513 740 OFFCURVE",
"473 783 CURVE SMOOTH",
"432 825 OFFCURVE",
"383 846 OFFCURVE",
"327 846 CURVE SMOOTH",
"215 846 OFFCURVE",
"121 752 OFFCURVE",
"121 639 CURVE SMOOTH",
"121 595 OFFCURVE",
"128 558 OFFCURVE",
"159 521 CURVE SMOOTH",
"187 488 OFFCURVE",
"218 462 OFFCURVE",
"258 445 CURVE SMOOTH",
"275 438 OFFCURVE",
"283 428 OFFCURVE",
"283 414 CURVE SMOOTH",
"283 404 OFFCURVE",
"279 391 OFFCURVE",
"269 376 CURVE SMOOTH",
"256 357 OFFCURVE",
"234 334 OFFCURVE",
"207 307 CURVE",
"184 286 OFFCURVE",
"172 268 OFFCURVE",
"172 254 CURVE SMOOTH",
"172 239 OFFCURVE",
"183 232 OFFCURVE",
"204 232 CURVE SMOOTH",
"222 232 OFFCURVE",
"247 237 OFFCURVE",
"279 247 CURVE"
);
}
);
width = 662;
}
);
unicode = 066C;
},
{
glyphname = uni066D;
lastChange = "2015-05-23 20:49:51 +0000";
layers = (
{
layerId = "9E57200A-6CEB-4B70-98B9-A6ACB8F2607D";
name = Bold;
paths = (
{
closed = 1;
nodes = (
"440 734 OFFCURVE",
"467 747 OFFCURVE",
"485 771 CURVE SMOOTH",
"580 895 LINE",
"674 771 LINE SMOOTH",
"692 747 OFFCURVE",
"719 734 OFFCURVE",
"748 734 CURVE SMOOTH",
"769 734 OFFCURVE",
"789 740 OFFCURVE",
"805 753 CURVE SMOOTH",
"829 771 OFFCURVE",
"842 799 OFFCURVE",
"842 827 CURVE SMOOTH",
"842 847 OFFCURVE",
"836 867 OFFCURVE",
"823 884 CURVE SMOOTH",
"736 998 LINE",
"875 1038 LINE SMOOTH",
"916 1050 OFFCURVE",
"943 1087 OFFCURVE",
"943 1128 CURVE SMOOTH",
"943 1137 OFFCURVE",
"941 1145 OFFCURVE",
"939 1154 CURVE SMOOTH",
"927 1194 OFFCURVE",
"893 1221 OFFCURVE",
"852 1221 CURVE SMOOTH",
"843 1221 OFFCURVE",
"834 1220 OFFCURVE",
"826 1217 CURVE",
"677 1174 LINE",
"677 1330 LINE SMOOTH",
"677 1386 OFFCURVE",
"624 1424 OFFCURVE",
"576 1424 CURVE SMOOTH",
"528 1424 OFFCURVE",
"475 1386 OFFCURVE",
"475 1330 CURVE SMOOTH",
"475 1175 LINE",
"331 1217 LINE",
"330 1217 LINE",
"322 1220 OFFCURVE",
"313 1221 OFFCURVE",
"304 1221 CURVE SMOOTH",
"256 1221 OFFCURVE",
"213 1182 OFFCURVE",
"213 1129 CURVE SMOOTH",
"213 1087 OFFCURVE",
"241 1050 OFFCURVE",
"283 1038 CURVE SMOOTH",
"422 998 LINE",
"335 884 LINE SMOOTH",
"323 867 OFFCURVE",
"317 848 OFFCURVE",
"317 828 CURVE SMOOTH",
"317 800 OFFCURVE",
"330 771 OFFCURVE",
"354 753 CURVE",
"370 740 OFFCURVE",
"390 734 OFFCURVE",
"411 734 CURVE SMOOTH"
);
}
);
width = 1153;
}
);
unicode = 066D;
},
{
glyphname = uni064B;
lastChange = "2015-05-23 20:49:51 +0000";
layers = (
{
anchors = (
{
name = _top;
position = "{3, 1559}";
},
{
name = top;
position = "{5, 2132}";
}
);
layerId = "9E57200A-6CEB-4B70-98B9-A6ACB8F2607D";
name = Bold;
paths = (
{
closed = 1;
nodes = (
"-200 1831 OFFCURVE",
"-186 1837 OFFCURVE",
"-174 1845 CURVE",
"-173 1846 OFFCURVE",
"-21 1956 OFFCURVE",
"230 1988 CURVE SMOOTH",
"267 1993 OFFCURVE",
"294 2024 OFFCURVE",
"294 2059 CURVE SMOOTH",
"294 2104 OFFCURVE",
"255 2136 OFFCURVE",
"213 2131 CURVE SMOOTH",
"-76 2094 OFFCURVE",
"-251 1966 OFFCURVE",
"-259 1960 CURVE SMOOTH",
"-278 1946 OFFCURVE",
"-288 1924 OFFCURVE",
"-288 1902 CURVE SMOOTH",
"-288 1888 OFFCURVE",
"-284 1873 OFFCURVE",
"-274 1860 CURVE SMOOTH",
"-260 1840 OFFCURVE",
"-237 1830 OFFCURVE",
"-214 1831 CURVE"
);
},
{
closed = 1;
nodes = (
"-200 1579 OFFCURVE",
"-186 1585 OFFCURVE",
"-174 1593 CURVE",
"-173 1594 OFFCURVE",
"-21 1704 OFFCURVE",
"230 1736 CURVE SMOOTH",
"267 1741 OFFCURVE",
"294 1772 OFFCURVE",
"294 1807 CURVE SMOOTH",
"294 1852 OFFCURVE",
"255 1884 OFFCURVE",
"213 1879 CURVE SMOOTH",
"-76 1842 OFFCURVE",
"-251 1714 OFFCURVE",
"-259 1708 CURVE SMOOTH",
"-278 1694 OFFCURVE",
"-288 1672 OFFCURVE",
"-288 1650 CURVE SMOOTH",
"-288 1636 OFFCURVE",
"-284 1621 OFFCURVE",
"-274 1608 CURVE SMOOTH",
"-260 1588 OFFCURVE",
"-237 1578 OFFCURVE",
"-214 1579 CURVE"
);
}
);
width = 0;
}
);
unicode = 064B;
},
{
glyphname = uni064D;
lastChange = "2015-05-23 20:49:51 +0000";
layers = (
{
anchors = (
{
name = _bottom;
position = "{3, -280}";
},
{
name = bottom;
position = "{5, -853}";
}
);
layerId = "9E57200A-6CEB-4B70-98B9-A6ACB8F2607D";
name = Bold;
paths = (
{
closed = 1;
nodes = (
"-200 -601 OFFCURVE",
"-186 -595 OFFCURVE",
"-174 -587 CURVE",
"-173 -586 OFFCURVE",
"-21 -476 OFFCURVE",
"230 -444 CURVE SMOOTH",
"267 -439 OFFCURVE",
"294 -408 OFFCURVE",
"294 -373 CURVE SMOOTH",
"294 -328 OFFCURVE",
"255 -296 OFFCURVE",
"213 -301 CURVE SMOOTH",
"-76 -338 OFFCURVE",
"-251 -466 OFFCURVE",
"-259 -472 CURVE SMOOTH",
"-278 -486 OFFCURVE",
"-288 -508 OFFCURVE",
"-288 -530 CURVE SMOOTH",
"-288 -544 OFFCURVE",
"-284 -559 OFFCURVE",
"-274 -572 CURVE SMOOTH",
"-260 -592 OFFCURVE",
"-237 -602 OFFCURVE",
"-214 -601 CURVE"
);
},
{
closed = 1;
nodes = (
"-200 -853 OFFCURVE",
"-186 -847 OFFCURVE",
"-174 -839 CURVE",
"-173 -838 OFFCURVE",
"-21 -728 OFFCURVE",
"230 -696 CURVE SMOOTH",
"267 -691 OFFCURVE",
"294 -660 OFFCURVE",
"294 -625 CURVE SMOOTH",
"294 -580 OFFCURVE",
"255 -548 OFFCURVE",
"213 -553 CURVE SMOOTH",
"-76 -590 OFFCURVE",
"-251 -718 OFFCURVE",
"-259 -724 CURVE SMOOTH",
"-278 -738 OFFCURVE",
"-288 -760 OFFCURVE",
"-288 -782 CURVE SMOOTH",
"-288 -796 OFFCURVE",
"-284 -811 OFFCURVE",
"-274 -824 CURVE SMOOTH",
"-260 -844 OFFCURVE",
"-237 -854 OFFCURVE",
"-214 -853 CURVE"
);
}
);
width = 0;
}
);
unicode = 064D;
},
{
glyphname = uni064E;
lastChange = "2015-05-23 20:49:50 +0000";
layers = (
{
anchors = (
{
name = _top;
position = "{3, 1548}";
},
{
name = top;
position = "{5, 1869}";
}
);
layerId = "9E57200A-6CEB-4B70-98B9-A6ACB8F2607D";
name = Bold;
paths = (
{
closed = 1;
nodes = (
"-200 1568 OFFCURVE",
"-186 1574 OFFCURVE",
"-174 1582 CURVE",
"-173 1583 OFFCURVE",
"-21 1693 OFFCURVE",
"230 1725 CURVE SMOOTH",
"267 1730 OFFCURVE",
"294 1761 OFFCURVE",
"294 1796 CURVE SMOOTH",
"294 1841 OFFCURVE",
"255 1873 OFFCURVE",
"213 1868 CURVE SMOOTH",
"-76 1831 OFFCURVE",
"-251 1703 OFFCURVE",
"-259 1697 CURVE SMOOTH",
"-278 1683 OFFCURVE",
"-288 1661 OFFCURVE",
"-288 1639 CURVE SMOOTH",
"-288 1625 OFFCURVE",
"-284 1610 OFFCURVE",
"-274 1597 CURVE SMOOTH",
"-260 1577 OFFCURVE",
"-237 1567 OFFCURVE",
"-214 1568 CURVE"
);
}
);
width = 0;
}
);
unicode = 064E;
},
{
glyphname = uni064F;
lastChange = "2015-05-23 20:49:51 +0000";
layers = (
{
anchors = (
{
name = _top;
position = "{0, 1554}";
},
{
name = top;
position = "{2, 2056}";
}
);
layerId = "9E57200A-6CEB-4B70-98B9-A6ACB8F2607D";
name = Bold;
paths = (
{
closed = 1;
nodes = (
"-148 1574 LINE SMOOTH",
"-75 1577 OFFCURVE",
"12 1605 OFFCURVE",
"80 1647 CURVE SMOOTH",
"172 1704 OFFCURVE",
"223 1782 OFFCURVE",
"223 1868 CURVE SMOOTH",
"223 1871 LINE SMOOTH",
"221 1963 OFFCURVE",
"146 2037 OFFCURVE",
"54 2037 CURVE SMOOTH",
"-40 2037 OFFCURVE",
"-115 1960 OFFCURVE",
"-115 1868 CURVE SMOOTH",
"-115 1816 OFFCURVE",
"-92 1770 OFFCURVE",
"-56 1739 CURVE SMOOTH",
"-92 1725 OFFCURVE",
"-128 1718 OFFCURVE",
"-153 1717 CURVE SMOOTH",
"-191 1716 OFFCURVE",
"-222 1684 OFFCURVE",
"-222 1645 CURVE SMOOTH",
"-222 1606 OFFCURVE",
"-190 1574 OFFCURVE",
"-150 1574 CURVE SMOOTH"
);
},
{
closed = 1;
nodes = (
"39 1842 OFFCURVE",
"28 1853 OFFCURVE",
"28 1868 CURVE SMOOTH",
"28 1882 OFFCURVE",
"39 1893 OFFCURVE",
"54 1893 CURVE SMOOTH",
"68 1893 OFFCURVE",
"79 1882 OFFCURVE",
"79 1868 CURVE SMOOTH",
"79 1853 OFFCURVE",
"68 1842 OFFCURVE",
"54 1842 CURVE SMOOTH"
);
}
);
width = 0;
}
);
unicode = 064F;
},
{
glyphname = uni064C;
lastChange = "2015-05-23 20:49:51 +0000";
layers = (
{
anchors = (
{
name = _top;
position = "{3, 1532}";
},
{
name = top;
position = "{5, 2112}";
}
);
layerId = "9E57200A-6CEB-4B70-98B9-A6ACB8F2607D";
name = Bold;
paths = (
{
closed = 1;
nodes = (
"192 1589 OFFCURVE",
"250 1633 OFFCURVE",
"281 1669 CURVE SMOOTH",
"326 1722 OFFCURVE",
"350 1799 OFFCURVE",
"350 1899 CURVE SMOOTH",
"350 1903 LINE",
"347 1994 OFFCURVE",
"273 2068 OFFCURVE",
"181 2068 CURVE SMOOTH",
"87 2068 OFFCURVE",
"12 1992 OFFCURVE",
"12 1899 CURVE SMOOTH",
"12 1823 OFFCURVE",
"62 1758 OFFCURVE",
"131 1737 CURVE",
"120 1734 OFFCURVE",
"107 1733 OFFCURVE",
"91 1733 CURVE SMOOTH",
"59 1733 OFFCURVE",
"32 1745 OFFCURVE",
"6 1771 CURVE SMOOTH",
"-18 1796 OFFCURVE",
"-39 1831 OFFCURVE",
"-57 1877 CURVE SMOOTH",
"-68 1905 OFFCURVE",
"-95 1922 OFFCURVE",
"-124 1922 CURVE SMOOTH",
"-132 1922 OFFCURVE",
"-139 1921 OFFCURVE",
"-147 1918 CURVE SMOOTH",
"-224 1891 OFFCURVE",
"-293 1870 OFFCURVE",
"-293 1870 CURVE",
"-324 1860 OFFCURVE",
"-343 1832 OFFCURVE",
"-343 1802 CURVE SMOOTH",
"-343 1758 OFFCURVE",
"-309 1730 OFFCURVE",
"-272 1730 CURVE SMOOTH",
"-265 1730 OFFCURVE",
"-258 1731 OFFCURVE",
"-251 1733 CURVE SMOOTH",
"-248 1734 OFFCURVE",
"-212 1745 OFFCURVE",
"-161 1762 CURVE",
"-86 1621 OFFCURVE",
"15 1589 OFFCURVE",
"91 1589 CURVE SMOOTH"
);
},
{
closed = 1;
nodes = (
"166 1873 OFFCURVE",
"155 1885 OFFCURVE",
"155 1899 CURVE SMOOTH",
"155 1913 OFFCURVE",
"166 1925 OFFCURVE",
"181 1925 CURVE SMOOTH",
"195 1925 OFFCURVE",
"206 1913 OFFCURVE",
"206 1899 CURVE SMOOTH",
"206 1885 OFFCURVE",
"195 1873 OFFCURVE",
"181 1873 CURVE SMOOTH"
);
}
);
width = 0;
}
);
unicode = 064C;
},
{
glyphname = uni0650;
lastChange = "2015-05-23 20:56:12 +0000";
layers = (
{
anchors = (
{
name = _bottom;
position = "{3, -280}";
},
{
name = bottom;
position = "{5, -601}";
}
);
layerId = "9E57200A-6CEB-4B70-98B9-A6ACB8F2607D";
name = Bold;
paths = (
{
closed = 1;
nodes = (
"-200 -601 OFFCURVE",
"-186 -595 OFFCURVE",
"-174 -587 CURVE",
"-173 -586 OFFCURVE",
"-21 -476 OFFCURVE",
"230 -444 CURVE SMOOTH",
"267 -439 OFFCURVE",
"294 -408 OFFCURVE",
"294 -373 CURVE SMOOTH",
"294 -328 OFFCURVE",
"255 -296 OFFCURVE",
"213 -301 CURVE SMOOTH",
"-76 -338 OFFCURVE",
"-251 -466 OFFCURVE",
"-259 -472 CURVE SMOOTH",
"-278 -486 OFFCURVE",
"-288 -508 OFFCURVE",
"-288 -530 CURVE SMOOTH",
"-288 -544 OFFCURVE",
"-284 -559 OFFCURVE",
"-274 -572 CURVE SMOOTH",
"-260 -592 OFFCURVE",
"-237 -602 OFFCURVE",
"-214 -601 CURVE"
);
}
);
width = 0;
}
);
unicode = 0650;
},
{
glyphname = uni0651;
lastChange = "2015-05-23 20:49:50 +0000";
layers = (
{
anchors = (
{
name = _top;
position = "{52, 1612}";
},
{
name = top;
position = "{-62, 2093}";
}
);
layerId = "9E57200A-6CEB-4B70-98B9-A6ACB8F2607D";
name = Bold;
paths = (
{
closed = 1;
nodes = (
"-75 1635 OFFCURVE",
"-63 1636 OFFCURVE",
"-51 1639 CURVE SMOOTH",
"-10 1650 OFFCURVE",
"24 1678 OFFCURVE",
"46 1719 CURVE",
"61 1710 OFFCURVE",
"77 1702 OFFCURVE",
"93 1698 CURVE SMOOTH",
"107 1694 OFFCURVE",
"121 1692 OFFCURVE",
"135 1692 CURVE SMOOTH",
"172 1692 OFFCURVE",
"208 1707 OFFCURVE",
"237 1735 CURVE SMOOTH",
"263 1761 OFFCURVE",
"297 1813 OFFCURVE",
"297 1910 CURVE SMOOTH",
"297 1949 OFFCURVE",
"291 1996 OFFCURVE",
"277 2051 CURVE SMOOTH",
"270 2083 OFFCURVE",
"241 2105 OFFCURVE",
"209 2105 CURVE SMOOTH",
"203 2105 OFFCURVE",
"196 2104 OFFCURVE",
"190 2102 CURVE",
"158 2094 OFFCURVE",
"137 2065 OFFCURVE",
"137 2033 CURVE SMOOTH",
"137 2027 OFFCURVE",
"137 2021 OFFCURVE",
"139 2015 CURVE SMOOTH",
"149 1976 OFFCURVE",
"154 1940 OFFCURVE",
"154 1909 CURVE SMOOTH",
"154 1893 OFFCURVE",
"153 1879 OFFCURVE",
"150 1867 CURVE",
"144 1844 OFFCURVE",
"136 1837 OFFCURVE",
"135 1836 CURVE",
"133 1836 OFFCURVE",
"124 1837 OFFCURVE",
"110 1850 CURVE",
"99 1861 OFFCURVE",
"77 1889 OFFCURVE",
"62 1945 CURVE SMOOTH",
"54 1977 OFFCURVE",
"25 1998 OFFCURVE",
"-7 1998 CURVE SMOOTH",
"-13 1998 OFFCURVE",
"-19 1998 OFFCURVE",
"-25 1996 CURVE",
"-26 1996 LINE",
"-58 1988 OFFCURVE",
"-79 1959 OFFCURVE",
"-79 1926 CURVE SMOOTH",
"-79 1920 OFFCURVE",
"-79 1914 OFFCURVE",
"-77 1908 CURVE SMOOTH",
"-70 1881 OFFCURVE",
"-68 1859 OFFCURVE",
"-68 1841 CURVE SMOOTH",
"-68 1823 OFFCURVE",
"-70 1810 OFFCURVE",
"-73 1802 CURVE SMOOTH",
"-78 1785 OFFCURVE",
"-86 1779 OFFCURVE",
"-87 1778 CURVE",
"-89 1778 OFFCURVE",
"-100 1781 OFFCURVE",
"-116 1798 CURVE",
"-140 1826 OFFCURVE",
"-163 1873 OFFCURVE",
"-178 1933 CURVE SMOOTH",
"-187 1965 OFFCURVE",
"-216 1987 OFFCURVE",
"-248 1987 CURVE SMOOTH",
"-254 1987 OFFCURVE",
"-259 1986 OFFCURVE",
"-265 1985 CURVE",
"-298 1976 OFFCURVE",
"-319 1947 OFFCURVE",
"-319 1915 CURVE SMOOTH",
"-319 1909 OFFCURVE",
"-319 1903 OFFCURVE",
"-317 1897 CURVE SMOOTH",
"-294 1808 OFFCURVE",
"-260 1741 OFFCURVE",
"-216 1695 CURVE SMOOTH",
"-177 1656 OFFCURVE",
"-132 1635 OFFCURVE",
"-87 1635 CURVE SMOOTH"
);
}
);
width = 0;
}
);
unicode = 0651;
},
{
glyphname = uni0652;
lastChange = "2015-05-23 20:49:39 +0000";
layers = (
{
anchors = (
{
name = _top;
position = "{0, 1594}";
},
{
name = top;
position = "{2, 2139}";
}
);
layerId = "9E57200A-6CEB-4B70-98B9-A6ACB8F2607D";
name = Bold;
paths = (
{
closed = 1;
nodes = (
"121 1666 OFFCURVE",
"220 1765 OFFCURVE",
"220 1886 CURVE SMOOTH",
"220 2007 OFFCURVE",
"121 2106 OFFCURVE",
"0 2106 CURVE SMOOTH",
"-121 2106 OFFCURVE",
"-220 2007 OFFCURVE",
"-220 1886 CURVE SMOOTH",
"-220 1765 OFFCURVE",
"-121 1666 OFFCURVE",
"0 1666 CURVE SMOOTH"
);
},
{
closed = 1;
nodes = (
"-41 1813 OFFCURVE",
"-73 1845 OFFCURVE",
"-73 1886 CURVE SMOOTH",
"-73 1926 OFFCURVE",
"-41 1959 OFFCURVE",
"0 1959 CURVE SMOOTH",
"40 1959 OFFCURVE",
"73 1926 OFFCURVE",
"73 1886 CURVE SMOOTH",
"73 1845 OFFCURVE",
"40 1813 OFFCURVE",
"0 1813 CURVE SMOOTH"
);
}
);
width = 0;
}
);
unicode = 0652;
},
{
glyphname = uni0653;
lastChange = "2015-05-23 20:49:51 +0000";
layers = (
{
anchors = (
{
name = _top;
position = "{35, 1563}";
},
{
name = top;
position = "{37, 1823}";
}
);
layerId = "9E57200A-6CEB-4B70-98B9-A6ACB8F2607D";
name = Bold;
paths = (
{
closed = 1;
nodes = (
"306 1563 OFFCURVE",
"353 1631 OFFCURVE",
"377 1687 CURVE SMOOTH",
"387 1711 OFFCURVE",
"392 1731 OFFCURVE",
"392 1746 CURVE SMOOTH",
"392 1771 OFFCURVE",
"379 1780 OFFCURVE",
"360 1780 CURVE SMOOTH",
"344 1780 OFFCURVE",
"328 1773 OFFCURVE",
"312 1760 CURVE SMOOTH",
"292 1743 OFFCURVE",
"268 1736 OFFCURVE",
"237 1736 CURVE SMOOTH",
"140 1736 OFFCURVE",
"14 1823 OFFCURVE",
"-115 1823 CURVE SMOOTH",
"-197 1823 OFFCURVE",
"-261 1791 OFFCURVE",
"-300 1724 CURVE SMOOTH",
"-314 1701 OFFCURVE",
"-321 1681 OFFCURVE",
"-321 1663 CURVE SMOOTH",
"-321 1654 OFFCURVE",
"-319 1646 OFFCURVE",
"-315 1639 CURVE SMOOTH",
"-310 1630 OFFCURVE",
"-301 1625 OFFCURVE",
"-289 1625 CURVE SMOOTH",
"-276 1625 OFFCURVE",
"-258 1632 OFFCURVE",
"-237 1646 CURVE SMOOTH",
"-224 1656 OFFCURVE",
"-203 1660 OFFCURVE",
"-176 1660 CURVE SMOOTH",
"-68 1660 OFFCURVE",
"28 1563 OFFCURVE",
"165 1563 CURVE SMOOTH"
);
}
);
width = 0;
}
);
unicode = 0653;
},
{
glyphname = uni0654;
lastChange = "2015-05-23 20:49:50 +0000";
layers = (
{
anchors = (
{
name = _top;
position = "{13, 1546}";
},
{
name = top;
position = "{15, 2027}";
}
);
layerId = "9E57200A-6CEB-4B70-98B9-A6ACB8F2607D";
name = Bold;
paths = (
{
closed = 1;
nodes = (
"-139 1573 OFFCURVE",
"-115 1580 OFFCURVE",
"-90 1583 CURVE SMOOTH",
"-34 1590 OFFCURVE",
"161 1612 OFFCURVE",
"187 1616 CURVE SMOOTH",
"200 1618 OFFCURVE",
"211 1620 OFFCURVE",
"217 1633 CURVE SMOOTH",
"219 1636 OFFCURVE",
"227 1653 OFFCURVE",
"227 1673 CURVE SMOOTH",
"227 1678 OFFCURVE",
"227 1682 OFFCURVE",
"226 1686 CURVE SMOOTH",
"219 1720 OFFCURVE",
"197 1729 OFFCURVE",
"177 1729 CURVE SMOOTH",
"171 1729 OFFCURVE",
"166 1728 OFFCURVE",
"161 1727 CURVE SMOOTH",
"141 1723 OFFCURVE",
"121 1720 OFFCURVE",
"102 1720 CURVE SMOOTH",
"64 1720 OFFCURVE",
"30 1729 OFFCURVE",
"15 1747 CURVE SMOOTH",
"-13 1779 OFFCURVE",
"-22 1811 OFFCURVE",
"-22 1839 CURVE SMOOTH",
"-22 1892 OFFCURVE",
"11 1933 OFFCURVE",
"18 1940 CURVE",
"67 1932 OFFCURVE",
"68 1895 OFFCURVE",
"70 1864 CURVE",
"78 1858 OFFCURVE",
"93 1854 OFFCURVE",
"108 1854 CURVE SMOOTH",
"145 1854 OFFCURVE",
"191 1874 OFFCURVE",
"191 1928 CURVE SMOOTH",
"191 1994 OFFCURVE",
"130 2027 OFFCURVE",
"51 2027 CURVE SMOOTH",
"-103 2027 OFFCURVE",
"-169 1906 OFFCURVE",
"-169 1833 CURVE SMOOTH",
"-169 1780 OFFCURVE",
"-150 1717 OFFCURVE",
"-125 1690 CURVE",
"-165 1690 OFFCURVE",
"-201 1667 OFFCURVE",
"-201 1615 CURVE SMOOTH",
"-201 1584 OFFCURVE",
"-181 1555 OFFCURVE",
"-152 1546 CURVE"
);
}
);
width = 0;
}
);
unicode = 0654;
},
{
glyphname = uni0655;
lastChange = "2015-05-23 20:49:50 +0000";
layers = (
{
anchors = (
{
name = _bottom;
position = "{-7, -157}";
},
{
name = bottom;
position = "{-5, -638}";
}
);
layerId = "9E57200A-6CEB-4B70-98B9-A6ACB8F2607D";
name = Bold;
paths = (
{
closed = 1;
nodes = (
"-159 -611 OFFCURVE",
"-135 -604 OFFCURVE",
"-110 -601 CURVE SMOOTH",
"-54 -594 OFFCURVE",
"141 -572 OFFCURVE",
"167 -568 CURVE SMOOTH",
"180 -566 OFFCURVE",
"191 -564 OFFCURVE",
"197 -551 CURVE SMOOTH",
"199 -548 OFFCURVE",
"207 -531 OFFCURVE",
"207 -511 CURVE SMOOTH",
"207 -506 OFFCURVE",
"207 -502 OFFCURVE",
"206 -498 CURVE SMOOTH",
"199 -464 OFFCURVE",
"177 -455 OFFCURVE",
"157 -455 CURVE SMOOTH",
"151 -455 OFFCURVE",
"146 -456 OFFCURVE",
"141 -457 CURVE SMOOTH",
"121 -461 OFFCURVE",
"101 -464 OFFCURVE",
"82 -464 CURVE SMOOTH",
"44 -464 OFFCURVE",
"10 -455 OFFCURVE",
"-5 -437 CURVE SMOOTH",
"-33 -405 OFFCURVE",
"-42 -373 OFFCURVE",
"-42 -345 CURVE SMOOTH",
"-42 -292 OFFCURVE",
"-9 -251 OFFCURVE",
"-2 -244 CURVE",
"47 -252 OFFCURVE",
"48 -289 OFFCURVE",
"50 -320 CURVE",
"58 -326 OFFCURVE",
"73 -330 OFFCURVE",
"88 -330 CURVE SMOOTH",
"125 -330 OFFCURVE",
"171 -310 OFFCURVE",
"171 -256 CURVE SMOOTH",
"171 -190 OFFCURVE",
"110 -157 OFFCURVE",
"31 -157 CURVE SMOOTH",
"-123 -157 OFFCURVE",
"-189 -278 OFFCURVE",
"-189 -351 CURVE SMOOTH",
"-189 -404 OFFCURVE",
"-170 -467 OFFCURVE",
"-145 -494 CURVE",
"-185 -494 OFFCURVE",
"-221 -517 OFFCURVE",
"-221 -569 CURVE SMOOTH",
"-221 -600 OFFCURVE",
"-201 -629 OFFCURVE",
"-172 -638 CURVE"
);
}
);
width = 0;
}
);
unicode = 0655;
},
{
glyphname = uni0670;
lastChange = "2015-05-23 20:49:50 +0000";
layers = (
{
anchors = (
{
name = _top;
position = "{26, 1641}";
},
{
name = top;
position = "{28, 2056}";
}
);
layerId = "9E57200A-6CEB-4B70-98B9-A6ACB8F2607D";
name = Bold;
paths = (
{
closed = 1;
nodes = (
"121 1661 OFFCURVE",
"154 1693 OFFCURVE",
"154 1732 CURVE SMOOTH",
"154 1791 OFFCURVE",
"144 1846 OFFCURVE",
"126 1894 CURVE SMOOTH",
"85 2002 OFFCURVE",
"12 2043 OFFCURVE",
"4 2048 CURVE",
"-7 2053 OFFCURVE",
"-18 2056 OFFCURVE",
"-29 2056 CURVE SMOOTH",
"-55 2056 OFFCURVE",
"-80 2042 OFFCURVE",
"-93 2018 CURVE SMOOTH",
"-99 2007 OFFCURVE",
"-102 1996 OFFCURVE",
"-102 1985 CURVE SMOOTH",
"-102 1959 OFFCURVE",
"-87 1934 OFFCURVE",
"-63 1921 CURVE",
"-63 1921 OFFCURVE",
"-29 1899 OFFCURVE",
"-8 1843 CURVE SMOOTH",
"4 1811 OFFCURVE",
"10 1774 OFFCURVE",
"10 1732 CURVE SMOOTH",
"10 1693 OFFCURVE",
"43 1661 OFFCURVE",
"82 1661 CURVE SMOOTH"
);
}
);
width = 0;
}
);
unicode = 0670;
},
{
glyphname = uni0656;
lastChange = "2015-05-23 20:49:39 +0000";
layers = (
{
anchors = (
{
name = _bottom;
position = "{10, -375}";
},
{
name = bottom;
position = "{12, -795}";
}
);
layerId = "9E57200A-6CEB-4B70-98B9-A6ACB8F2607D";
name = Bold;
paths = (
{
closed = 1;
nodes = (
"48 -795 OFFCURVE",
"78 -765 OFFCURVE",
"78 -726 CURVE SMOOTH",
"78 -464 LINE SMOOTH",
"78 -425 OFFCURVE",
"48 -395 OFFCURVE",
"9 -395 CURVE SMOOTH",
"-30 -395 OFFCURVE",
"-59 -425 OFFCURVE",
"-59 -464 CURVE SMOOTH",
"-59 -726 LINE SMOOTH",
"-59 -765 OFFCURVE",
"-30 -795 OFFCURVE",
"9 -795 CURVE SMOOTH"
);
}
);
width = 0;
}
);
unicode = 0656;
},
{
glyphname = uni0615;
lastChange = "2015-05-23 20:49:51 +0000";
layers = (
{
anchors = (
{
name = _top;
position = "{11, 1232}";
},
{
name = top;
position = "{13, 1710}";
}
);
layerId = "9E57200A-6CEB-4B70-98B9-A6ACB8F2607D";
name = Bold;
paths = (
{
closed = 1;
nodes = (
"116 1229 LINE SMOOTH",
"240 1229 OFFCURVE",
"273 1305 OFFCURVE",
"273 1365 CURVE SMOOTH",
"273 1517 OFFCURVE",
"168 1562 OFFCURVE",
"61 1562 CURVE SMOOTH",
"-10 1562 OFFCURVE",
"-82 1519 OFFCURVE",
"-128 1439 CURVE",
"-128 1638 LINE SMOOTH",
"-128 1677 OFFCURVE",
"-136 1726 OFFCURVE",
"-183 1726 CURVE SMOOTH",
"-220 1726 OFFCURVE",
"-242 1704 OFFCURVE",
"-242 1691 CURVE SMOOTH",
"-242 1688 OFFCURVE",
"-241 1686 OFFCURVE",
"-239 1685 CURVE",
"-239 1685 OFFCURVE",
"-210 1678 OFFCURVE",
"-210 1634 CURVE SMOOTH",
"-210 1354 LINE",
"-221 1354 OFFCURVE",
"-251 1352 OFFCURVE",
"-251 1334 CURVE SMOOTH",
"-251 1332 OFFCURVE",
"-252 1314 OFFCURVE",
"-252 1294 CURVE SMOOTH",
"-252 1272 OFFCURVE",
"-251 1247 OFFCURVE",
"-246 1240 CURVE",
"-240 1232 OFFCURVE",
"-232 1229 OFFCURVE",
"-222 1229 CURVE SMOOTH"
);
},
{
closed = 1;
nodes = (
"-103 1424 OFFCURVE",
"-3 1483 OFFCURVE",
"73 1483 CURVE SMOOTH",
"123 1483 OFFCURVE",
"163 1457 OFFCURVE",
"163 1392 CURVE SMOOTH",
"163 1358 OFFCURVE",
"147 1354 OFFCURVE",
"124 1354 CURVE SMOOTH",
"-127 1354 LINE"
);
}
);
width = 0;
}
);
unicode = 0615;
},
{
glyphname = uni062F.fina;
lastChange = "2015-05-23 21:57:11 +0000";
layers = (
{
anchors = (
{
name = bottom;
position = "{509, -120}";
},
{
name = top;
position = "{509, 1254}";
}
);
layerId = "9E57200A-6CEB-4B70-98B9-A6ACB8F2607D";
name = Bold;
paths = (
{
closed = 1;
nodes = (
"558 0 LINE SMOOTH",
"652 0 OFFCURVE",
"727 27 OFFCURVE",
"787 71 CURVE",
"857 21 OFFCURVE",
"941 0 OFFCURVE",
"1027 0 CURVE SMOOTH",
"1283 0 LINE SMOOTH",
"1286 0 OFFCURVE",
"1288 2 OFFCURVE",
"1288 6 CURVE SMOOTH",
"1288 220 LINE SMOOTH",
"1288 224 OFFCURVE",
"1286 226 OFFCURVE",
"1283 226 CURVE SMOOTH",
"918 226 LINE",
"990 356 OFFCURVE",
"1009 505 OFFCURVE",
"1009 565 CURVE SMOOTH",
"1009 987 OFFCURVE",
"605 1054 OFFCURVE",
"491 1054 CURVE SMOOTH",
"395 1054 OFFCURVE",
"95 994 OFFCURVE",
"95 806 CURVE SMOOTH",
"95 650 OFFCURVE",
"179 611 OFFCURVE",
"262 611 CURVE SMOOTH",
"325 611 OFFCURVE",
"387 634 OFFCURVE",
"411 646 CURVE",
"411 663 OFFCURVE",
"410 680 OFFCURVE",
"410 698 CURVE SMOOTH",
"410 762 OFFCURVE",
"421 826 OFFCURVE",
"519 854 CURVE",
"591 811 OFFCURVE",
"640 728 OFFCURVE",
"640 585 CURVE SMOOTH",
"640 453 OFFCURVE",
"626 226 OFFCURVE",
"309 226 CURVE SMOOTH",
"228 226 LINE SMOOTH",
"106 226 OFFCURVE",
"94 170 OFFCURVE",
"94 109 CURVE SMOOTH",
"94 84 OFFCURVE",
"107 0 OFFCURVE",
"193 0 CURVE SMOOTH"
);
}
);
width = 1248;
}
);
unicode = FEAA;
},
{
glyphname = wasla;
lastChange = "2015-05-23 20:49:51 +0000";
layers = (
{
anchors = (
{
name = _top;
position = "{0, 1577}";
},
{
name = top;
position = "{2, 1911}";
}
);
layerId = "9E57200A-6CEB-4B70-98B9-A6ACB8F2607D";
name = Bold;
paths = (
{
closed = 1;
nodes = (
"92 1577 LINE SMOOTH",
"164 1577 OFFCURVE",
"249 1605 OFFCURVE",
"249 1713 CURVE SMOOTH",
"249 1863 OFFCURVE",
"150 1911 OFFCURVE",
"41 1911 CURVE SMOOTH",
"-104 1911 OFFCURVE",
"-208 1737 OFFCURVE",
"-208 1702 CURVE",
"-236 1702 LINE SMOOTH",
"-253 1702 OFFCURVE",
"-269 1702 OFFCURVE",
"-277 1682 CURVE",
"-277 1680 OFFCURVE",
"-278 1666 OFFCURVE",
"-278 1648 CURVE SMOOTH",
"-278 1625 OFFCURVE",
"-277 1596 OFFCURVE",
"-271 1588 CURVE SMOOTH",
"-265 1580 OFFCURVE",
"-257 1577 OFFCURVE",
"-247 1577 CURVE SMOOTH"
);
},
{
closed = 1;
nodes = (
"-127 1773 OFFCURVE",
"-26 1831 OFFCURVE",
"50 1831 CURVE SMOOTH",
"99 1831 OFFCURVE",
"137 1807 OFFCURVE",
"139 1748 CURVE SMOOTH",
"139 1740 LINE SMOOTH",
"139 1703 OFFCURVE",
"123 1702 OFFCURVE",
"99 1702 CURVE SMOOTH",
"-152 1702 LINE"
);
}
);
width = 0;
}
);
},
{
glyphname = uni066E.init;
lastChange = "2015-05-23 21:57:25 +0000";
layers = (
{
anchors = (
{
name = bottom;
position = "{139, -120}";
},
{
name = top;
position = "{139, 1228}";
}
);
layerId = "9E57200A-6CEB-4B70-98B9-A6ACB8F2607D";
name = Bold;
paths = (
{
closed = 1;
nodes = (
"136 0 LINE SMOOTH",
"460 0 OFFCURVE",
"612 300 OFFCURVE",
"612 605 CURVE SMOOTH",
"612 889 OFFCURVE",
"506 1053 OFFCURVE",
"328 1053 CURVE SMOOTH",
"189 1053 OFFCURVE",
"127 972 OFFCURVE",
"127 919 CURVE SMOOTH",
"127 915 OFFCURVE",
"134 909 OFFCURVE",
"134 909 CURVE",
"250 833 OFFCURVE",
"294 753 OFFCURVE",
"294 534 CURVE SMOOTH",
"294 314 OFFCURVE",
"218 226 OFFCURVE",
"131 226 CURVE SMOOTH",
"-35 226 LINE SMOOTH",
"-38 226 OFFCURVE",
"-40 224 OFFCURVE",
"-40 220 CURVE SMOOTH",
"-40 6 LINE SMOOTH",
"-40 2 OFFCURVE",
"-38 0 OFFCURVE",
"-35 0 CURVE SMOOTH"
);
}
);
width = 712;
}
);
},
{
glyphname = uni066E.medi;
lastChange = "2015-05-23 21:57:43 +0000";
layers = (
{
anchors = (
{
name = bottom;
position = "{418, -120}";
},
{
name = top;
position = "{418, 1228}";
}
);
layerId = "9E57200A-6CEB-4B70-98B9-A6ACB8F2607D";
name = Bold;
paths = (
{
closed = 1;
nodes = (
"17 0 LINE SMOOTH",
"113 0 OFFCURVE",
"193 29 OFFCURVE",
"257 82 CURVE",
"324 29 OFFCURVE",
"402 0 OFFCURVE",
"490 0 CURVE SMOOTH",
"867 0 LINE SMOOTH",
"870 0 OFFCURVE",
"873 3 OFFCURVE",
"873 7 CURVE SMOOTH",
"873 220 LINE SMOOTH",
"873 223 OFFCURVE",
"870 226 OFFCURVE",
"867 226 CURVE SMOOTH",
"677 226 LINE SMOOTH",
"616 226 OFFCURVE",
"596 276 OFFCURVE",
"596 411 CURVE SMOOTH",
"596 897 LINE SMOOTH",
"596 981 OFFCURVE",
"526 1053 OFFCURVE",
"418 1053 CURVE SMOOTH",
"320 1053 OFFCURVE",
"244 995 OFFCURVE",
"244 904 CURVE SMOOTH",
"244 413 LINE SMOOTH",
"244 320 OFFCURVE",
"207 226 OFFCURVE",
"142 226 CURVE SMOOTH",
"-13 226 LINE SMOOTH",
"-17 226 OFFCURVE",
"-20 223 OFFCURVE",
"-20 220 CURVE SMOOTH",
"-20 7 LINE SMOOTH",
"-20 3 OFFCURVE",
"-17 0 OFFCURVE",
"-13 0 CURVE SMOOTH"
);
}
);
width = 833;
}
);
},
{
glyphname = beh_dotless_alt.init;
lastChange = "2015-05-23 21:57:50 +0000";
layers = (
{
anchors = (
{
name = bottom;
position = "{222, -120}";
},
{
name = top;
position = "{349, 1228}";
}
);
layerId = "9E57200A-6CEB-4B70-98B9-A6ACB8F2607D";
name = Bold;
paths = (
{
closed = 1;
nodes = (
"219 0 LINE SMOOTH",
"543 0 OFFCURVE",
"695 300 OFFCURVE",
"695 605 CURVE SMOOTH",
"695 889 OFFCURVE",
"589 1053 OFFCURVE",
"411 1053 CURVE SMOOTH",
"272 1053 OFFCURVE",
"210 972 OFFCURVE",
"210 919 CURVE SMOOTH",
"210 915 OFFCURVE",
"217 909 OFFCURVE",
"217 909 CURVE",
"333 833 OFFCURVE",
"377 753 OFFCURVE",
"377 534 CURVE SMOOTH",
"377 314 OFFCURVE",
"301 226 OFFCURVE",
"214 226 CURVE SMOOTH",
"-35 226 LINE SMOOTH",
"-38 226 OFFCURVE",
"-40 224 OFFCURVE",
"-40 220 CURVE SMOOTH",
"-40 6 LINE SMOOTH",
"-40 2 OFFCURVE",
"-38 0 OFFCURVE",
"-35 0 CURVE SMOOTH"
);
}
);
width = 870;
}
);
},
{
glyphname = beh_dotless_alt.medi;
lastChange = "2015-05-23 21:57:59 +0000";
layers = (
{
anchors = (
{
name = bottom;
position = "{463, -120}";
},
{
name = top;
position = "{463, 1228}";
}
);
layerId = "9E57200A-6CEB-4B70-98B9-A6ACB8F2607D";
name = Bold;
paths = (
{
closed = 1;
nodes = (
"62 0 LINE SMOOTH",
"158 0 OFFCURVE",
"238 29 OFFCURVE",
"302 82 CURVE",
"369 29 OFFCURVE",
"447 0 OFFCURVE",
"535 0 CURVE SMOOTH",
"949 0 LINE SMOOTH",
"952 0 OFFCURVE",
"955 3 OFFCURVE",
"955 7 CURVE SMOOTH",
"955 220 LINE SMOOTH",
"955 223 OFFCURVE",
"952 226 OFFCURVE",
"949 226 CURVE SMOOTH",
"722 226 LINE SMOOTH",
"661 226 OFFCURVE",
"641 276 OFFCURVE",
"641 411 CURVE SMOOTH",
"641 897 LINE SMOOTH",
"641 981 OFFCURVE",
"571 1053 OFFCURVE",
"463 1053 CURVE SMOOTH",
"365 1053 OFFCURVE",
"289 995 OFFCURVE",
"289 904 CURVE SMOOTH",
"289 413 LINE SMOOTH",
"289 320 OFFCURVE",
"252 226 OFFCURVE",
"187 226 CURVE SMOOTH",
"-33 226 LINE SMOOTH",
"-37 226 OFFCURVE",
"-40 223 OFFCURVE",
"-40 220 CURVE SMOOTH",
"-40 7 LINE SMOOTH",
"-40 3 OFFCURVE",
"-37 0 OFFCURVE",
"-33 0 CURVE SMOOTH"
);
}
);
width = 915;
}
);
},
{
glyphname = uni06C1.fina;
lastChange = "2015-05-23 21:58:09 +0000";
layers = (
{
anchors = (
{
name = bottom;
position = "{965, -120}";
},
{
name = top;
position = "{965, 1173}";
}
);
layerId = "9E57200A-6CEB-4B70-98B9-A6ACB8F2607D";
name = Bold;
paths = (
{
closed = 1;
nodes = (
"327 0 LINE",
"327 113 LINE SMOOTH",
"327 415 OFFCURVE",
"802 817 OFFCURVE",
"992 817 CURVE",
"992 113 LINE SMOOTH",
"992 50 OFFCURVE",
"1041 0 OFFCURVE",
"1104 0 CURVE SMOOTH",
"1567 0 LINE SMOOTH",
"1570 0 OFFCURVE",
"1573 3 OFFCURVE",
"1573 6 CURVE SMOOTH",
"1573 220 LINE SMOOTH",
"1573 224 OFFCURVE",
"1570 226 OFFCURVE",
"1567 226 CURVE SMOOTH",
"1306 226 LINE",
"1306 940 LINE SMOOTH",
"1306 1002 OFFCURVE",
"1255 1053 OFFCURVE",
"1193 1053 CURVE SMOOTH",
"1071 1053 OFFCURVE",
"943 1024 OFFCURVE",
"811 969 CURVE SMOOTH",
"690 919 OFFCURVE",
"571 846 OFFCURVE",
"466 759 CURVE SMOOTH",
"360 670 OFFCURVE",
"271 568 OFFCURVE",
"208 464 CURVE SMOOTH",
"137 346 OFFCURVE",
"101 227 OFFCURVE",
"101 113 CURVE SMOOTH",
"101 0 LINE"
);
}
);
width = 1533;
}
);
unicode = 06C1;
},
{
glyphname = onedot.below;
lastChange = "2015-05-23 20:49:39 +0000";
layers = (
{
layerId = "9E57200A-6CEB-4B70-98B9-A6ACB8F2607D";
name = Bold;
paths = (
{
closed = 1;
nodes = (
"106 -488 OFFCURVE",
"174 -421 OFFCURVE",
"174 -338 CURVE SMOOTH",
"174 -255 OFFCURVE",
"106 -187 OFFCURVE",
"23 -187 CURVE SMOOTH",
"-60 -187 OFFCURVE",
"-127 -255 OFFCURVE",
"-127 -338 CURVE SMOOTH",
"-127 -421 OFFCURVE",
"-60 -488 OFFCURVE",
"23 -488 CURVE SMOOTH"
);
}
);
width = 0;
}
);
},
{
glyphname = twodots.below;
lastChange = "2015-05-23 20:49:39 +0000";
layers = (
{
layerId = "9E57200A-6CEB-4B70-98B9-A6ACB8F2607D";
name = Bold;
paths = (
{
closed = 1;
nodes = (
"287 -488 OFFCURVE",
"355 -421 OFFCURVE",
"355 -338 CURVE SMOOTH",
"355 -255 OFFCURVE",
"287 -187 OFFCURVE",
"204 -187 CURVE SMOOTH",
"121 -187 OFFCURVE",
"54 -255 OFFCURVE",
"54 -338 CURVE SMOOTH",
"54 -421 OFFCURVE",
"121 -488 OFFCURVE",
"204 -488 CURVE SMOOTH"
);
},
{
closed = 1;
nodes = (
"-92 -488 OFFCURVE",
"-24 -421 OFFCURVE",
"-24 -338 CURVE SMOOTH",
"-24 -255 OFFCURVE",
"-92 -187 OFFCURVE",
"-175 -187 CURVE SMOOTH",
"-258 -187 OFFCURVE",
"-325 -255 OFFCURVE",
"-325 -338 CURVE SMOOTH",
"-325 -421 OFFCURVE",
"-258 -488 OFFCURVE",
"-175 -488 CURVE SMOOTH"
);
}
);
width = 0;
}
);
},
{
glyphname = alef_alt.isol;
lastChange = "2015-05-23 21:58:17 +0000";
layers = (
{
anchors = (
{
name = bottom;
position = "{380, -120}";
},
{
name = top;
position = "{317, 1553}";
}
);
layerId = "9E57200A-6CEB-4B70-98B9-A6ACB8F2607D";
name = Bold;
paths = (
{
closed = 1;
nodes = (
"515 0 OFFCURVE",
"554 131 OFFCURVE",
"554 176 CURVE SMOOTH",
"554 1115 LINE SMOOTH",
"554 1350 OFFCURVE",
"393 1433 OFFCURVE",
"324 1433 CURVE SMOOTH",
"257 1433 OFFCURVE",
"136 1415 OFFCURVE",
"81 1302 CURVE",
"77 1295 OFFCURVE",
"74 1289 OFFCURVE",
"72 1283 CURVE",
"70 1273 OFFCURVE",
"74 1263 OFFCURVE",
"85 1258 CURVE SMOOTH",
"120 1241 OFFCURVE",
"206 1223 OFFCURVE",
"206 1042 CURVE SMOOTH",
"205 180 LINE SMOOTH",
"205 135 OFFCURVE",
"249 0 OFFCURVE",
"380 0 CURVE SMOOTH"
);
}
);
width = 654;
}
);
},
{
glyphname = alef_alt.fina;
lastChange = "2015-05-23 21:58:20 +0000";
layers = (
{
anchors = (
{
name = bottom;
position = "{380, -120}";
},
{
name = top;
position = "{317, 1553}";
}
);
layerId = "9E57200A-6CEB-4B70-98B9-A6ACB8F2607D";
name = Bold;
paths = (
{
closed = 1;
nodes = (
"812 0 LINE SMOOTH",
"815 0 OFFCURVE",
"818 3 OFFCURVE",
"818 7 CURVE SMOOTH",
"818 220 LINE SMOOTH",
"818 223 OFFCURVE",
"815 226 OFFCURVE",
"812 226 CURVE SMOOTH",
"652 226 LINE SMOOTH",
"589 226 OFFCURVE",
"552 281 OFFCURVE",
"552 381 CURVE SMOOTH",
"552 1133 LINE SMOOTH",
"552 1353 OFFCURVE",
"391 1433 OFFCURVE",
"322 1433 CURVE SMOOTH",
"255 1433 OFFCURVE",
"129 1414 OFFCURVE",
"75 1293 CURVE",
"75 1293 OFFCURVE",
"71 1283 OFFCURVE",
"72 1283 CURVE",
"70 1273 OFFCURVE",
"74 1265 OFFCURVE",
"84 1258 CURVE",
"84 1258 OFFCURVE",
"205 1217 OFFCURVE",
"205 1042 CURVE SMOOTH",
"205 342 LINE SMOOTH",
"205 242 OFFCURVE",
"341 0 OFFCURVE",
"589 0 CURVE SMOOTH"
);
}
);
width = 778;
}
);
},
{
glyphname = uni06A9.init;
lastChange = "2015-05-23 22:00:11 +0000";
layers = (
{
anchors = (
{
name = bottom;
position = "{572, -120}";
},
{
name = top;
position = "{572, 1837}";
}
);
layerId = "9E57200A-6CEB-4B70-98B9-A6ACB8F2607D";
name = Bold;
paths = (
{
closed = 1;
nodes = (
"822 0 LINE SMOOTH",
"1025 0 OFFCURVE",
"1275 164 OFFCURVE",
"1275 533 CURVE SMOOTH",
"1275 842 OFFCURVE",
"980 1057 OFFCURVE",
"728 1057 CURVE SMOOTH",
"348 1057 LINE",
"348 1284 OFFCURVE",
"645 1416 OFFCURVE",
"929 1416 CURVE SMOOTH",
"1063 1416 OFFCURVE",
"1195 1387 OFFCURVE",
"1291 1324 CURVE",
"1311 1335 OFFCURVE",
"1348 1400 OFFCURVE",
"1348 1474 CURVE SMOOTH",
"1348 1587 OFFCURVE",
"1262 1721 OFFCURVE",
"899 1721 CURVE SMOOTH",
"546 1721 OFFCURVE",
"97 1552 OFFCURVE",
"97 1160 CURVE SMOOTH",
"97 1057 OFFCURVE",
"154 831 OFFCURVE",
"351 831 CURVE SMOOTH",
"536 831 LINE SMOOTH",
"909 831 OFFCURVE",
"922 617 OFFCURVE",
"922 520 CURVE SMOOTH",
"922 319 OFFCURVE",
"834 226 OFFCURVE",
"748 226 CURVE SMOOTH",
"-33 226 LINE SMOOTH",
"-36 226 OFFCURVE",
"-40 223 OFFCURVE",
"-40 220 CURVE SMOOTH",
"-40 7 LINE SMOOTH",
"-40 4 OFFCURVE",
"-36 0 OFFCURVE",
"-33 0 CURVE SMOOTH"
);
}
);
width = 1501;
}
);
unicode = FB90;
},
{
glyphname = uni06A9.medi;
lastChange = "2015-05-23 22:00:17 +0000";
layers = (
{
anchors = (
{
name = bottom;
position = "{572, -120}";
},
{
name = top;
position = "{572, 1837}";
}
);
layerId = "9E57200A-6CEB-4B70-98B9-A6ACB8F2607D";
name = Bold;
paths = (
{
closed = 1;
nodes = (
"822 0 LINE SMOOTH",
"902 0 OFFCURVE",
"990 26 OFFCURVE",
"1067 80 CURVE",
"1139 24 OFFCURVE",
"1225 0 OFFCURVE",
"1317 0 CURVE SMOOTH",
"1619 0 LINE SMOOTH",
"1622 0 OFFCURVE",
"1624 2 OFFCURVE",
"1624 6 CURVE SMOOTH",
"1624 220 LINE SMOOTH",
"1624 224 OFFCURVE",
"1622 226 OFFCURVE",
"1619 226 CURVE SMOOTH",
"1200 226 LINE",
"1246 306 OFFCURVE",
"1275 407 OFFCURVE",
"1275 533 CURVE SMOOTH",
"1275 842 OFFCURVE",
"980 1057 OFFCURVE",
"728 1057 CURVE SMOOTH",
"348 1057 LINE",
"348 1284 OFFCURVE",
"645 1416 OFFCURVE",
"929 1416 CURVE SMOOTH",
"1063 1416 OFFCURVE",
"1195 1387 OFFCURVE",
"1291 1324 CURVE",
"1311 1335 OFFCURVE",
"1348 1400 OFFCURVE",
"1348 1474 CURVE SMOOTH",
"1348 1587 OFFCURVE",
"1262 1721 OFFCURVE",
"899 1721 CURVE SMOOTH",
"546 1721 OFFCURVE",
"97 1552 OFFCURVE",
"97 1160 CURVE SMOOTH",
"97 1057 OFFCURVE",
"154 831 OFFCURVE",
"351 831 CURVE SMOOTH",
"536 831 LINE SMOOTH",
"909 831 OFFCURVE",
"922 617 OFFCURVE",
"922 520 CURVE SMOOTH",
"922 319 OFFCURVE",
"834 226 OFFCURVE",
"748 226 CURVE SMOOTH",
"-33 226 LINE SMOOTH",
"-36 226 OFFCURVE",
"-40 223 OFFCURVE",
"-40 220 CURVE SMOOTH",
"-40 7 LINE SMOOTH",
"-40 4 OFFCURVE",
"-36 0 OFFCURVE",
"-33 0 CURVE SMOOTH"
);
}
);
width = 1584;
}
);
unicode = FB91;
},
{
glyphname = uni06D3;
lastChange = "2015-05-23 20:49:51 +0000";
layers = (
{
layerId = "9E57200A-6CEB-4B70-98B9-A6ACB8F2607D";
name = Bold;
paths = (
{
closed = 1;
nodes = (
"1676 -604 LINE",
"1676 -379 LINE",
"545 -379 LINE SMOOTH",
"494 -379 OFFCURVE",
"447 -370 OFFCURVE",
"411 -341 CURVE SMOOTH",
"375 -313 OFFCURVE",
"350 -265 OFFCURVE",
"345 -189 CURVE",
"350 -113 OFFCURVE",
"375 -66 OFFCURVE",
"411 -38 CURVE SMOOTH",
"446 -10 OFFCURVE",
"493 0 OFFCURVE",
"542 0 CURVE SMOOTH",
"935 0 LINE SMOOTH",
"1030 2 OFFCURVE",
"1112 34 OFFCURVE",
"1181 95 CURVE SMOOTH",
"1254 157 OFFCURVE",
"1299 239 OFFCURVE",
"1316 342 CURVE",
"1316 343 OFFCURVE",
"1316 349 OFFCURVE",
"1317 361 CURVE",
"1317 414 LINE SMOOTH",
"1317 438 OFFCURVE",
"1317 469 OFFCURVE",
"1317 507 CURVE SMOOTH",
"1317 645 LINE",
"971 645 LINE",
"971 381 LINE",
"967 280 OFFCURVE",
"932 229 OFFCURVE",
"872 226 CURVE",
"546 226 LINE",
"447 219 OFFCURVE",
"338 192 OFFCURVE",
"251 129 CURVE SMOOTH",
"164 65 OFFCURVE",
"100 -34 OFFCURVE",
"92 -183 CURVE",
"92 -193 LINE",
"97 -293 OFFCURVE",
"128 -371 OFFCURVE",
"173 -430 CURVE SMOOTH",
"218 -490 OFFCURVE",
"279 -531 OFFCURVE",
"344 -559 CURVE SMOOTH",
"409 -587 OFFCURVE",
"479 -600 OFFCURVE",
"546 -604 CURVE"
);
},
{
closed = 1;
nodes = (
"207 489 OFFCURVE",
"216 499 OFFCURVE",
"227 504 CURVE SMOOTH",
"249 514 OFFCURVE",
"269 514 OFFCURVE",
"325 521 CURVE SMOOTH",
"353 524 OFFCURVE",
"382 528 OFFCURVE",
"412 532 CURVE SMOOTH",
"493 541 LINE SMOOTH",
"517 544 OFFCURVE",
"532 545 OFFCURVE",
"539 546 CURVE",
"552 549 OFFCURVE",
"562 550 OFFCURVE",
"569 563 CURVE SMOOTH",
"576 576 OFFCURVE",
"578 588 OFFCURVE",
"578 599 CURVE SMOOTH",
"578 606 OFFCURVE",
"578 613 OFFCURVE",
"576 621 CURVE",
"573 626 OFFCURVE",
"572 630 OFFCURVE",
"569 637 CURVE",
"559 654 OFFCURVE",
"546 658 OFFCURVE",
"531 658 CURVE SMOOTH",
"525 658 OFFCURVE",
"519 658 OFFCURVE",
"513 657 CURVE SMOOTH",
"506 656 OFFCURVE",
"483 653 OFFCURVE",
"479 653 CURVE",
"472 652 OFFCURVE",
"463 651 OFFCURVE",
"453 651 CURVE SMOOTH",
"442 651 OFFCURVE",
"432 652 OFFCURVE",
"421 654 CURVE",
"400 657 OFFCURVE",
"379 664 OFFCURVE",
"367 677 CURVE",
"348 701 OFFCURVE",
"337 724 OFFCURVE",
"334 746 CURVE SMOOTH",
"333 755 OFFCURVE",
"332 763 OFFCURVE",
"332 771 CURVE SMOOTH",
"332 804 OFFCURVE",
"341 831 OFFCURVE",
"354 849 CURVE SMOOTH",
"362 860 OFFCURVE",
"367 867 OFFCURVE",
"370 870 CURVE",
"382 868 OFFCURVE",
"392 864 OFFCURVE",
"399 859 CURVE",
"413 848 OFFCURVE",
"419 834 OFFCURVE",
"420 818 CURVE",
"421 810 OFFCURVE",
"421 802 OFFCURVE",
"422 794 CURVE",
"438 787 OFFCURVE",
"450 784 OFFCURVE",
"462 784 CURVE SMOOTH",
"468 784 OFFCURVE",
"475 785 OFFCURVE",
"482 786 CURVE",
"515 791 OFFCURVE",
"535 811 OFFCURVE",
"542 844 CURVE",
"543 850 OFFCURVE",
"543 855 OFFCURVE",
"543 861 CURVE SMOOTH",
"543 896 OFFCURVE",
"524 925 OFFCURVE",
"488 940 CURVE SMOOTH",
"457 952 OFFCURVE",
"428 958 OFFCURVE",
"399 958 CURVE SMOOTH",
"367 958 OFFCURVE",
"336 951 OFFCURVE",
"303 936 CURVE SMOOTH",
"266 920 OFFCURVE",
"235 892 OFFCURVE",
"214 860 CURVE SMOOTH",
"193 827 OFFCURVE",
"182 789 OFFCURVE",
"183 752 CURVE",
"187 700 OFFCURVE",
"200 655 OFFCURVE",
"227 620 CURVE",
"220 620 LINE",
"207 618 LINE",
"173 611 OFFCURVE",
"154 589 OFFCURVE",
"151 552 CURVE",
"147 519 OFFCURVE",
"169 487 OFFCURVE",
"200 476 CURVE"
);
}
);
width = 1379;
}
);
unicode = 06D3;
},
{
glyphname = uni06D3.fina;
lastChange = "2015-05-23 20:49:50 +0000";
layers = (
{
layerId = "9E57200A-6CEB-4B70-98B9-A6ACB8F2607D";
name = Bold;
paths = (
{
closed = 1;
nodes = (
"1425 -604 LINE",
"1425 -379 LINE",
"544 -379 LINE SMOOTH",
"493 -379 OFFCURVE",
"446 -370 OFFCURVE",
"410 -341 CURVE SMOOTH",
"374 -313 OFFCURVE",
"349 -265 OFFCURVE",
"344 -189 CURVE",
"349 -113 OFFCURVE",
"374 -66 OFFCURVE",
"410 -38 CURVE SMOOTH",
"445 -10 OFFCURVE",
"492 0 OFFCURVE",
"541 0 CURVE SMOOTH",
"891 0 LINE SMOOTH",
"895 0 OFFCURVE",
"897 2 OFFCURVE",
"897 6 CURVE SMOOTH",
"897 219 LINE SMOOTH",
"897 224 OFFCURVE",
"895 226 OFFCURVE",
"891 226 CURVE SMOOTH",
"545 226 LINE",
"446 219 OFFCURVE",
"337 192 OFFCURVE",
"250 129 CURVE SMOOTH",
"163 65 OFFCURVE",
"100 -34 OFFCURVE",
"92 -183 CURVE",
"92 -193 LINE",
"100 -344 OFFCURVE",
"163 -443 OFFCURVE",
"250 -507 CURVE SMOOTH",
"337 -571 OFFCURVE",
"446 -599 OFFCURVE",
"545 -604 CURVE"
);
},
{
closed = 1;
nodes = (
"289 405 OFFCURVE",
"298 415 OFFCURVE",
"309 420 CURVE SMOOTH",
"331 430 OFFCURVE",
"351 430 OFFCURVE",
"407 437 CURVE SMOOTH",
"435 440 OFFCURVE",
"464 444 OFFCURVE",
"494 448 CURVE SMOOTH",
"575 457 LINE SMOOTH",
"599 460 OFFCURVE",
"614 461 OFFCURVE",
"621 462 CURVE",
"634 465 OFFCURVE",
"644 466 OFFCURVE",
"651 479 CURVE SMOOTH",
"658 492 OFFCURVE",
"660 504 OFFCURVE",
"660 515 CURVE SMOOTH",
"660 522 OFFCURVE",
"660 529 OFFCURVE",
"658 537 CURVE",
"655 542 OFFCURVE",
"654 546 OFFCURVE",
"651 553 CURVE",
"641 570 OFFCURVE",
"628 574 OFFCURVE",
"613 574 CURVE SMOOTH",
"607 574 OFFCURVE",
"601 574 OFFCURVE",
"595 573 CURVE SMOOTH",
"588 572 OFFCURVE",
"565 569 OFFCURVE",
"561 569 CURVE",
"554 568 OFFCURVE",
"545 567 OFFCURVE",
"535 567 CURVE SMOOTH",
"524 567 OFFCURVE",
"514 568 OFFCURVE",
"503 570 CURVE",
"482 573 OFFCURVE",
"461 580 OFFCURVE",
"449 593 CURVE",
"430 617 OFFCURVE",
"419 640 OFFCURVE",
"416 662 CURVE SMOOTH",
"415 671 OFFCURVE",
"414 679 OFFCURVE",
"414 687 CURVE SMOOTH",
"414 720 OFFCURVE",
"423 747 OFFCURVE",
"436 765 CURVE SMOOTH",
"444 776 OFFCURVE",
"449 783 OFFCURVE",
"452 786 CURVE",
"464 784 OFFCURVE",
"474 780 OFFCURVE",
"481 775 CURVE",
"495 764 OFFCURVE",
"501 750 OFFCURVE",
"502 734 CURVE",
"503 726 OFFCURVE",
"503 718 OFFCURVE",
"504 710 CURVE",
"520 703 OFFCURVE",
"532 700 OFFCURVE",
"544 700 CURVE SMOOTH",
"550 700 OFFCURVE",
"557 701 OFFCURVE",
"564 702 CURVE",
"597 707 OFFCURVE",
"617 727 OFFCURVE",
"624 760 CURVE",
"625 766 OFFCURVE",
"625 771 OFFCURVE",
"625 777 CURVE SMOOTH",
"625 812 OFFCURVE",
"606 841 OFFCURVE",
"570 856 CURVE SMOOTH",
"539 868 OFFCURVE",
"510 874 OFFCURVE",
"481 874 CURVE SMOOTH",
"449 874 OFFCURVE",
"418 867 OFFCURVE",
"385 852 CURVE SMOOTH",
"348 836 OFFCURVE",
"317 808 OFFCURVE",
"296 776 CURVE SMOOTH",
"275 743 OFFCURVE",
"264 705 OFFCURVE",
"265 668 CURVE",
"269 616 OFFCURVE",
"282 571 OFFCURVE",
"309 536 CURVE",
"302 536 LINE",
"289 534 LINE",
"255 527 OFFCURVE",
"236 505 OFFCURVE",
"233 468 CURVE",
"229 435 OFFCURVE",
"251 403 OFFCURVE",
"282 392 CURVE"
);
}
);
width = 795;
}
);
unicode = FBB1;
},
{
glyphname = heh_ae.fina;
lastChange = "2015-05-23 22:01:16 +0000";
layers = (
{
layerId = "9E57200A-6CEB-4B70-98B9-A6ACB8F2607D";
name = Bold;
paths = (
{
closed = 1;
nodes = (
"1357 0 LINE SMOOTH",
"1361 0 OFFCURVE",
"1363 2 OFFCURVE",
"1363 6 CURVE SMOOTH",
"1363 220 LINE SMOOTH",
"1363 224 OFFCURVE",
"1361 226 OFFCURVE",
"1357 226 CURVE SMOOTH",
"1124 226 LINE",
"1116 228 LINE",
"1111 229 OFFCURVE",
"1108 231 OFFCURVE",
"1106 234 CURVE",
"1106 504 LINE SMOOTH",
"1106 525 OFFCURVE",
"1105 562 OFFCURVE",
"1103 605 CURVE SMOOTH",
"1101 648 OFFCURVE",
"1096 696 OFFCURVE",
"1092 738 CURVE SMOOTH",
"1087 780 OFFCURVE",
"1082 817 OFFCURVE",
"1075 837 CURVE SMOOTH",
"1064 866 OFFCURVE",
"1051 900 OFFCURVE",
"1029 930 CURVE SMOOTH",
"1007 960 OFFCURVE",
"976 986 OFFCURVE",
"935 1003 CURVE SMOOTH",
"892 1020 OFFCURVE",
"857 1033 OFFCURVE",
"817 1041 CURVE SMOOTH",
"777 1049 OFFCURVE",
"735 1053 OFFCURVE",
"679 1053 CURVE SMOOTH",
"506 1053 OFFCURVE",
"376 1006 OFFCURVE",
"279 922 CURVE SMOOTH",
"216 870 OFFCURVE",
"180 807 OFFCURVE",
"159 737 CURVE SMOOTH",
"138 667 OFFCURVE",
"133 590 OFFCURVE",
"133 510 CURVE SMOOTH",
"133 438 OFFCURVE",
"139 366 OFFCURVE",
"159 300 CURVE SMOOTH",
"179 234 OFFCURVE",
"211 175 OFFCURVE",
"263 128 CURVE SMOOTH",
"311 84 OFFCURVE",
"354 54 OFFCURVE",
"400 34 CURVE SMOOTH",
"446 13 OFFCURVE",
"495 2 OFFCURVE",
"556 1 CURVE",
"557 2 OFFCURVE",
"560 2 OFFCURVE",
"563 2 CURVE SMOOTH",
"566 2 OFFCURVE",
"569 2 OFFCURVE",
"570 1 CURVE",
"619 2 OFFCURVE",
"661 9 OFFCURVE",
"700 22 CURVE SMOOTH",
"739 35 OFFCURVE",
"773 54 OFFCURVE",
"809 81 CURVE",
"818 75 LINE SMOOTH",
"831 66 OFFCURVE",
"847 57 OFFCURVE",
"868 50 CURVE",
"908 34 OFFCURVE",
"950 23 OFFCURVE",
"982 16 CURVE SMOOTH",
"1010 9 LINE",
"1049 2 OFFCURVE",
"1088 1 OFFCURVE",
"1129 0 CURVE SMOOTH"
);
},
{
closed = 1;
nodes = (
"658 226 OFFCURVE",
"632 237 OFFCURVE",
"608 254 CURVE SMOOTH",
"583 271 OFFCURVE",
"560 294 OFFCURVE",
"541 317 CURVE SMOOTH",
"522 340 OFFCURVE",
"508 388 OFFCURVE",
"499 440 CURVE SMOOTH",
"490 492 OFFCURVE",
"485 547 OFFCURVE",
"485 584 CURVE SMOOTH",
"485 675 OFFCURVE",
"497 736 OFFCURVE",
"521 776 CURVE SMOOTH",
"545 815 OFFCURVE",
"579 831 OFFCURVE",
"623 831 CURVE SMOOTH",
"694 831 OFFCURVE",
"744 783 OFFCURVE",
"752 664 CURVE",
"752 230 LINE",
"735 227 OFFCURVE",
"705 226 OFFCURVE",
"686 226 CURVE SMOOTH"
);
}
);
width = 1323;
}
);
},
{
glyphname = uni06BE.fina;
lastChange = "2015-05-23 22:01:19 +0000";
layers = (
{
anchors = (
{
name = bottom;
position = "{870, -120}";
},
{
name = top;
position = "{870, 1510}";
}
);
layerId = "9E57200A-6CEB-4B70-98B9-A6ACB8F2607D";
name = Bold;
paths = (
{
closed = 1;
nodes = (
"183 0 LINE SMOOTH",
"420 0 OFFCURVE",
"528 0 OFFCURVE",
"629 51 CURVE",
"727 10 OFFCURVE",
"838 0 OFFCURVE",
"976 0 CURVE SMOOTH",
"1079 0 OFFCURVE",
"1174 27 OFFCURVE",
"1254 80 CURVE",
"1326 24 OFFCURVE",
"1413 0 OFFCURVE",
"1504 0 CURVE SMOOTH",
"1686 0 LINE SMOOTH",
"1689 0 OFFCURVE",
"1691 2 OFFCURVE",
"1691 6 CURVE SMOOTH",
"1691 220 LINE SMOOTH",
"1691 224 OFFCURVE",
"1689 226 OFFCURVE",
"1686 226 CURVE SMOOTH",
"1395 226 LINE",
"1466 337 OFFCURVE",
"1507 489 OFFCURVE",
"1507 682 CURVE SMOOTH",
"1507 1204 OFFCURVE",
"1179 1314 OFFCURVE",
"959 1314 CURVE SMOOTH",
"935 1314 OFFCURVE",
"833 1305 OFFCURVE",
"726 1305 CURVE SMOOTH",
"605 1305 OFFCURVE",
"476 1317 OFFCURVE",
"445 1366 CURVE SMOOTH",
"428 1393 OFFCURVE",
"410 1398 OFFCURVE",
"398 1398 CURVE SMOOTH",
"392 1398 OFFCURVE",
"388 1397 OFFCURVE",
"385 1396 CURVE",
"354 1383 OFFCURVE",
"340 1359 OFFCURVE",
"340 1316 CURVE SMOOTH",
"340 1195 OFFCURVE",
"415 1088 OFFCURVE",
"568 1088 CURVE SMOOTH",
"616 1088 OFFCURVE",
"697 1101 OFFCURVE",
"784 1101 CURVE SMOOTH",
"973 1101 OFFCURVE",
"1195 1041 OFFCURVE",
"1195 662 CURVE SMOOTH",
"1195 236 OFFCURVE",
"1018 155 OFFCURVE",
"892 155 CURVE SMOOTH",
"854 155 OFFCURVE",
"821 163 OFFCURVE",
"799 170 CURVE",
"840 223 OFFCURVE",
"872 380 OFFCURVE",
"872 514 CURVE SMOOTH",
"872 860 OFFCURVE",
"689 905 OFFCURVE",
"608 905 CURVE SMOOTH",
"552 905 OFFCURVE",
"351 847 OFFCURVE",
"351 520 CURVE SMOOTH",
"351 396 OFFCURVE",
"393 245 OFFCURVE",
"462 168 CURVE",
"310 168 OFFCURVE",
"216 226 OFFCURVE",
"216 226 CURVE SMOOTH",
"133 226 LINE",
"133 0 LINE"
);
},
{
closed = 1;
nodes = (
"599 241 OFFCURVE",
"540 384 OFFCURVE",
"540 534 CURVE SMOOTH",
"540 667 OFFCURVE",
"588 776 OFFCURVE",
"609 776 CURVE SMOOTH",
"627 776 OFFCURVE",
"685 641 OFFCURVE",
"685 490 CURVE SMOOTH",
"685 357 OFFCURVE",
"633 241 OFFCURVE",
"616 241 CURVE SMOOTH"
);
}
);
width = 1651;
}
);
unicode = FBAB;
},
{
glyphname = uni06BE.init;
lastChange = "2015-05-23 20:49:50 +0000";
layers = (
{
anchors = (
{
name = bottom;
position = "{870, -120}";
},
{
name = top;
position = "{870, 1510}";
}
);
layerId = "9E57200A-6CEB-4B70-98B9-A6ACB8F2607D";
name = Bold;
paths = (
{
closed = 1;
nodes = (
"108 0 LINE SMOOTH",
"345 0 OFFCURVE",
"453 0 OFFCURVE",
"554 51 CURVE",
"652 10 OFFCURVE",
"763 0 OFFCURVE",
"901 0 CURVE SMOOTH",
"1202 0 OFFCURVE",
"1432 228 OFFCURVE",
"1432 682 CURVE SMOOTH",
"1432 1204 OFFCURVE",
"1104 1314 OFFCURVE",
"884 1314 CURVE SMOOTH",
"860 1314 OFFCURVE",
"758 1305 OFFCURVE",
"651 1305 CURVE SMOOTH",
"530 1305 OFFCURVE",
"401 1317 OFFCURVE",
"370 1366 CURVE SMOOTH",
"353 1393 OFFCURVE",
"336 1399 OFFCURVE",
"324 1399 CURVE SMOOTH",
"317 1399 OFFCURVE",
"313 1397 OFFCURVE",
"310 1396 CURVE SMOOTH",
"279 1383 OFFCURVE",
"265 1359 OFFCURVE",
"265 1316 CURVE SMOOTH",
"265 1195 OFFCURVE",
"340 1088 OFFCURVE",
"493 1088 CURVE SMOOTH",
"541 1088 OFFCURVE",
"622 1101 OFFCURVE",
"709 1101 CURVE SMOOTH",
"898 1101 OFFCURVE",
"1120 1041 OFFCURVE",
"1120 662 CURVE SMOOTH",
"1120 236 OFFCURVE",
"943 155 OFFCURVE",
"817 155 CURVE SMOOTH",
"779 155 OFFCURVE",
"746 163 OFFCURVE",
"724 170 CURVE",
"765 223 OFFCURVE",
"797 380 OFFCURVE",
"797 514 CURVE SMOOTH",
"797 860 OFFCURVE",
"614 905 OFFCURVE",
"533 905 CURVE SMOOTH",
"477 905 OFFCURVE",
"276 847 OFFCURVE",
"276 520 CURVE SMOOTH",
"276 396 OFFCURVE",
"318 245 OFFCURVE",
"387 168 CURVE",
"235 168 OFFCURVE",
"141 226 OFFCURVE",
"141 226 CURVE SMOOTH",
"-14 226 LINE SMOOTH",
"-18 226 OFFCURVE",
"-20 223 OFFCURVE",
"-20 220 CURVE SMOOTH",
"-20 6 LINE SMOOTH",
"-20 3 OFFCURVE",
"-17 0 OFFCURVE",
"-14 0 CURVE SMOOTH"
);
},
{
closed = 1;
nodes = (
"524 241 OFFCURVE",
"465 384 OFFCURVE",
"465 534 CURVE SMOOTH",
"465 667 OFFCURVE",
"513 776 OFFCURVE",
"534 776 CURVE SMOOTH",
"552 776 OFFCURVE",
"610 641 OFFCURVE",
"610 490 CURVE SMOOTH",
"610 357 OFFCURVE",
"558 241 OFFCURVE",
"541 241 CURVE SMOOTH"
);
}
);
width = 1587;
}
);
unicode = FBAC;
},
{
glyphname = uni06BE.medi;
lastChange = "2015-05-23 22:01:27 +0000";
layers = (
{
anchors = (
{
name = bottom;
position = "{850, -120}";
},
{
name = top;
position = "{850, 1510}";
}
);
layerId = "9E57200A-6CEB-4B70-98B9-A6ACB8F2607D";
name = Bold;
paths = (
{
closed = 1;
nodes = (
"88 0 LINE SMOOTH",
"325 0 OFFCURVE",
"433 0 OFFCURVE",
"534 51 CURVE",
"632 10 OFFCURVE",
"743 0 OFFCURVE",
"881 0 CURVE SMOOTH",
"984 0 OFFCURVE",
"1079 27 OFFCURVE",
"1159 80 CURVE",
"1231 24 OFFCURVE",
"1318 0 OFFCURVE",
"1409 0 CURVE SMOOTH",
"1674 0 LINE SMOOTH",
"1677 0 OFFCURVE",
"1679 2 OFFCURVE",
"1679 6 CURVE SMOOTH",
"1679 220 LINE SMOOTH",
"1679 224 OFFCURVE",
"1677 226 OFFCURVE",
"1674 226 CURVE SMOOTH",
"1300 226 LINE",
"1371 337 OFFCURVE",
"1412 489 OFFCURVE",
"1412 682 CURVE SMOOTH",
"1412 1204 OFFCURVE",
"1084 1314 OFFCURVE",
"864 1314 CURVE SMOOTH",
"840 1314 OFFCURVE",
"738 1305 OFFCURVE",
"631 1305 CURVE SMOOTH",
"510 1305 OFFCURVE",
"381 1317 OFFCURVE",
"350 1366 CURVE SMOOTH",
"333 1393 OFFCURVE",
"315 1398 OFFCURVE",
"303 1398 CURVE SMOOTH",
"297 1398 OFFCURVE",
"293 1397 OFFCURVE",
"290 1396 CURVE SMOOTH",
"259 1383 OFFCURVE",
"245 1359 OFFCURVE",
"245 1316 CURVE SMOOTH",
"245 1195 OFFCURVE",
"320 1088 OFFCURVE",
"473 1088 CURVE SMOOTH",
"521 1088 OFFCURVE",
"602 1101 OFFCURVE",
"689 1101 CURVE SMOOTH",
"878 1101 OFFCURVE",
"1100 1041 OFFCURVE",
"1100 662 CURVE SMOOTH",
"1100 236 OFFCURVE",
"923 155 OFFCURVE",
"797 155 CURVE SMOOTH",
"759 155 OFFCURVE",
"726 163 OFFCURVE",
"704 170 CURVE",
"745 223 OFFCURVE",
"777 380 OFFCURVE",
"777 514 CURVE SMOOTH",
"777 860 OFFCURVE",
"594 905 OFFCURVE",
"513 905 CURVE SMOOTH",
"457 905 OFFCURVE",
"256 847 OFFCURVE",
"256 520 CURVE SMOOTH",
"256 396 OFFCURVE",
"298 245 OFFCURVE",
"367 168 CURVE",
"215 168 OFFCURVE",
"121 226 OFFCURVE",
"121 226 CURVE SMOOTH",
"-34 226 LINE SMOOTH",
"-38 226 OFFCURVE",
"-40 223 OFFCURVE",
"-40 220 CURVE SMOOTH",
"-40 6 LINE SMOOTH",
"-40 3 OFFCURVE",
"-37 0 OFFCURVE",
"-34 0 CURVE SMOOTH"
);
},
{
closed = 1;
nodes = (
"504 241 OFFCURVE",
"445 384 OFFCURVE",
"445 534 CURVE SMOOTH",
"445 667 OFFCURVE",
"493 776 OFFCURVE",
"514 776 CURVE SMOOTH",
"532 776 OFFCURVE",
"590 641 OFFCURVE",
"590 490 CURVE SMOOTH",
"590 357 OFFCURVE",
"538 241 OFFCURVE",
"521 241 CURVE SMOOTH"
);
}
);
width = 1639;
}
);
unicode = FBAD;
},
{
glyphname = uni06F0;
lastChange = "2015-05-23 20:49:39 +0000";
layers = (
{
layerId = "9E57200A-6CEB-4B70-98B9-A6ACB8F2607D";
name = Bold;
paths = (
{
closed = 1;
nodes = (
"520 365 OFFCURVE",
"627 472 OFFCURVE",
"627 603 CURVE SMOOTH",
"627 734 OFFCURVE",
"520 841 OFFCURVE",
"389 841 CURVE SMOOTH",
"258 841 OFFCURVE",
"151 734 OFFCURVE",
"151 603 CURVE SMOOTH",
"151 472 OFFCURVE",
"258 365 OFFCURVE",
"389 365 CURVE SMOOTH"
);
}
);
width = 776;
}
);
unicode = 06F0;
},
{
glyphname = uni06F1;
lastChange = "2015-05-23 20:49:50 +0000";
layers = (
{
layerId = "9E57200A-6CEB-4B70-98B9-A6ACB8F2607D";
name = Bold;
paths = (
{
closed = 1;
nodes = (
"510 0 OFFCURVE",
"550 124 OFFCURVE",
"550 192 CURVE SMOOTH",
"550 1192 LINE SMOOTH",
"550 1262 OFFCURVE",
"525 1312 OFFCURVE",
"477 1346 CURVE SMOOTH",
"444 1369 OFFCURVE",
"416 1383 OFFCURVE",
"385 1383 CURVE SMOOTH",
"370 1383 OFFCURVE",
"354 1379 OFFCURVE",
"337 1371 CURVE SMOOTH",
"297 1351 OFFCURVE",
"144 1274 OFFCURVE",
"135 1268 CURVE SMOOTH",
"130 1265 OFFCURVE",
"128 1261 OFFCURVE",
"128 1257 CURVE SMOOTH",
"128 1253 OFFCURVE",
"130 1248 OFFCURVE",
"131 1243 CURVE",
"131 1241 OFFCURVE",
"137 1232 OFFCURVE",
"152 1217 CURVE SMOOTH",
"167 1203 OFFCURVE",
"205 1156 OFFCURVE",
"205 1011 CURVE SMOOTH",
"204 192 LINE SMOOTH",
"204 124 OFFCURVE",
"244 0 OFFCURVE",
"376 0 CURVE SMOOTH"
);
}
);
width = 765;
}
);
unicode = 06F1;
},
{
glyphname = uni06F2;
lastChange = "2015-05-23 20:49:51 +0000";
layers = (
{
layerId = "9E57200A-6CEB-4B70-98B9-A6ACB8F2607D";
name = Bold;
paths = (
{
closed = 1;
nodes = (
"476 0 OFFCURVE",
"516 124 OFFCURVE",
"516 192 CURVE SMOOTH",
"516 193 OFFCURVE",
"516 783 OFFCURVE",
"516 1056 CURVE",
"949 1032 LINE SMOOTH",
"997 1032 OFFCURVE",
"1033 1050 OFFCURVE",
"1054 1088 CURVE SMOOTH",
"1075 1126 OFFCURVE",
"1085 1166 OFFCURVE",
"1085 1208 CURVE",
"1088 1249 OFFCURVE",
"1077 1289 OFFCURVE",
"1054 1327 CURVE SMOOTH",
"1031 1365 OFFCURVE",
"995 1384 OFFCURVE",
"947 1384 CURVE SMOOTH",
"347 1384 LINE SMOOTH",
"333 1384 OFFCURVE",
"317 1380 OFFCURVE",
"301 1371 CURVE",
"261 1351 OFFCURVE",
"107 1274 OFFCURVE",
"99 1268 CURVE SMOOTH",
"94 1264 OFFCURVE",
"92 1261 OFFCURVE",
"92 1256 CURVE SMOOTH",
"92 1252 OFFCURVE",
"93 1248 OFFCURVE",
"95 1243 CURVE",
"95 1241 OFFCURVE",
"100 1233 OFFCURVE",
"116 1217 CURVE SMOOTH",
"130 1203 OFFCURVE",
"168 1143 OFFCURVE",
"168 1011 CURVE SMOOTH",
"168 192 LINE SMOOTH",
"168 124 OFFCURVE",
"207 0 OFFCURVE",
"340 0 CURVE SMOOTH"
);
}
);
width = 1126;
}
);
unicode = 06F2;
},
{
glyphname = uni06F3;
lastChange = "2015-05-23 20:49:50 +0000";
layers = (
{
layerId = "9E57200A-6CEB-4B70-98B9-A6ACB8F2607D";
name = Bold;
paths = (
{
closed = 1;
nodes = (
"480 0 OFFCURVE",
"517 124 OFFCURVE",
"517 192 CURVE SMOOTH",
"517 782 LINE",
"534 779 OFFCURVE",
"552 777 OFFCURVE",
"570 777 CURVE SMOOTH",
"666 777 OFFCURVE",
"738 832 OFFCURVE",
"756 849 CURVE",
"823 801 OFFCURVE",
"893 777 OFFCURVE",
"961 777 CURVE SMOOTH",
"1264 777 OFFCURVE",
"1292 1156 OFFCURVE",
"1292 1263 CURVE SMOOTH",
"1292 1329 OFFCURVE",
"1238 1383 OFFCURVE",
"1172 1383 CURVE SMOOTH",
"1106 1383 OFFCURVE",
"1052 1329 OFFCURVE",
"1052 1263 CURVE SMOOTH",
"1052 1101 OFFCURVE",
"1005 1035 OFFCURVE",
"978 1020 CURVE SMOOTH",
"974 1018 OFFCURVE",
"970 1017 OFFCURVE",
"965 1017 CURVE SMOOTH",
"934 1017 OFFCURVE",
"881 1053 OFFCURVE",
"876 1056 CURVE",
"892 1117 OFFCURVE",
"900 1187 OFFCURVE",
"900 1263 CURVE SMOOTH",
"900 1329 OFFCURVE",
"847 1383 OFFCURVE",
"781 1383 CURVE SMOOTH",
"715 1383 OFFCURVE",
"661 1329 OFFCURVE",
"661 1263 CURVE SMOOTH",
"661 1101 OFFCURVE",
"614 1035 OFFCURVE",
"587 1020 CURVE",
"582 1017 OFFCURVE",
"576 1016 OFFCURVE",
"569 1016 CURVE SMOOTH",
"550 1016 OFFCURVE",
"527 1027 OFFCURVE",
"512 1037 CURVE",
"512 1068 OFFCURVE",
"512 1096 OFFCURVE",
"512 1119 CURVE SMOOTH",
"512 1164 OFFCURVE",
"512 1192 OFFCURVE",
"512 1192 CURVE",
"512 1262 OFFCURVE",
"487 1313 OFFCURVE",
"439 1346 CURVE SMOOTH",
"407 1369 OFFCURVE",
"378 1383 OFFCURVE",
"347 1383 CURVE SMOOTH",
"332 1383 OFFCURVE",
"316 1379 OFFCURVE",
"299 1371 CURVE SMOOTH",
"259 1352 OFFCURVE",
"105 1275 OFFCURVE",
"97 1268 CURVE",
"92 1264 OFFCURVE",
"90 1261 OFFCURVE",
"90 1256 CURVE SMOOTH",
"90 1252 OFFCURVE",
"91 1248 OFFCURVE",
"93 1243 CURVE",
"94 1241 OFFCURVE",
"99 1232 OFFCURVE",
"114 1218 CURVE SMOOTH",
"129 1203 OFFCURVE",
"167 1158 OFFCURVE",
"167 1011 CURVE SMOOTH",
"167 192 LINE SMOOTH",
"167 124 OFFCURVE",
"208 0 OFFCURVE",
"338 0 CURVE SMOOTH"
);
}
);
width = 1345;
}
);
unicode = 06F3;
},
{
glyphname = uni06F9;
lastChange = "2015-05-23 20:49:50 +0000";
layers = (
{
layerId = "9E57200A-6CEB-4B70-98B9-A6ACB8F2607D";
name = Bold;
paths = (
{
closed = 1;
nodes = (
"985 0 OFFCURVE",
"1023 124 OFFCURVE",
"1023 192 CURVE SMOOTH",
"1023 1011 LINE SMOOTH",
"1023 1157 OFFCURVE",
"1061 1203 OFFCURVE",
"1076 1218 CURVE SMOOTH",
"1091 1232 OFFCURVE",
"1096 1241 OFFCURVE",
"1097 1243 CURVE",
"1098 1248 OFFCURVE",
"1099 1252 OFFCURVE",
"1099 1256 CURVE SMOOTH",
"1099 1261 OFFCURVE",
"1098 1265 OFFCURVE",
"1093 1268 CURVE SMOOTH",
"1084 1275 OFFCURVE",
"930 1352 OFFCURVE",
"890 1371 CURVE",
"874 1379 OFFCURVE",
"858 1383 OFFCURVE",
"843 1383 CURVE SMOOTH",
"817 1383 OFFCURVE",
"791 1372 OFFCURVE",
"765 1356 CURVE",
"699 1385 OFFCURVE",
"624 1401 OFFCURVE",
"541 1401 CURVE SMOOTH",
"503 1401 OFFCURVE",
"67 1387 OFFCURVE",
"67 982 CURVE SMOOTH",
"67 902 OFFCURVE",
"128 620 OFFCURVE",
"461 620 CURVE SMOOTH",
"525 620 OFFCURVE",
"595 632 OFFCURVE",
"672 658 CURVE",
"671 556 OFFCURVE",
"670 456 OFFCURVE",
"670 375 CURVE SMOOTH",
"670 267 OFFCURVE",
"671 193 OFFCURVE",
"671 192 CURVE SMOOTH",
"671 124 OFFCURVE",
"710 0 OFFCURVE",
"853 0 CURVE SMOOTH"
);
},
{
closed = 1;
nodes = (
"631 823 OFFCURVE",
"595 818 OFFCURVE",
"564 818 CURVE SMOOTH",
"470 818 OFFCURVE",
"410 862 OFFCURVE",
"410 955 CURVE SMOOTH",
"410 1120 OFFCURVE",
"478 1148 OFFCURVE",
"520 1148 CURVE SMOOTH",
"599 1148 OFFCURVE",
"672 1140 OFFCURVE",
"672 835 CURVE",
"669 833 LINE"
);
}
);
width = 1229;
}
);
unicode = 06F9;
},
{
glyphname = uni06F7;
lastChange = "2015-05-23 20:49:50 +0000";
layers = (
{
layerId = "9E57200A-6CEB-4B70-98B9-A6ACB8F2607D";
name = Bold;
paths = (
{
closed = 1;
nodes = (
"602 0 LINE SMOOTH",
"628 0 OFFCURVE",
"662 4 OFFCURVE",
"698 13 CURVE SMOOTH",
"1012 100 OFFCURVE",
"1146 549 OFFCURVE",
"1146 903 CURVE SMOOTH",
"1146 1020 OFFCURVE",
"1131 1126 OFFCURVE",
"1104 1206 CURVE SMOOTH",
"1060 1335 OFFCURVE",
"962 1367 OFFCURVE",
"951 1370 CURVE",
"925 1381 OFFCURVE",
"898 1386 OFFCURVE",
"873 1386 CURVE SMOOTH",
"847 1386 OFFCURVE",
"823 1380 OFFCURVE",
"803 1370 CURVE",
"802 1370 OFFCURVE",
"764 1352 OFFCURVE",
"749 1322 CURVE",
"747 1317 OFFCURVE",
"756 1297 OFFCURVE",
"770 1272 CURVE SMOOTH",
"802 1210 OFFCURVE",
"836 1122 OFFCURVE",
"836 964 CURVE SMOOTH",
"836 916 OFFCURVE",
"833 862 OFFCURVE",
"826 800 CURVE SMOOTH",
"815 706 OFFCURVE",
"775 398 OFFCURVE",
"593 306 CURVE",
"411 398 OFFCURVE",
"372 706 OFFCURVE",
"361 800 CURVE SMOOTH",
"354 862 OFFCURVE",
"351 916 OFFCURVE",
"351 964 CURVE SMOOTH",
"351 1122 OFFCURVE",
"385 1210 OFFCURVE",
"417 1272 CURVE SMOOTH",
"431 1297 OFFCURVE",
"440 1317 OFFCURVE",
"438 1322 CURVE",
"423 1352 OFFCURVE",
"385 1370 OFFCURVE",
"384 1370 CURVE",
"364 1380 OFFCURVE",
"340 1386 OFFCURVE",
"314 1386 CURVE SMOOTH",
"289 1386 OFFCURVE",
"262 1381 OFFCURVE",
"236 1370 CURVE",
"224 1367 OFFCURVE",
"127 1335 OFFCURVE",
"83 1206 CURVE SMOOTH",
"56 1126 OFFCURVE",
"41 1020 OFFCURVE",
"41 903 CURVE SMOOTH",
"41 549 OFFCURVE",
"175 100 OFFCURVE",
"489 13 CURVE SMOOTH",
"525 4 OFFCURVE",
"559 0 OFFCURVE",
"585 0 CURVE SMOOTH"
);
}
);
width = 1186;
}
);
unicode = 06F7;
},
{
glyphname = uni06F8;
lastChange = "2015-05-23 20:49:51 +0000";
layers = (
{
layerId = "9E57200A-6CEB-4B70-98B9-A6ACB8F2607D";
name = Bold;
paths = (
{
closed = 1;
nodes = (
"261 5 OFFCURVE",
"288 0 OFFCURVE",
"313 0 CURVE SMOOTH",
"339 0 OFFCURVE",
"363 6 OFFCURVE",
"383 16 CURVE",
"384 16 OFFCURVE",
"422 34 OFFCURVE",
"437 64 CURVE",
"439 69 OFFCURVE",
"430 89 OFFCURVE",
"416 114 CURVE SMOOTH",
"384 176 OFFCURVE",
"350 264 OFFCURVE",
"350 422 CURVE SMOOTH",
"350 470 OFFCURVE",
"353 524 OFFCURVE",
"360 586 CURVE SMOOTH",
"371 680 OFFCURVE",
"411 988 OFFCURVE",
"593 1080 CURVE",
"775 988 OFFCURVE",
"814 680 OFFCURVE",
"825 586 CURVE SMOOTH",
"832 524 OFFCURVE",
"835 470 OFFCURVE",
"835 422 CURVE SMOOTH",
"835 264 OFFCURVE",
"801 176 OFFCURVE",
"769 114 CURVE SMOOTH",
"755 89 OFFCURVE",
"746 69 OFFCURVE",
"748 64 CURVE",
"763 34 OFFCURVE",
"801 16 OFFCURVE",
"802 16 CURVE",
"822 6 OFFCURVE",
"846 0 OFFCURVE",
"872 0 CURVE SMOOTH",
"897 0 OFFCURVE",
"924 5 OFFCURVE",
"950 16 CURVE",
"962 19 OFFCURVE",
"1060 51 OFFCURVE",
"1104 180 CURVE SMOOTH",
"1131 260 OFFCURVE",
"1146 366 OFFCURVE",
"1146 483 CURVE SMOOTH",
"1146 837 OFFCURVE",
"1012 1286 OFFCURVE",
"697 1373 CURVE SMOOTH",
"661 1382 OFFCURVE",
"627 1386 OFFCURVE",
"601 1386 CURVE SMOOTH",
"584 1386 LINE SMOOTH",
"558 1386 OFFCURVE",
"524 1382 OFFCURVE",
"488 1373 CURVE SMOOTH",
"174 1286 OFFCURVE",
"40 837 OFFCURVE",
"40 483 CURVE SMOOTH",
"40 366 OFFCURVE",
"55 260 OFFCURVE",
"82 180 CURVE SMOOTH",
"126 51 OFFCURVE",
"224 19 OFFCURVE",
"235 16 CURVE"
);
}
);
width = 1186;
}
);
unicode = 06F8;
},
{
glyphname = uni06F4.urdu;
lastChange = "2015-05-23 20:49:50 +0000";
layers = (
{
layerId = "9E57200A-6CEB-4B70-98B9-A6ACB8F2607D";
name = Bold;
paths = (
{
closed = 1;
nodes = (
"352 -2 LINE SMOOTH",
"493 -2 OFFCURVE",
"529 122 OFFCURVE",
"529 190 CURVE SMOOTH",
"529 191 OFFCURVE",
"530 405 OFFCURVE",
"530 635 CURVE SMOOTH",
"530 750 OFFCURVE",
"530 869 OFFCURVE",
"529 967 CURVE",
"593 908 OFFCURVE",
"626 868 OFFCURVE",
"628 865 CURVE",
"652 836 OFFCURVE",
"688 819 OFFCURVE",
"726 819 CURVE SMOOTH",
"772 819 OFFCURVE",
"943 994 OFFCURVE",
"1109 1137 CURVE SMOOTH",
"1139 1163 OFFCURVE",
"1156 1200 OFFCURVE",
"1156 1237 CURVE SMOOTH",
"1156 1264 OFFCURVE",
"1147 1290 OFFCURVE",
"1129 1313 CURVE SMOOTH",
"1104 1344 OFFCURVE",
"1068 1360 OFFCURVE",
"1031 1360 CURVE SMOOTH",
"1004 1360 OFFCURVE",
"977 1351 OFFCURVE",
"954 1333 CURVE SMOOTH",
"915 1302 OFFCURVE",
"734 1147 OFFCURVE",
"719 1131 CURVE",
"654 1193 OFFCURVE",
"559 1274 OFFCURVE",
"434 1358 CURVE SMOOTH",
"425 1364 OFFCURVE",
"415 1369 OFFCURVE",
"405 1372 CURVE",
"390 1378 OFFCURVE",
"375 1382 OFFCURVE",
"360 1382 CURVE SMOOTH",
"345 1382 OFFCURVE",
"330 1378 OFFCURVE",
"314 1370 CURVE SMOOTH",
"111 1267 LINE",
"107 1264 OFFCURVE",
"105 1260 OFFCURVE",
"105 1256 CURVE SMOOTH",
"105 1252 OFFCURVE",
"107 1247 OFFCURVE",
"108 1242 CURVE",
"108 1240 OFFCURVE",
"113 1230 OFFCURVE",
"129 1215 CURVE",
"144 1202 OFFCURVE",
"181 1137 OFFCURVE",
"181 1010 CURVE SMOOTH",
"181 190 LINE SMOOTH",
"181 122 OFFCURVE",
"222 -2 OFFCURVE",
"350 -2 CURVE SMOOTH"
);
}
);
width = 1155;
}
);
},
{
glyphname = uni06F7.urdu;
lastChange = "2015-05-23 20:49:51 +0000";
layers = (
{
layerId = "9E57200A-6CEB-4B70-98B9-A6ACB8F2607D";
name = Bold;
paths = (
{
closed = 1;
nodes = (
"897 0 LINE SMOOTH",
"945 0 OFFCURVE",
"981 19 OFFCURVE",
"1004 57 CURVE SMOOTH",
"1027 95 OFFCURVE",
"1038 135 OFFCURVE",
"1035 176 CURVE",
"1035 218 OFFCURVE",
"1025 258 OFFCURVE",
"1004 296 CURVE SMOOTH",
"983 334 OFFCURVE",
"947 352 OFFCURVE",
"899 352 CURVE SMOOTH",
"894 352 OFFCURVE",
"466 328 OFFCURVE",
"466 328 CURVE",
"466 1192 LINE SMOOTH",
"466 1260 OFFCURVE",
"426 1384 OFFCURVE",
"290 1384 CURVE SMOOTH",
"157 1384 OFFCURVE",
"118 1260 OFFCURVE",
"118 1192 CURVE SMOOTH",
"118 373 LINE SMOOTH",
"118 242 OFFCURVE",
"81 181 OFFCURVE",
"66 167 CURVE SMOOTH",
"50 151 OFFCURVE",
"45 143 OFFCURVE",
"45 141 CURVE",
"43 136 OFFCURVE",
"42 132 OFFCURVE",
"42 128 CURVE SMOOTH",
"42 123 OFFCURVE",
"44 120 OFFCURVE",
"49 116 CURVE SMOOTH",
"57 110 OFFCURVE",
"211 33 OFFCURVE",
"251 13 CURVE",
"267 4 OFFCURVE",
"283 0 OFFCURVE",
"297 0 CURVE SMOOTH"
);
}
);
width = 1144;
}
);
},
{
glyphname = kasra_01;
lastChange = "2015-05-23 20:49:51 +0000";
layers = (
{
layerId = "9E57200A-6CEB-4B70-98B9-A6ACB8F2607D";
name = Bold;
paths = (
{
closed = 1;
nodes = (
"-199 -601 OFFCURVE",
"-186 -595 OFFCURVE",
"-174 -587 CURVE SMOOTH",
"-146 -569 LINE SMOOTH",
"-127 -557 OFFCURVE",
"-101 -543 OFFCURVE",
"-66 -527 CURVE SMOOTH",
"3 -495 OFFCURVE",
"105 -460 OFFCURVE",
"230 -444 CURVE SMOOTH",
"267 -439 OFFCURVE",
"294 -408 OFFCURVE",
"294 -373 CURVE SMOOTH",
"294 -328 OFFCURVE",
"255 -296 OFFCURVE",
"213 -301 CURVE SMOOTH",
"141 -310 OFFCURVE",
"76 -324 OFFCURVE",
"19 -342 CURVE SMOOTH",
"-97 -379 OFFCURVE",
"-178 -419 OFFCURVE",
"-222 -448 CURVE SMOOTH",
"-259 -472 LINE",
"-278 -486 OFFCURVE",
"-288 -508 OFFCURVE",
"-288 -530 CURVE SMOOTH",
"-288 -544 OFFCURVE",
"-284 -559 OFFCURVE",
"-274 -572 CURVE SMOOTH",
"-259 -592 OFFCURVE",
"-237 -602 OFFCURVE",
"-214 -601 CURVE"
);
}
);
width = 0;
}
);
unicode = FE7A;
},
{
glyphname = Ghunna_above;
lastChange = "2015-05-23 20:49:50 +0000";
layers = (
{
layerId = "9E57200A-6CEB-4B70-98B9-A6ACB8F2607D";
name = Bold;
paths = (
{
closed = 1;
nodes = (
"74 1185 OFFCURVE",
"133 1208 OFFCURVE",
"180 1255 CURVE SMOOTH",
"227 1303 OFFCURVE",
"249 1368 OFFCURVE",
"260 1432 CURVE SMOOTH",
"267 1473 OFFCURVE",
"268 1542 OFFCURVE",
"268 1587 CURVE SMOOTH",
"268 1611 OFFCURVE",
"268 1627 OFFCURVE",
"268 1627 CURVE",
"268 1666 OFFCURVE",
"235 1699 OFFCURVE",
"196 1699 CURVE SMOOTH",
"156 1699 OFFCURVE",
"124 1666 OFFCURVE",
"124 1627 CURVE SMOOTH",
"124 1622 OFFCURVE",
"124 1497 OFFCURVE",
"121 1474 CURVE SMOOTH",
"116 1428 OFFCURVE",
"102 1382 OFFCURVE",
"77 1355 CURVE",
"66 1344 OFFCURVE",
"46 1328 OFFCURVE",
"1 1328 CURVE SMOOTH",
"-69 1328 OFFCURVE",
"-119 1351 OFFCURVE",
"-149 1396 CURVE SMOOTH",
"-167 1423 OFFCURVE",
"-176 1457 OFFCURVE",
"-176 1494 CURVE SMOOTH",
"-176 1527 OFFCURVE",
"-169 1563 OFFCURVE",
"-154 1599 CURVE SMOOTH",
"-150 1608 OFFCURVE",
"-148 1618 OFFCURVE",
"-148 1628 CURVE SMOOTH",
"-148 1664 OFFCURVE",
"-176 1698 OFFCURVE",
"-220 1698 CURVE SMOOTH",
"-248 1698 OFFCURVE",
"-274 1682 OFFCURVE",
"-285 1654 CURVE SMOOTH",
"-308 1601 OFFCURVE",
"-319 1546 OFFCURVE",
"-319 1494 CURVE SMOOTH",
"-319 1429 OFFCURVE",
"-302 1368 OFFCURVE",
"-269 1317 CURVE SMOOTH",
"-212 1232 OFFCURVE",
"-116 1185 OFFCURVE",
"1 1185 CURVE SMOOTH"
);
},
{
closed = 1;
nodes = (
"35 1513 OFFCURVE",
"67 1545 OFFCURVE",
"67 1584 CURVE SMOOTH",
"67 1892 LINE SMOOTH",
"67 1931 OFFCURVE",
"35 1963 OFFCURVE",
"-5 1963 CURVE SMOOTH",
"-44 1963 OFFCURVE",
"-77 1931 OFFCURVE",
"-77 1892 CURVE SMOOTH",
"-77 1584 LINE SMOOTH",
"-77 1545 OFFCURVE",
"-44 1513 OFFCURVE",
"-5 1513 CURVE SMOOTH"
);
}
);
width = 0;
}
);
},
{
glyphname = uni067C;
lastChange = "2015-05-23 20:49:46 +0000";
layers = (
{
anchors = (
{
name = bottom;
position = "{867, -376}";
},
{
name = top;
position = "{867, 1608}";
}
);
components = (
{
name = twodots.above;
transform = "{1, 0, 0, 1, 849, 0}";
}
);
layerId = "9E57200A-6CEB-4B70-98B9-A6ACB8F2607D";
name = Bold;
paths = (
{
closed = 1;
nodes = (
"990 -281 OFFCURVE",
"1089 -181 OFFCURVE",
"1089 -58 CURVE SMOOTH",
"1089 -38 OFFCURVE",
"1087 -19 OFFCURVE",
"1082 0 CURVE",
"1126 0 LINE SMOOTH",
"1449 0 OFFCURVE",
"1602 300 OFFCURVE",
"1602 605 CURVE SMOOTH",
"1602 889 OFFCURVE",
"1496 1053 OFFCURVE",
"1318 1053 CURVE SMOOTH",
"1179 1053 OFFCURVE",
"1117 972 OFFCURVE",
"1117 919 CURVE SMOOTH",
"1117 915 OFFCURVE",
"1124 909 OFFCURVE",
"1124 909 CURVE",
"1240 833 OFFCURVE",
"1284 753 OFFCURVE",
"1284 534 CURVE SMOOTH",
"1284 314 OFFCURVE",
"1208 226 OFFCURVE",
"1121 226 CURVE SMOOTH",
"587 226 LINE SMOOTH",
"527 226 OFFCURVE",
"488 280 OFFCURVE",
"488 381 CURVE SMOOTH",
"488 773 LINE SMOOTH",
"488 886 OFFCURVE",
"418 944 OFFCURVE",
"314 944 CURVE SMOOTH",
"212 944 OFFCURVE",
"132 889 OFFCURVE",
"132 773 CURVE SMOOTH",
"133 343 LINE SMOOTH",
"133 241 OFFCURVE",
"250 0 OFFCURVE",
"525 0 CURVE SMOOTH",
"652 0 LINE",
"647 -19 OFFCURVE",
"645 -38 OFFCURVE",
"645 -58 CURVE SMOOTH",
"645 -181 OFFCURVE",
"744 -281 OFFCURVE",
"867 -281 CURVE SMOOTH"
);
},
{
closed = 1;
nodes = (
"826 -132 OFFCURVE",
"794 -99 OFFCURVE",
"794 -58 CURVE SMOOTH",
"794 -18 OFFCURVE",
"826 15 OFFCURVE",
"867 15 CURVE SMOOTH",
"908 15 OFFCURVE",
"941 -18 OFFCURVE",
"941 -58 CURVE SMOOTH",
"941 -99 OFFCURVE",
"908 -132 OFFCURVE",
"867 -132 CURVE SMOOTH"
);
}
);
width = 1776;
}
);
unicode = 067C;
},
{
glyphname = uni067C.fina;
lastChange = "2015-05-23 22:01:58 +0000";
layers = (
{
anchors = (
{
name = bottom;
position = "{867, -376}";
},
{
name = top;
position = "{867, 1608}";
}
);
components = (
{
name = twodots.above;
transform = "{1, 0, 0, 1, 865, 0}";
}
);
layerId = "9E57200A-6CEB-4B70-98B9-A6ACB8F2607D";
name = Bold;
paths = (
{
closed = 1;
nodes = (
"990 -281 OFFCURVE",
"1089 -182 OFFCURVE",
"1089 -59 CURVE SMOOTH",
"1089 -39 OFFCURVE",
"1087 -19 OFFCURVE",
"1082 0 CURVE",
"1126 0 LINE SMOOTH",
"1228 0 OFFCURVE",
"1312 30 OFFCURVE",
"1381 79 CURVE",
"1453 24 OFFCURVE",
"1539 0 OFFCURVE",
"1631 0 CURVE SMOOTH",
"1873 0 LINE SMOOTH",
"1876 0 OFFCURVE",
"1878 2 OFFCURVE",
"1878 6 CURVE SMOOTH",
"1878 220 LINE SMOOTH",
"1878 224 OFFCURVE",
"1876 226 OFFCURVE",
"1873 226 CURVE SMOOTH",
"1509 226 LINE",
"1572 334 OFFCURVE",
"1602 469 OFFCURVE",
"1602 605 CURVE SMOOTH",
"1602 889 OFFCURVE",
"1496 1053 OFFCURVE",
"1318 1053 CURVE SMOOTH",
"1179 1053 OFFCURVE",
"1117 972 OFFCURVE",
"1117 919 CURVE SMOOTH",
"1117 915 OFFCURVE",
"1124 909 OFFCURVE",
"1124 909 CURVE",
"1240 833 OFFCURVE",
"1284 753 OFFCURVE",
"1284 534 CURVE SMOOTH",
"1284 314 OFFCURVE",
"1208 226 OFFCURVE",
"1121 226 CURVE SMOOTH",
"587 226 LINE SMOOTH",
"528 226 OFFCURVE",
"488 280 OFFCURVE",
"488 381 CURVE SMOOTH",
"488 773 LINE SMOOTH",
"488 886 OFFCURVE",
"418 944 OFFCURVE",
"314 944 CURVE SMOOTH",
"212 944 OFFCURVE",
"132 889 OFFCURVE",
"132 773 CURVE SMOOTH",
"133 343 LINE SMOOTH",
"133 241 OFFCURVE",
"250 0 OFFCURVE",
"525 0 CURVE SMOOTH",
"652 0 LINE",
"647 -19 OFFCURVE",
"645 -39 OFFCURVE",
"645 -59 CURVE SMOOTH",
"645 -182 OFFCURVE",
"744 -281 OFFCURVE",
"867 -281 CURVE SMOOTH"
);
},
{
closed = 1;
nodes = (
"826 -132 OFFCURVE",
"794 -99 OFFCURVE",
"794 -59 CURVE SMOOTH",
"794 -18 OFFCURVE",
"826 15 OFFCURVE",
"867 15 CURVE SMOOTH",
"908 15 OFFCURVE",
"941 -18 OFFCURVE",
"941 -59 CURVE SMOOTH",
"941 -99 OFFCURVE",
"908 -132 OFFCURVE",
"867 -132 CURVE SMOOTH"
);
}
);
width = 1838;
}
);
},
{
glyphname = uni067C.init;
lastChange = "2015-05-23 22:07:28 +0000";
layers = (
{
anchors = (
{
name = bottom;
position = "{404, -376}";
},
{
name = top;
position = "{404, 1608}";
}
);
components = (
{
name = twodots.above;
transform = "{1, 0, 0, 1, 406, 0}";
}
);
layerId = "9E57200A-6CEB-4B70-98B9-A6ACB8F2607D";
name = Bold;
paths = (
{
closed = 1;
nodes = (
"504 -282 OFFCURVE",
"604 -182 OFFCURVE",
"604 -59 CURVE SMOOTH",
"604 12 OFFCURVE",
"570 75 OFFCURVE",
"518 116 CURVE",
"638 231 OFFCURVE",
"695 417 OFFCURVE",
"695 604 CURVE SMOOTH",
"695 888 OFFCURVE",
"589 1052 OFFCURVE",
"411 1052 CURVE SMOOTH",
"272 1052 OFFCURVE",
"210 971 OFFCURVE",
"210 918 CURVE SMOOTH",
"210 914 OFFCURVE",
"217 908 OFFCURVE",
"217 908 CURVE",
"333 832 OFFCURVE",
"377 752 OFFCURVE",
"377 533 CURVE SMOOTH",
"377 313 OFFCURVE",
"301 225 OFFCURVE",
"214 225 CURVE SMOOTH",
"-35 225 LINE SMOOTH",
"-38 225 OFFCURVE",
"-40 223 OFFCURVE",
"-40 219 CURVE SMOOTH",
"-40 5 LINE SMOOTH",
"-40 1 OFFCURVE",
"-38 -1 OFFCURVE",
"-35 -1 CURVE SMOOTH",
"167 -1 LINE",
"161 -20 OFFCURVE",
"159 -39 OFFCURVE",
"159 -59 CURVE SMOOTH",
"159 -182 OFFCURVE",
"258 -282 OFFCURVE",
"381 -282 CURVE SMOOTH"
);
},
{
closed = 1;
nodes = (
"341 -133 OFFCURVE",
"308 -100 OFFCURVE",
"308 -59 CURVE SMOOTH",
"308 -19 OFFCURVE",
"341 14 OFFCURVE",
"381 14 CURVE SMOOTH",
"422 14 OFFCURVE",
"455 -19 OFFCURVE",
"455 -59 CURVE SMOOTH",
"455 -100 OFFCURVE",
"422 -133 OFFCURVE",
"381 -133 CURVE SMOOTH"
);
}
);
width = 871;
}
);
},
